<svg xmlns="http://www.w3.org/2000/svg" xmlns:xlink="http://www.w3.org/1999/xlink" viewBox="0 0 907.09 907.09">
  <defs>
    <style>
      .cls-1 {
        isolation: isolate;
      }

      .cls-2, .cls-7, .cls-9 {
        font-size: 171.09px;
        font-family: Ubuntu-Bold, Ubuntu;
        font-weight: 700;
      }

      .cls-2, .cls-29, .cls-33 {
        fill: none;
      }

      .cls-2 {
        stroke: #baefa0;
        stroke-linejoin: round;
        stroke-width: 52.31px;
      }

      .cls-3, .cls-5 {
        fill: #baefa0;
      }

      .cls-13, .cls-14, .cls-22, .cls-35, .cls-4, .cls-9 {
        fill: #fff;
      }

      .cls-17, .cls-18, .cls-23, .cls-32, .cls-5 {
        mix-blend-mode: multiply;
      }

      .cls-6 {
        fill: #4f2a11;
      }

      .cls-21, .cls-23, .cls-7 {
        fill: #74b559;
      }

      .cls-8 {
        fill: #599a3e;
      }

      .cls-10 {
        fill: #9cd484;
      }

      .cls-11 {
        fill: #4c91c6;
      }

      .cls-12 {
        fill: url(#radial-gradient);
      }

      .cls-13, .cls-18, .cls-30, .cls-32 {
        opacity: 0.4;
      }

      .cls-14 {
        opacity: 0.41;
      }

      .cls-14, .cls-22, .cls-34, .cls-35 {
        mix-blend-mode: overlay;
      }

      .cls-15 {
        fill: url(#radial-gradient-2);
      }

      .cls-16 {
        fill: #fff9f6;
      }

      .cls-17 {
        fill: #ba9888;
        opacity: 0.35;
      }

      .cls-18 {
        fill: #a5968e;
      }

      .cls-19 {
        fill: url(#linear-gradient);
      }

      .cls-20 {
        fill: #e5c2a8;
      }

      .cls-22 {
        opacity: 0.43;
      }

      .cls-23, .cls-28, .cls-34 {
        opacity: 0.5;
      }

      .cls-24 {
        fill: #ff7182;
      }

      .cls-25 {
        fill: #725e5b;
      }

      .cls-26, .cls-28 {
        fill: #351905;
      }

      .cls-27 {
        fill: #5b1d0d;
      }

      .cls-29 {
        stroke: #fff;
        stroke-width: 7.52px;
      }

      .cls-29, .cls-33 {
        stroke-miterlimit: 10;
      }

      .cls-31 {
        fill: #cfe3ff;
      }

      .cls-33 {
        stroke: #cfe3ff;
        stroke-width: 15.97px;
      }
    </style>
    <radialGradient id="radial-gradient" cx="210.22" cy="-163.62" r="18.97" gradientTransform="translate(159.4 398.3) scale(1.09 1)" gradientUnits="userSpaceOnUse">
      <stop offset="0" stop-color="#603e26"/>
      <stop offset="0.29" stop-color="#5c3a23"/>
      <stop offset="0.62" stop-color="#4e2f18"/>
      <stop offset="0.96" stop-color="#381c08"/>
      <stop offset="1" stop-color="#351905"/>
    </radialGradient>
    <radialGradient id="radial-gradient-2" cx="290.49" cy="-172.17" r="17.26" gradientTransform="translate(155.31 379.31) scale(1.09 1)" gradientUnits="userSpaceOnUse">
      <stop offset="0" stop-color="#603e26"/>
      <stop offset="0.29" stop-color="#593821"/>
      <stop offset="0.73" stop-color="#452711"/>
      <stop offset="1" stop-color="#351905"/>
    </radialGradient>
    <linearGradient id="linear-gradient" x1="498.71" y1="132.21" x2="677.49" y2="552.03" gradientUnits="userSpaceOnUse">
      <stop offset="0" stop-color="#fff"/>
      <stop offset="1" stop-color="#fffae3"/>
    </linearGradient>
  </defs>
  <g class="cls-1">
    <g id="Layer_1" data-name="Layer 1">
      <g>
        <g>
          <text class="cls-2" transform="translate(113.56 830.61) scale(0.88 1)">STROLCH</text>
          <path class="cls-3" d="M139.86,582c11.47,50.71,25.76,100.76,39.44,149,5,17.62,10.46,35.72,21.89,50.17C213.66,797,232,806.8,250.63,813.79c45.5,17.1,94.46,19.67,142.37,19.56,69.32-.16,139.64-5.9,204.93-28.15,26.36-9,61.72-19.8,78.82-43,18.14-24.57,35.4-50,47.86-78.29,23.64-53.56,38.41-111,49.09-169.1a1297,1297,0,0,0,21.33-229c.12-26.84-1.44-56.13-18.83-77.12C759.91,189.06,733.68,181.6,709,177c-47.78-8.9-96.29-11.19-144.54-11.44a1714.86,1714.86,0,0,0-216,12.53c-55.69,6.79-112.21,16.76-160.32,44.57-19.06,11-36.9,25.15-48.13,44.21-9.05,15.36-13.4,33.19-16.5,51C108.57,404,120,494,139.86,582Z"/>
          <path class="cls-4" d="M460.24,706.44q-24.9-.27-49.77-1.4-34.89-1.57-69.67-4.88c-17.73-1.67-45.87,2.85-61.49-6.22-8-4.67-13.09-13.11-17.18-21.47-28.91-59.13-41.59-133.53-50.66-198.39-6.47-46.26-16.05-105.78,9-148.24,8.38-14.21,21.68-24.74,35.89-33,35.86-20.73,78-28.17,119.52-33.23a1279,1279,0,0,1,161-9.34c36,.18,72.14,1.89,107.76,8.52,18.38,3.42,37.94,9,50.08,23.65,13,15.65,14.13,37.49,14,57.5a968.13,968.13,0,0,1-15.9,170.72c-6.28,34.11-14.46,67.93-25.78,100.74-10.44,30.26-19.64,63.92-50.23,79.34-21.33,10.75-45.88,12.74-69.74,13.94Q503.7,706.9,460.24,706.44Z"/>
          <path class="cls-5" d="M138.72,323.26c-32.8-14.47-48-65.13-35.73-96.12,10-25.39,36.28-42.82,63.72-42.29a49,49,0,0,1,15.07,2.44c14.34,4.94,24.83,18.09,31.14,32.06,17,37.56,9.69,81.22-26.9,100.54C171.72,327.44,154,330,138.72,323.26Z"/>
          <path class="cls-5" d="M767.54,547.36c-17.18,5.4-33.37-.23-42.18-17.42-4-7.75-5.58-16.47-6.12-25.06-1-16.7,2.09-34.18,12.38-46.82,16.68-20.52,40.72-18.11,58,.88,7.34,8.09,14.23,17.07,17.18,27.52,3.72,13.22.51,27.64-7.14,38.52S780.24,543.36,767.54,547.36Z"/>
        </g>
        <g>
          <path class="cls-6" d="M430.61,695.87a48,48,0,0,0-31.7-.94c-20,6-35.6,21.69-56.59,25.22-35.92,6-72.6-4.65-108-9.7-15.21-2.18-31.16-3.34-45.55,2.06-20.19,7.59-34.45,28.72-34,50.27a53.36,53.36,0,0,0,17.4,37.44c14.05,12.78,19,1.07,34.52,4.59,3.88.87,47.52,13.25,46,17.38A143.6,143.6,0,0,0,261,755.34c-.39-3.42-.84-7.19,1.07-10.06,1.51-2.29,4.2-3.47,6.76-4.48,5.69-2.22,12-4.15,17.84-2.48,9.06,2.57,13.87,12.83,14.25,22.23s-2.45,18.64-3.14,28,1.41,20,9.09,25.42c4.73,3.36,10.75,4.19,16.52,4.78,34.32,3.55,70.11,5.65,104.52,2.56,4.51-.41,8.9-3.78,13.44-5,10.52-2.93,21.87-2.34,32.48-.16,14.71,3,28.64,9,43.1,13.08,48.89,13.75,100.93,5.1,151-3.63,10.24-1.79,20.6-3.62,30.06-7.94s18-11.49,21.83-21.17c4.21-10.75,2-22.86-.89-34-3.21-12.33-7.76-25.24-17.92-32.94-14-10.65-34-7.9-50.55-1.76-10.07,3.75-20.13,8.89-26.45,17.58-13.24,18.2-6.74,46.87-23,62.44-12.48,12-32.66,10.25-49,4.71-7-2.37-19.66-5.82-24.22-12s-4.41-20.36-4.76-27.77c-1-21.28,2.84-42.5,1.34-63.78a3.3,3.3,0,0,0-.63-2.06,3.37,3.37,0,0,0-2.43-.74l-56.08-1.72c-14.08-.43-20.6-2.41-32.77-7.84C431.8,696.35,431.21,696.1,430.61,695.87Z"/>
          <g>
            <text class="cls-7" transform="translate(113.56 825.01) scale(0.88 1)">STROLCH</text>
            <g>
              <path class="cls-6" d="M154.12,851.12a94.05,94.05,0,0,1-15.5-1.19A91.69,91.69,0,0,1,126.28,847a69,69,0,0,1-10-3.95,70.94,70.94,0,0,1-7-3.92A18,18,0,0,1,102,818.73l6.63-21.22A17.94,17.94,0,0,1,119.53,786a17.14,17.14,0,0,1,2.29-.68,53.84,53.84,0,0,1-4.3-3.84,49.58,49.58,0,0,1-10.41-15.2A51.94,51.94,0,0,1,103,745a56.69,56.69,0,0,1,4.06-21.64,49.45,49.45,0,0,1,12.08-17.53A51.87,51.87,0,0,1,137.47,695a66.25,66.25,0,0,1,21.92-3.49A75.72,75.72,0,0,1,183.32,695a77.9,77.9,0,0,1,16.43,7.41,18,18,0,0,1,7.64,20.79l-6.78,21a18,18,0,0,1-7.83,9.88,53.07,53.07,0,0,1,7.94,7.16,47,47,0,0,1,9.66,16.86,64.19,64.19,0,0,1,2.85,20.13c0,20.37-8.83,32.53-16.25,39.15C186.79,846.5,172.37,851.12,154.12,851.12Z"/>
              <path class="cls-6" d="M232.8,848.72a18,18,0,0,1-18-18V752.91H201.3a18,18,0,0,1-18-18V712.19a18,18,0,0,1,18-18h86.53a18,18,0,0,1,18,18V735a18,18,0,0,1-18,18H274.29v77.85a18,18,0,0,1-18,18Z"/>
              <path class="cls-6" d="M362.09,848.72a18,18,0,0,1-16.11-10l-2-4.09a18,18,0,0,1-17.54,14.09H302.9a18,18,0,0,1-18-18V713.9A18,18,0,0,1,299,696.37a136.9,136.9,0,0,1,18.3-2.77c6-.49,11.42-.74,16.19-.74,19.62,0,35.39,4.42,46.89,13.15,8.95,6.79,19.62,19.91,19.62,43.82,0,11.82-2.67,21.93-7.94,30a49.16,49.16,0,0,1-5.47,7c1.73,2.95,3.45,6,5.12,9.08,2.43,4.46,4.79,9.16,7,14s4.3,9.42,6.19,14a18,18,0,0,1-16.57,24.88Z"/>
              <path class="cls-6" d="M448.22,851.12a70.31,70.31,0,0,1-27.07-5.31,64,64,0,0,1-23-16.22,74.07,74.07,0,0,1-14.81-25.45c-3.38-9.59-5.09-20.61-5.09-32.75s1.79-23.3,5.31-32.95a76.24,76.24,0,0,1,15-25.34,64.68,64.68,0,0,1,22.94-16.29,69.1,69.1,0,0,1,26.75-5.32,70.39,70.39,0,0,1,27.08,5.3,63.79,63.79,0,0,1,23.05,16.38,75,75,0,0,1,14.75,25.47c3.38,9.59,5.09,20.61,5.09,32.75s-1.67,23.09-5,32.65a74.47,74.47,0,0,1-14.49,25.41,62.55,62.55,0,0,1-23.09,16.38A71.71,71.71,0,0,1,448.22,851.12Zm0-100.26a6.62,6.62,0,0,0-3.09.59,7.82,7.82,0,0,0-2.63,2.46,20.4,20.4,0,0,0-2.77,6.43,48.61,48.61,0,0,0,0,22.12,20.32,20.32,0,0,0,2.78,6.41,6.82,6.82,0,0,0,2.42,2.26,7.2,7.2,0,0,0,3.3.62,6.21,6.21,0,0,0,5.73-2.88,20.49,20.49,0,0,0,2.78-6.4A43.35,43.35,0,0,0,458,771.39a44.26,44.26,0,0,0-1.29-11.22,20.24,20.24,0,0,0-2.77-6.44,6.62,6.62,0,0,0-2.41-2.21A6.7,6.7,0,0,0,448.22,750.86Z"/>
              <path class="cls-6" d="M519.83,848.72a18,18,0,0,1-18-18V712.19a18,18,0,0,1,18-18h23.51a18,18,0,0,1,18,18v77.68h28.31a18,18,0,0,1,18,18v22.93a18,18,0,0,1-18,18Z"/>
              <path class="cls-6" d="M649.32,851.12c-22.51,0-40.22-7.6-52.65-22.58-11.59-14-17.47-33.21-17.47-57.15a96.86,96.86,0,0,1,5.09-32.23A75.84,75.84,0,0,1,599,713.67,64.3,64.3,0,0,1,622.33,697a72.51,72.51,0,0,1,28.19-5.5A78.55,78.55,0,0,1,666.19,693a89.48,89.48,0,0,1,11.92,3.24,60.8,60.8,0,0,1,9.62,4.29c2.36,1.34,4.09,2.41,5.42,3.35a18,18,0,0,1,6.77,20.06l-6.78,21.56a18,18,0,0,1-26.41,10,35.58,35.58,0,0,0-7.44-3.25,30.27,30.27,0,0,0-9.07-1.19,10.76,10.76,0,0,0-4,.8,5.75,5.75,0,0,0-2.31,1.75,16.1,16.1,0,0,0-2.86,5.56,37.57,37.57,0,0,0-1.48,11.74,52.37,52.37,0,0,0,1.16,11.4,16.93,16.93,0,0,0,2.37,5.94,7.34,7.34,0,0,0,2.8,2.4,12.17,12.17,0,0,0,5.56,1,38,38,0,0,0,6.21-.44,44.41,44.41,0,0,0,5.09-1.12,17.47,17.47,0,0,0,2.71-1q2.23-1.11,4-2.06A18,18,0,0,1,695,797.66l6.48,21.39a18,18,0,0,1-7,20c-4.9,3.38-11.12,6.18-19,8.56A90.53,90.53,0,0,1,649.32,851.12Z"/>
              <path class="cls-6" d="M762.38,848.72a18,18,0,0,1-18-18V798.42h-3.57v32.34a18,18,0,0,1-18,18H699.36a18,18,0,0,1-18-18V712.19a18,18,0,0,1,18-18h23.52a18,18,0,0,1,18,18v27.38h3.57V712.19a18,18,0,0,1,18-18h23.51a18,18,0,0,1,18,18V830.76a18,18,0,0,1-18,18Z"/>
            </g>
            <g>
              <path class="cls-8" d="M154.12,836a83,83,0,0,1-13.59-1,80,80,0,0,1-10.76-2.53,58.53,58.53,0,0,1-8.31-3.28,56.33,56.33,0,0,1-5.84-3.28,6.46,6.46,0,0,1-2.65-7.35l6.63-21.21a6.5,6.5,0,0,1,3.93-4.14,6.48,6.48,0,0,1,5.67.58,49.31,49.31,0,0,0,10.17,4.58,47.08,47.08,0,0,0,14.75,2,23.16,23.16,0,0,0,6.41-.69,7.82,7.82,0,0,0,2.87-1.33,2,2,0,0,0,.72-1,9.09,9.09,0,0,0,.41-2.88,5.48,5.48,0,0,0-2.39-4.62c-1.84-1.46-5.9-3.92-14.84-7.3l-.11,0c-3.62-1.45-7.26-3.12-10.82-5a44.26,44.26,0,0,1-10.77-7.82,38.32,38.32,0,0,1-8-11.71,40.57,40.57,0,0,1-3.13-16.58,45,45,0,0,1,3.21-17.26A37.93,37.93,0,0,1,127,710.7a40.62,40.62,0,0,1,14.32-8.46,54.84,54.84,0,0,1,18.12-2.85,64.55,64.55,0,0,1,20.29,2.9,67.79,67.79,0,0,1,14,6.28,6.48,6.48,0,0,1,2.75,7.49l-6.78,21a6.49,6.49,0,0,1-9.43,3.6,54.25,54.25,0,0,0-8.69-4.05,31.33,31.33,0,0,0-10.65-1.57c-5.9,0-7.89,1.1-8.36,1.44s-1,.72-1,2.87a4.24,4.24,0,0,0,.41,2.11,7.75,7.75,0,0,0,2.11,2.15,26,26,0,0,0,4.58,2.59c2.06.92,4.37,1.89,6.88,2.88l.15,0a158.87,158.87,0,0,1,14.79,7.06,45,45,0,0,1,11.71,9.13,35.64,35.64,0,0,1,7.29,12.74,53.91,53.91,0,0,1,2.28,16.56c0,12.93-4.18,23.22-12.41,30.57C181.3,832.4,169.46,836,154.12,836Z"/>
              <path class="cls-8" d="M232.8,833.63a6.46,6.46,0,0,1-6.46-6.46V737.82h-25a6.47,6.47,0,0,1-6.47-6.47V708.6a6.47,6.47,0,0,1,6.47-6.47h86.53a6.47,6.47,0,0,1,6.46,6.47v22.75a6.47,6.47,0,0,1-6.46,6.47h-25v89.35a6.47,6.47,0,0,1-6.47,6.46Z"/>
              <path class="cls-8" d="M362.09,833.63a6.46,6.46,0,0,1-5.8-3.6l-5.83-11.81c-1.93-3.91-3.92-7.74-5.92-11.38s-4-7.16-6-10.48c-1.28-2.14-2.56-4.15-3.84-6h-1.8v36.82a6.47,6.47,0,0,1-6.47,6.46H302.9a6.47,6.47,0,0,1-6.47-6.46V710.31A6.46,6.46,0,0,1,301.5,704a125.6,125.6,0,0,1,16.77-2.53c5.65-.47,10.77-.71,15.23-.71,17.05,0,30.49,3.64,39.94,10.81,10,7.59,15.07,19.26,15.07,34.67,0,9.56-2.05,17.56-6.09,23.79a38.66,38.66,0,0,1-10.72,10.88q1.44,2.22,2.91,4.67c2.37,3.91,4.73,8,7,12.24s4.58,8.75,6.73,13.34,4.16,9.12,6,13.51a6.46,6.46,0,0,1-6,9Zm-29-77.43c9.86,0,13.91-1.7,15.44-2.71.77-.5,2.82-1.84,2.82-7.42,0-5.17-2-6.46-2.8-7-1.93-1.21-5.86-2.67-13.65-2.67-.69,0-1.35,0-2,0V756.2Z"/>
              <path class="cls-8" d="M448.22,836a58.87,58.87,0,0,1-22.67-4.43,52.65,52.65,0,0,1-18.89-13.34,62.41,62.41,0,0,1-12.47-21.54c-2.95-8.35-4.44-18.09-4.44-28.92s1.55-20.63,4.61-29A64.83,64.83,0,0,1,407,717.25a53,53,0,0,1,18.88-13.42,57.6,57.6,0,0,1,22.31-4.44,58.92,58.92,0,0,1,22.68,4.43,52.25,52.25,0,0,1,18.91,13.45,63.67,63.67,0,0,1,12.45,21.6,87.39,87.39,0,0,1,4.44,28.93,88.85,88.85,0,0,1-4.35,28.89,63.11,63.11,0,0,1-12.21,21.52,51.27,51.27,0,0,1-18.88,13.4A60.36,60.36,0,0,1,448.22,836Zm0-100.26a17.42,17.42,0,0,0-8.63,2,19,19,0,0,0-6.5,5.92,31.56,31.56,0,0,0-4.47,10.09,59.94,59.94,0,0,0,0,28.06,31.66,31.66,0,0,0,4.48,10,18.25,18.25,0,0,0,6.42,5.8,18.44,18.44,0,0,0,23.85-5.8,31.87,31.87,0,0,0,4.47-10,54.74,54.74,0,0,0,1.66-14.06,55.43,55.43,0,0,0-1.67-14.17,31.56,31.56,0,0,0-4.47-10.09,18,18,0,0,0-6.46-5.78A18.18,18.18,0,0,0,448.22,735.77Z"/>
              <path class="cls-8" d="M519.83,833.63a6.46,6.46,0,0,1-6.47-6.46V708.6a6.47,6.47,0,0,1,6.47-6.47h23.51a6.47,6.47,0,0,1,6.47,6.47v89.17h39.81a6.47,6.47,0,0,1,6.47,6.47v22.93a6.47,6.47,0,0,1-6.47,6.46Z"/>
              <path class="cls-8" d="M649.32,836c-18.92,0-33.66-6.2-43.8-18.42-9.84-11.86-14.83-28.62-14.83-49.81a85.7,85.7,0,0,1,4.44-28.42,64.26,64.26,0,0,1,12.43-21.65A52.79,52.79,0,0,1,626.77,704a61.09,61.09,0,0,1,23.75-4.61,66.61,66.61,0,0,1,13.36,1.25,76.61,76.61,0,0,1,10.37,2.81,49.52,49.52,0,0,1,7.81,3.46c2,1.13,3.45,2,4.46,2.74a6.46,6.46,0,0,1,2.43,7.22l-6.78,21.56a6.49,6.49,0,0,1-9.51,3.6,46.48,46.48,0,0,0-9.86-4.35,41.75,41.75,0,0,0-12.58-1.74,22,22,0,0,0-8.25,1.6,17.32,17.32,0,0,0-6.72,4.85,27.58,27.58,0,0,0-5.13,9.5,49.37,49.37,0,0,0-2.07,15.39,64.68,64.68,0,0,0,1.42,13.91,28.18,28.18,0,0,0,4.14,10,18.58,18.58,0,0,0,6.94,6.07,23.46,23.46,0,0,0,10.88,2.26,50.14,50.14,0,0,0,8.12-.59,54.81,54.81,0,0,0,6.46-1.45,27.88,27.88,0,0,0,4.55-1.73q2.34-1.17,4.25-2.16a6.49,6.49,0,0,1,3-.74,6.56,6.56,0,0,1,2.5.5A6.49,6.49,0,0,1,684,797.4l6.48,21.39A6.46,6.46,0,0,1,688,826c-3.91,2.69-9.08,5-15.82,7A79.24,79.24,0,0,1,649.32,836Z"/>
              <path class="cls-8" d="M762.38,833.63a6.46,6.46,0,0,1-6.47-6.46V783.33H729.35v43.84a6.47,6.47,0,0,1-6.47,6.46H699.36a6.46,6.46,0,0,1-6.46-6.46V708.6a6.47,6.47,0,0,1,6.46-6.47h23.52a6.47,6.47,0,0,1,6.47,6.47v38.87h26.56V708.6a6.47,6.47,0,0,1,6.47-6.47h23.51a6.47,6.47,0,0,1,6.47,6.47V827.17a6.46,6.46,0,0,1-6.47,6.46Z"/>
            </g>
            <text class="cls-9" transform="translate(113.56 820.7) scale(0.88 1)">STROLCH</text>
            <text class="cls-7" transform="translate(113.56 825.01) scale(0.88 1)">STROLCH</text>
          </g>
          <g>
            <path class="cls-10" d="M130.15,763a37.67,37.67,0,0,0,9.19,6.67q5.13,2.65,10.25,4.71,5.43,2.05,9.38,4a271.91,271.91,0,0,1,28.72-10.44l-.33-.39a38.25,38.25,0,0,0-10-7.78A145.75,145.75,0,0,0,163.16,753c-2.61-1-5-2-7.16-3a33.06,33.06,0,0,1-5.73-3.25,13.88,13.88,0,0,1-3.84-4,10.25,10.25,0,0,1-1.36-5.47q0-5.47,3.7-8.13t12.13-2.65a37.53,37.53,0,0,1,12.89,2,59.84,59.84,0,0,1,9.72,4.53l6.79-21a60.5,60.5,0,0,0-12.67-5.65,57.79,57.79,0,0,0-18.24-2.56,48,48,0,0,0-16,2.48,34,34,0,0,0-12.06,7.1,31.32,31.32,0,0,0-7.68,11.2,38.53,38.53,0,0,0-2.72,14.8,33.88,33.88,0,0,0,2.57,14A31.48,31.48,0,0,0,130.15,763Z"/>
            <path class="cls-10" d="M232.81,758.14l1.35-.19q11.06-1.46,22.16-2.22V729.2h31.51V706.44H201.3V729.2h31.51Z"/>
            <path class="cls-10" d="M326.42,756.64v-28.3l3.84-.34c1.36-.11,2.89-.17,4.6-.17q11.31,0,17.11,3.68t5.8,12.4q0,9.08-5.72,12.83a17.93,17.93,0,0,1-4.53,2q13.75,1.63,27.42,3.76l2.84.46q4.25-7.49,4.26-18.93,0-20-12.51-29.51t-36-9.5q-6.48,0-14.69.69a119.22,119.22,0,0,0-15.91,2.39v47Q314.68,755.64,326.42,756.64Z"/>
            <path class="cls-10" d="M420.67,770.83c-.12-1.68-.18-3.4-.18-5.19A60.76,60.76,0,0,1,422.37,750a37.67,37.67,0,0,1,5.43-12.15,25.57,25.57,0,0,1,8.66-7.87,24,24,0,0,1,11.76-2.83,24.07,24.07,0,0,1,20.43,10.53,37.92,37.92,0,0,1,5.43,12.14A62,62,0,0,1,476,765.64a60.93,60.93,0,0,1-1.88,15.74l-.06.2q12,2.32,24.06,4.37a89.26,89.26,0,0,0,2.15-20.31q0-15.23-4.07-26.78A56.84,56.84,0,0,0,485,719.45a45.71,45.71,0,0,0-16.59-11.81,52.28,52.28,0,0,0-20.2-3.93,51,51,0,0,0-19.82,3.93,46.45,46.45,0,0,0-16.58,11.81,57.9,57.9,0,0,0-11.38,19.41q-4.23,11.55-4.22,26.78v.51C404.39,767.63,412.53,769.21,420.67,770.83Z"/>
            <path class="cls-10" d="M531.82,790.79c3.83.44,7.68.83,11.52,1.19V706.44H519.83v82.84Q525.82,790.09,531.82,790.79Z"/>
            <path class="cls-10" d="M620.85,792.59c2.31-.21,4.62-.45,6.93-.7a35.08,35.08,0,0,1-4.62-11.45,70.62,70.62,0,0,1-1.58-15.31A55.14,55.14,0,0,1,624,747.68,33.81,33.81,0,0,1,630.4,736a23.81,23.81,0,0,1,9.19-6.59,28.7,28.7,0,0,1,10.63-2,47.57,47.57,0,0,1,14.55,2,53.2,53.2,0,0,1,11.23,5l6.78-21.56q-1.2-.85-3.92-2.39a43.52,43.52,0,0,0-6.78-3,71.64,71.64,0,0,0-9.5-2.56,60.23,60.23,0,0,0-12.06-1.11,54.38,54.38,0,0,0-21.25,4.1,46.38,46.38,0,0,0-16.89,12.06,57.9,57.9,0,0,0-11.15,19.51,78.82,78.82,0,0,0-4.07,26.26q0,16.08,4,28.17Q611,793.45,620.85,792.59Z"/>
            <path class="cls-10" d="M752.17,758.29c12.07-6,23.84-13.38,33.72-22.66V706.44H762.38v45.34h-39.5V706.44H699.37v71.3C717.48,772.8,735.36,766.68,752.17,758.29Z"/>
          </g>
        </g>
        <g>
          <g>
            <path class="cls-4" d="M517.17,222.55c.53,1.46,1,3.18.2,4.49a5.16,5.16,0,0,1-2.5,1.71l-61.21,25.89c-26.13,11.06-52.38,22.15-79.85,29.27a12.45,12.45,0,0,1-5.53.56c-3.63-.74-5.84-4.35-7.54-7.65a340.46,340.46,0,0,1-20-47.18,73,73,0,0,1-3.95-15.88,6.5,6.5,0,0,1,.38-3.61c.7-1.39,2.21-2.13,3.62-2.78a914.41,914.41,0,0,1,85.7-33.72c14.54-5,29.18-9.66,43.86-14.18,3.72-1.14,7.43-2.28,11.15-3.39,2.57-.77,4.63-1.51,6.59.67s3,5.54,4.27,8.06q2.55,5.08,5,10.23Q508.35,198.32,517.17,222.55Z"/>
            <g>
              <g>
                <ellipse class="cls-11" cx="388.78" cy="234.62" rx="22.93" ry="23.21" transform="translate(-42.06 91.19) rotate(-12.7)"/>
                <ellipse class="cls-12" cx="388.75" cy="234.99" rx="19.65" ry="19.89" transform="translate(-42.14 91.2) rotate(-12.7)"/>
                <ellipse class="cls-4" cx="393.41" cy="218.27" rx="6.16" ry="6.24" transform="translate(-38.36 91.81) rotate(-12.7)"/>
                <ellipse class="cls-13" cx="378.28" cy="239.03" rx="2.59" ry="2.62" transform="translate(-43.29 89) rotate(-12.7)"/>
              </g>
              <path class="cls-14" d="M387.87,234.64a40.34,40.34,0,0,0-11.22,5.05c-5,3.51-5.2,9.61-.21,13.33a16.37,16.37,0,0,0,8.56,2.84,26,26,0,0,0,16.26-4,21.9,21.9,0,0,0,9.43-13.7c1.57-7.79-3.8-8.16-9.83-6.89C396.48,232.16,392.15,233.32,387.87,234.64Z"/>
            </g>
            <g>
              <g>
                <ellipse class="cls-11" cx="472.68" cy="206.8" rx="20.86" ry="21.12" transform="translate(-33.9 108.96) rotate(-12.7)"/>
                <ellipse class="cls-15" cx="472.04" cy="207.14" rx="17.87" ry="18.1" transform="translate(-33.99 108.82) rotate(-12.7)"/>
                <ellipse class="cls-4" cx="476.89" cy="191.92" rx="5.61" ry="5.68" transform="translate(-30.52 109.52) rotate(-12.7)"/>
                <ellipse class="cls-13" cx="463.13" cy="210.81" rx="2.35" ry="2.38" transform="translate(-35.01 106.95) rotate(-12.7)"/>
              </g>
              <path class="cls-14" d="M471.85,206.82a36.78,36.78,0,0,0-10.21,4.59c-4.55,3.2-4.73,8.75-.19,12.13a14.89,14.89,0,0,0,7.79,2.58,23.58,23.58,0,0,0,14.8-3.66A20,20,0,0,0,492.61,210c1.43-7.1-3.46-7.43-8.94-6.28C479.69,204.56,475.75,205.62,471.85,206.82Z"/>
            </g>
            <g>
              <path class="cls-16" d="M689.78,337.18a14.87,14.87,0,0,0-2.14-6.48A12.24,12.24,0,0,0,683,326c-4.28-2.22-8.93-.6-12.08,1.14a50.74,50.74,0,0,0-6.33,4,25.06,25.06,0,0,0-2,1.81,13.45,13.45,0,0,1-2.92,2.36l-.35.19c-.39-.4-.78-.78-1.17-1.16a26.49,26.49,0,0,1-2.67-2.87l.09-.06A8.92,8.92,0,0,0,657.8,328a14.27,14.27,0,0,1,.82-1.62c.72-1.15,1.51-2.3,2.27-3.4s1.58-2.28,2.32-3.47c4.37-7,3.8-14.23-1.54-19.33a16.66,16.66,0,0,0-12-4.73,12.12,12.12,0,0,0-8.85,4.28,17.57,17.57,0,0,0-3.23,5.58,8.26,8.26,0,0,0-.31,1.56,6.11,6.11,0,0,1-.4,1.79c-.24.25-.71.67-1.05.57-.88-.27-1.86-2.81-2.25-5a19.63,19.63,0,0,0-2.29-6.56c-4.15-7.12-14.75-8.16-21.67-4.64s-7.22,10.38-6.75,15.19c.59,6,1,12.41-1.3,18.91l-.11.31c-.93,2.68-1.74,4.56-3.83,4.3-1.29-.16-2.67-1.18-4-2.17a18.85,18.85,0,0,0-2.87-1.85,16.39,16.39,0,0,0-21,6.45,15.13,15.13,0,0,0-1.74,4.7c-1.64,8.38,4.88,11.89,10.63,15a37.39,37.39,0,0,1,6.27,3.91,16.72,16.72,0,0,1,5,7.73,46.3,46.3,0,0,0,2.29,6.23,14.75,14.75,0,0,0,3.45,4.14l1.15,1.09-.24.61a52.86,52.86,0,0,1-7.95,13.57l-.58.76c-3.64,4.73-8.16,10.61-13.47,13.3-2.29,1.15-4.81.84-7.47.51l-1.65-.19a57.6,57.6,0,0,1-10-2.1c-6.37-1.82-15.06-4.3-20.5-8.9a23.15,23.15,0,0,1-.19-2.38c-.09-3.89-1.21-7-2.51-10.44-.28-.76-.58-1.54-.88-2.35a39.06,39.06,0,0,1-2.18-10.05c-.08-.84-.13-1.67-.19-2.51s-.11-1.7-.19-2.54l-.06-.77c0-.62-.09-1.25-.19-1.89a6.9,6.9,0,0,0-1-2.8c-1.74-2.54-5.08-5-7.95-7.23.08-3.25.46-6.59.82-9.87.19-1.7.38-3.36.52-5l.08-1-1-.06a13.59,13.59,0,0,1-6.88-2.31,25.73,25.73,0,0,0,20.91-2.83c9.7-5.77,16.66-16.71,20-27.09A38.77,38.77,0,0,1,553,308l-.41,1.37,1.41-.17a.92.92,0,0,1,.83.32,8.92,8.92,0,0,0,6.77,3.13h.17c5.05,0,10.73-3.63,14.14-7.27a41.92,41.92,0,0,0,9.43-16.83c2-7.06,3.21-18,.42-27.5l-.07-.24-.17-.17a.7.7,0,0,1-.24-.58l.07-.27-.09-.26-.3-.84.6,1.12.88-1.16c1.75-2.29,2.11-5,1.06-8.21-1.43-4.34-5.1-8.53-8.51-12.06a53.07,53.07,0,0,0-18.4-12.22,109.3,109.3,0,0,0-21.46-5.74c-2-.35-4.4-.79-6.78-1.15l-.3,0-.19.09,0,0a1.51,1.51,0,0,0-.18-.09l-.27-.08c-1.21-.17-2.37-.32-3.48-.44h.39l2-.07-1.32-1.5c-2-2.25-3.47-5.6-4.77-8.56-.57-1.29-1.1-2.52-1.65-3.58a69.93,69.93,0,0,1-5.15-12.43l.83-.78a94.66,94.66,0,0,0,22.18-30.8,84.24,84.24,0,0,0,6.14-24.14l0-.43a59,59,0,0,0,.59-11.5c-.32-4,.21-7.25,1.31-8,.15-.1.61-.41,1.8.19a5.58,5.58,0,0,1,1.54,1.42,7.93,7.93,0,0,0,2.71,2.27,24.79,24.79,0,0,0,9.12,2.31c8.46.35,9.53-7.77,10.31-13.69l.07-.55c1.56-11.87-.81-24.25-6.35-33.12S551.07,63,541.29,59.76L538,58.65A237.51,237.51,0,0,0,506,50c-1.06-.21-2.18-.45-3.32-.7-2.53-.56-5.15-1.13-7.78-1.45a23.37,23.37,0,0,0-8.16.18c-6,1.39-9.16,7-11.95,11.93l-.68,1.2a230.45,230.45,0,0,0-14,29.47c-2,5-3.64,10.24-5.23,15.29-1.3,4.15-2.65,8.45-4.19,12.59h0l1.76.65a.73.73,0,0,1-.51.48c1.1-.15,8,2.16,8.92,2.6,2.28,1.06,3.91,2.18,4.51,3.93-3.77-3.84-10.67-5.8-20.13-5.7a65.41,65.41,0,0,0-12.69,1.64c-1.47.3-2.89.73-4.27,1.15l-1.1.33a9.82,9.82,0,0,1-1.08.23c3-2.42,6-4.92,8.81-7.53,3.15-2.89,6.29-6.13,7.9-10.19a2.56,2.56,0,0,0-.1-2.6,2.15,2.15,0,0,0-1.34-.78,4.8,4.8,0,0,0-.94-.06c-3.65.08-6.76,1.18-10.15,2.5-11,4.25-18.18,12-25.81,20.11l-2.38,2.53c.22-.86.46-1.74.7-2.63,2.09-7.82,4.26-15.9,1.23-23.84a2.26,2.26,0,0,0-1-1.32,2.57,2.57,0,0,0-1.88.07c-2.77,1.13-4.62,3-6.75,5.39a55.15,55.15,0,0,0-5.05,6.65c-5.51,8.38-8.73,18-11.6,27.62.05-.74.11-1.52.2-2.34l0-.19-.13-.37-.05-.06c-11.86-25.31-32.12-44-50.37-59-9.29-7.61-19.23-15.62-29.72-22.54A141.72,141.72,0,0,0,281,45.7l-.49-.23c-5.91-2.85-13.28-6.39-20-4.12-6.41,2.16-10.2,7.89-11.59,17.51a102.26,102.26,0,0,0-.67,15.26c0,1.65,0,3.2,0,4.6A392,392,0,0,0,249.39,118c.54,6.42,1.29,12.79,2.23,18.93a231.65,231.65,0,0,0,10.73,42.93,184.45,184.45,0,0,0,19.49,39.39,161.38,161.38,0,0,0,13.42,17.58c2.41,2.74,5,5.47,7.69,8.13.64.63,1.32,1.21,2,1.77s1.32,1.14,1.93,1.73a5.43,5.43,0,0,1,1.4,3.58q.79,6.45,1.61,12.91a61.76,61.76,0,0,0,1.15,7c.1.39.17.8.24,1.19s.18,1,.31,1.52c-1.09,1.07-2.2,2.11-3.31,3.15s-2.51,2.36-3.75,3.58a69.68,69.68,0,0,0-8.1,9.31,48.71,48.71,0,0,0-6.49,12,21.55,21.55,0,0,0-1,3.34c-1.1,5.6,2.05,7.47,4.89,8.05,1.91.4,4.12-.37,5.9-1l.75-.26c6.36-2.12,13-6.44,20.34-13.15a56.68,56.68,0,0,0-3.33,8.45,52.07,52.07,0,0,0-2.08,15,20.46,20.46,0,0,0,1,6.85,5.15,5.15,0,0,0,2.9,3.37,4.88,4.88,0,0,0,1.05.23c3.23.25,6.27-3.13,8.29-5.36.19-.23.38-.43.55-.62a48.59,48.59,0,0,0,7.49-11l.23.7c1.27,3.85,2.7,8.21,5.59,11.19l1.41,1.45.2-2a64.3,64.3,0,0,1,9.14-27.06c-6,12.09-10.38,25.91-8.1,41.31,1.47,10,5.36,18.35,11.54,24.93,4.44,4.73,11.52,9.22,17.43,8.75a39.58,39.58,0,0,1,.36,5.13c-.13,4-.48,8-.69,12-.13,2.43-.28,4.86-.43,7.28v.16c0,.66-.12,1.39-.21,2.13a76.41,76.41,0,0,0-.49,8l-.68.78c-16.06,18.23-32.57,33.16-50.49,45.64-2.6,1.81-5.24,3.57-8,5.42-14.11,9.4-28.7,19.12-36,34.63l-.14.28c-1.3,2.8-3.08,6.64-3,9.89a1.9,1.9,0,0,0,1.08,1.78,2.78,2.78,0,0,0,2.8-.51q.78-.64,1.53-1.32a41.16,41.16,0,0,0-2.44,8.9l-.08.5c-.32,2-.81,5-.23,7.41a4.43,4.43,0,0,0,4,3.78,5.18,5.18,0,0,0,4-1.15,8.79,8.79,0,0,0,2.41-3.45c2.1,15.63,11.25,30.31,26.23,41.84,8.47,6.52,16.3,11,24,13.85a72.92,72.92,0,0,0,13.09,3.29c2.57.44,4.89.88,7.09,1.37l-1.12.09a54.41,54.41,0,0,1-6.27.27h0l-.15,0-2.59-.31.08.09a40.88,40.88,0,0,1-5.8-1.2l-.74-.21-.35.68a7.48,7.48,0,0,0-.43,6.77c2.07,4.48,8.67,6.47,11.41,7.12a46.67,46.67,0,0,0,12.33,1.18,15.55,15.55,0,0,0,2.59-.42c1.62-.35,3.64-.79,4.58-.16,1.44.94.65,5.73.27,8-.13.78-.24,1.45-.29,2-.18,1.88-.38,3.78-.57,5.68-1.26,1-2.53,2-3.83,2.88a37,37,0,0,1-8.89,4.83l-.47.17a104.69,104.69,0,0,1-20.65,5.07c-10.34,1.46-25.16,2.13-37-2.91l-.23-.1-.25,0a4.33,4.33,0,0,0-3.2,2c-3.06,4.61-.61,16.24.22,19.09A55.24,55.24,0,0,0,304,660.05c4.06,6,8.64,9.32,14,10.26,4.63.83,9.24-.53,13.53-2.24a18.42,18.42,0,0,0-1.6,2.45c-.72,1.32-2.86,5.86-.36,8.71a4.55,4.55,0,0,0,3.53,1.6c1.81,0,4.22-.89,7.43-3.46a30.66,30.66,0,0,0,5.19-5.51,15.9,15.9,0,0,0,0,2.07,4.52,4.52,0,0,0,1.47,3.5c1.25.93,2.95.81,5-.37,3.72-2.1,6.25-6.31,9.82-7.95a10.41,10.41,0,0,1,2.64-.79c-.16,1.67-.33,3.33-.5,5-.29,2.71-.59,5.42-.92,8.12-.26,2.09-1.63,4.36-3,6.55-.54.89-1,1.72-1.47,2.54l-5.39,10.29a8.68,8.68,0,0,0-1,2.68c-.56,3.64,2.56,4.47,4.24,4.91l.67.16a36,36,0,0,0,4.88.62c.81.06,1.63.13,2.45.22,4.4.51,8.57.82,13,1.15l3.62.27c3.91.29,8.54.63,13.15.93l3.87.23c2.6.14,5.29.29,7.89.56a25,25,0,0,0,2.72.13c1.37,0,2.71-.08,4-.16s3-.18,4.45-.16h.49a102.41,102.41,0,0,0,11.7-.29,18.78,18.78,0,0,0,8.76-2.6A65.87,65.87,0,0,0,446.4,703c2.53-2.26,2.61-5.2,2.69-8,0-.35,0-.71,0-1.06v-.12c.17-4,.35-8.11.48-12.18q.35-10.65.73-21.29c.56-15.63,1.25-29.84,2.11-43.43l.06-.87-.87-.12-.93-.15c3.61-1.22,7.62-1.22,11.51-1.23h2.37c4.86,0,9.49-.08,14,1.11-.47.06-.95.1-1.45.14l-1.08.09.24,1c1,4.54,1,9.48,1.09,14.26,0,1.84,0,3.74.11,5.57l.13,3.4c.24,5.88.49,11.95.59,17.94.13,7.79.22,15.69.25,23.47,0,3.91,0,7.82,0,11.74,0,.35,0,.7,0,1,0,2.5-.09,5.09,2.37,7.12s5.77,3.08,8.76,4.09L491,706a128.93,128.93,0,0,0,13.81,4,120.93,120.93,0,0,0,14.36,2.32c3.87.39,50.1,1.75,56.58-7.45a4.39,4.39,0,0,0,.3-4.64,20.77,20.77,0,0,0-1.47-2.48l-.39-.6a51.33,51.33,0,0,0-4.21-5.37,42.67,42.67,0,0,1-4.44-5.81c-1.72-2.89-2.32-6-2.95-9.29l-.2-1c-.88-4.56-1.92-10-2.93-15.44-2-11.07-3.74-21.07-5.19-30.57-5-32.78-8.74-65.75-11.09-98-.27-3.85-.58-7.69-.88-11.54-.51-6.41-1-13-1.43-19.58-.06-1.05-.24-2.46-.46-4.11-.56-4.39-1.34-10.41-.44-14.23a5.22,5.22,0,0,1,1.34-2.67c1.36-1.24,7.56,1.08,11.26,2.47a40.31,40.31,0,0,0,5,1.68A82.17,82.17,0,0,0,583,484.78a70.67,70.67,0,0,0,21.65-6.26,66.41,66.41,0,0,0,8-4.35c4.45-2.86,4-5.45,3.27-6.76a5.68,5.68,0,0,0-2-1.93c-.42-.27-.84-.52-1.28-.76,4.22-.25,8.7-1,12.06-2.88,1.64-.93,3.83-2.39,4-4.21a2.78,2.78,0,0,0-1.6-2.64,7.3,7.3,0,0,0-3.86-.58c-.5,0-1,0-1.34,0-.77-.06-1.56-.09-2.35-.12l-1,0c.89-.68,1.93-1.57,3.14-2.66l.78-.7a44.62,44.62,0,0,0,5.32-5.52l.94-1.08c4-4.63,6.68-10.3,8.77-15.23a137.85,137.85,0,0,0,6-18c.75-2.74,1.5-5.75,2.37-9.47.24-1,.52-2.06.8-3.09l.26-1c.13-.48.25-1,.37-1.49.18-.76.36-1.55.58-2.21s.67-1,1.64-1.42l.56-.26a29.9,29.9,0,0,0,4.21-2.51c3.4-2.38,5.63-6.43,7.36-10.09a104.74,104.74,0,0,0,4.51-11.64c.35-1.05.79-2.14,1.25-3.29a28.88,28.88,0,0,0,2.43-8.36l0-.37c.5-.25,1.07-.56,1.74-.94.3-.17.54-.31.68-.37,1.33-.64,2.76-1.19,4.15-1.72,3.25-1.25,6.62-2.53,9.23-5.19a14.55,14.55,0,0,0,3.66-6.25A12.62,12.62,0,0,0,689.78,337.18ZM349.31,585.41l.13.14a11.37,11.37,0,0,0,1.45,1.28c.45.33.9.7,1.35,1.06l.27.22A4.31,4.31,0,0,1,349.31,585.41ZM461,173.66c4-3.3,9-4.28,12.45-4.53.75,0,1.51-.08,2.26-.08a38,38,0,0,1,21.1,6.73l-.84,0a25.11,25.11,0,0,1-4.05-.37l-4.72-1.07,4,2.76c8.73,6.05,11.63,15.63,13.32,24.21.68,3.47,1.82,12.19-2.49,18.23l-2.37,3.33-.34.22a101.13,101.13,0,0,1-9.81,6c-5,2.57-11.07,2.22-17.93-1.06-7.54-3.57-11.71-10.93-13.89-16.47C455.22,205.31,448.25,184.19,461,173.66Zm-87.89,86.78c-6.21-3.45-10.71-8-13.38-13.45-4.21-8.63-5-20.4-1.92-29.29l2.24-6.51-3.91,5.67a65,65,0,0,0-3.43,5.81c-.64,1.18-1.29,2.38-2,3.55,1.76-9.55,10.14-19.32,17.86-24.81A38.05,38.05,0,0,1,381,195.55,34.81,34.81,0,0,1,390.9,194a19.08,19.08,0,0,1,5.41.82l-.94.15-.11,0a18.44,18.44,0,0,0-2.61.7,16.58,16.58,0,0,1-2.53.66l-7.47,1.06,7.5.8a30.59,30.59,0,0,1,6.39,1.37c11.3,3.75,19.69,14.08,22.46,27.63,1.55,7.6,1,14.15-1.62,19.46a19.78,19.78,0,0,1-5.75,7.17l-2.72,1.93,3.32-.22.26,0c-3.11.77-6.25,1.38-9.5,2l-4.67.93a91.52,91.52,0,0,0-15.38,4.63l.68-.44-3-.13A16.54,16.54,0,0,1,373.11,260.44Z"/>
              <path class="cls-17" d="M424.71,219c-.39-1.47-.83-2.92-1.32-4.34a55.51,55.51,0,0,0-12.82-21.15,39.92,39.92,0,0,0-21.7-11.45c-10.91-1.71-22.12,2.09-30.62,8.92a46.36,46.36,0,0,0-10.14,10.64c-8.38,13-6.42,30.91.48,44.16a42.39,42.39,0,0,0,18.22,18.33,18.55,18.55,0,0,0,8.47,2.32,9.19,9.19,0,0,0,7.61-3.8,16.9,16.9,0,0,1-9.79-2.2c-6.2-3.45-10.7-8-13.37-13.45a40.21,40.21,0,0,1-3.65-20.7c.48-6.09,4-11.57,8.11-16,7.95-8.68,20.63-14.54,32.35-10.64,11.3,3.75,19.69,14.08,22.46,27.63,1.55,7.6,1,14.15-1.62,19.46-1.69,3.43-4.16,5.82-7,8.33,2.3-.84,4.5.4,6.66,0,2.36-.49,4.11-3.09,5.18-5C427.36,240.65,427.44,229.36,424.71,219Z"/>
              <path class="cls-17" d="M507.67,218.9c2.52-3,2.58-10.3,2.7-14,.32-10.06-2.47-20.09-6.51-29.08a51.36,51.36,0,0,0-4.33-8A35.51,35.51,0,0,0,482,154.43a28.12,28.12,0,0,0-17.62-.6C450.92,158.15,447,173.43,447,186a57.89,57.89,0,0,0,13.07,37,24.09,24.09,0,0,0,5.39,5,24.76,24.76,0,0,0,8.92,3.1,25.82,25.82,0,0,0,10,.23c3.45-.73,6.55-2.55,9.59-4.35l7.12-4.22c1.84-1.1,5-2.22,6.46-3.77Zm-5.67.61-2.37,3.33-.34.22a101.13,101.13,0,0,1-9.81,6c-5,2.57-11.07,2.22-17.93-1.06-7.54-3.57-11.71-10.93-13.89-16.47-2.44-6.22-9.41-27.34,3.34-37.87,4-3.3,9-4.28,12.45-4.53.75,0,1.51-.08,2.26-.08a38,38,0,0,1,21.1,6.73l-.84,0a25.11,25.11,0,0,1-4.05-.37l-4.72-1.07,4,2.76c8.73,6.05,11.63,15.63,13.32,24.21C505.17,204.75,506.31,213.47,502,219.51Z"/>
              <path class="cls-17" d="M395,437.32a60.91,60.91,0,0,0,6.42,2.23c3.08.88,6.35,1.52,9.47.78a30.39,30.39,0,0,0-9.73,14.25,7.94,7.94,0,0,0-.51,3.5c.65,4.83,9.38,6.14,9.77.72a32.25,32.25,0,0,0,10.64,26.05,13.51,13.51,0,0,0,6.47,3.53c2.46.42,5.26-.45,6.54-2.58a13.91,13.91,0,0,0,3.37,7.93,8.38,8.38,0,0,0,3.61,2.56,9.39,9.39,0,0,0,5.54-.31,22.53,22.53,0,0,0,10.75-7.22l1.1,4c8.36-2,16.95-6.06,23-12.27-.93.77-.34,2.47.79,2.92a4.22,4.22,0,0,0,3.48-.57,12.83,12.83,0,0,0,5-5,1.71,1.71,0,0,0,1,1.72,19.82,19.82,0,0,0,8.48-21.36c1.95,2.46,6.17,2.06,8.29-.26s2.45-5.83,1.75-8.9c-1.62-7.15-7.8-12.3-14-16.19,3.54,3,11.2,15.08,2.63,15.8A28.64,28.64,0,0,1,486.65,447c4.14,3.93,8.21,9.61,6,14.88-.47,1.15-1.55,2.32-2.76,2a3,3,0,0,1-1.39-1,17.49,17.49,0,0,1-4.18-8.37c2.35,5.31-.85,11.38-4.4,16-3.27,4.24-7.08,8.27-12,10.46a6.42,6.42,0,0,1-3.17.73c-2.72-.23-4.37-4-2.71-6.16-3.75,4.49-8.32,9.38-14.17,9.28s-10.82-6.59-9.31-12.31c-.05,3.44-4.05,5.81-7.43,5.19s-6-3.34-7.8-6.28a19.8,19.8,0,0,1-3.12-12.2c.22-2.39,1.27-10.48,4-11.54l-8.35,3.28a8,8,0,0,1-3.93.8,2.72,2.72,0,0,1-2.49-2.68,3.82,3.82,0,0,1,.77-1.66c3.59-5.15,11.16-8.8,17.39-9.15,2.54-.14,5.11.11,7.63-.31a4.43,4.43,0,0,0-3.71,5.17,5.68,5.68,0,0,0,5.15,4.27,8,8,0,0,0,6.36-2.78c-1.47,3.35.21,9.05,4.35,9.39,3.42.27,6.6-2.89,6.68-6.32a4,4,0,0,1-2.53,2.42c-1.54.32-3-1-3.42-2.55a7.73,7.73,0,0,1,.65-4.59,31.68,31.68,0,0,1,1.75-3.73c.71-1.27,7.25-1.88,9.16-2.35,4.74-1.17,9.62-1.71,14.36-3,19.47-5,38.21-14.24,52.58-28.5,7.39-7.32,9.25-14,5.6-23.71-.28-.76-.58-1.54-.88-2.35-.18-.5-.35-1-.51-1.52-5.58,6.93-13.26,12.49-20.66,16.92-24.54,14.71-52.93,20.78-81.33,20.85-18.23,0-39.61-2.6-55.75-12.48.44.27-.44,6.36-.84,7.07-.93,1.68-3.49,3.31-4.81,4.73A61.93,61.93,0,0,0,395,437.32Z"/>
              <path class="cls-17" d="M688.64,335.08c-.11-.77-.22-1.57-.32-2.4,1.32,5.49-2.62,10.93-7.19,14.24a33.25,33.25,0,0,1-16.82,6.19c1.25,16.05-11.09,32-26.93,34.86,1.73,1.33,1.88,3.84,1.79,6a71.61,71.61,0,0,1-33.1,56.62c2.18.12,4.49.27,6.31,1.49s2.86,3.88,1.59,5.66a5.78,5.78,0,0,1-2.93,1.8,33.15,33.15,0,0,1-14,1.56c1.4,2,5.41,1.13,6,3.47.37,1.51-1.23,2.72-2.64,3.4a46.09,46.09,0,0,1-40.5-.67c-11.36-5.91-21.25-17.35-22.33-30.43.92,8.73,1,17.48,1.84,26.21.11,1.22,1.12,16.42.43,16.28,4.5.94,8.45.94,12.8,2.57a40.31,40.31,0,0,0,5,1.68A82.17,82.17,0,0,0,583,484.78a70.67,70.67,0,0,0,21.65-6.26,66.41,66.41,0,0,0,8-4.35c4.45-2.86,4-5.45,3.27-6.76a5.68,5.68,0,0,0-2-1.93c-.42-.27-.84-.52-1.28-.76,4.22-.25,8.7-1,12.06-2.88,1.64-.93,3.83-2.39,4-4.21a2.78,2.78,0,0,0-1.6-2.64,7.3,7.3,0,0,0-3.86-.58c-.5,0-1,0-1.34,0-.77-.06-1.56-.09-2.35-.12l-1,0c.89-.68,1.93-1.57,3.14-2.66l.78-.7a44.62,44.62,0,0,0,5.32-5.52l.94-1.08c4-4.63,6.68-10.3,8.77-15.23a137.85,137.85,0,0,0,6-18c.75-2.74,1.5-5.75,2.37-9.47.24-1,.52-2.06.8-3.09l.26-1c.13-.48.25-1,.37-1.49.18-.76.36-1.55.58-2.21s.67-1,1.64-1.42l.56-.26a29.9,29.9,0,0,0,4.21-2.51c3.4-2.38,5.63-6.43,7.36-10.09a104.74,104.74,0,0,0,4.51-11.64c.35-1.05.79-2.14,1.25-3.29a28.88,28.88,0,0,0,2.43-8.36l0-.37c.5-.25,1.07-.56,1.74-.94.3-.17.54-.31.68-.37,1.33-.64,2.76-1.19,4.15-1.72,3.25-1.25,6.62-2.53,9.23-5.19C689.63,343.61,689.27,339.75,688.64,335.08Z"/>
              <path class="cls-18" d="M526.7,618.52c.25,4.26.48,8.67-1,12.65a24.42,24.42,0,0,1-3.12,5.51,1.26,1.26,0,0,0-.34.83.87.87,0,0,0,.84.69,2.26,2.26,0,0,0,1.12-.34,18.5,18.5,0,0,0,7.54-8.27,8,8,0,0,0,0,3.35,1.59,1.59,0,0,0,.49,1c.58.44,1.4,0,2-.45a15,15,0,0,0,5.32-12.38,1.88,1.88,0,0,0,2.57.69,4.42,4.42,0,0,0,1.8-2.32c1.83-4.38,1.42-9.43,0-14a32.89,32.89,0,0,0-10.33-15.24,22.08,22.08,0,0,1,4.45,6.26,37.55,37.55,0,0,1,3.44,8c.74,2.75,1,6.65-.67,9.17-1.31,2-5.05-.21-5.53-2.06a18.16,18.16,0,0,1,.1,8.64,7.06,7.06,0,0,1-1.26,2.9,3.27,3.27,0,0,1-2.78,1.29,4,4,0,0,1-2.45-1.55A9.81,9.81,0,0,1,526.7,618.52Z"/>
              <path class="cls-17" d="M369.58,517.47c3.6,1.87,8.77,3.26,12.71,5.72a3.36,3.36,0,0,1,1.77-1l-.55-1.21a22.65,22.65,0,0,1-1.56-5.86c-3.4-20.46-1-41.34-.91-62a131.31,131.31,0,0,1-14.83,23.23c-2.5,3.14-5,6.71-8.4,8.88-3.89,2.52-8.93,3.88-13.21,5.59a3.47,3.47,0,0,1-2.46.17l6.62,7.69C354.83,505.76,361.21,513.13,369.58,517.47Z"/>
              <path class="cls-18" d="M398.06,684.17a79.31,79.31,0,0,0-10-.24C391.27,684.85,394.73,684.53,398.06,684.17Z"/>
              <path class="cls-18" d="M524.16,685.84q11.54-1.35,22.89-3.8C539.39,682.8,531.5,683.65,524.16,685.84Z"/>
              <path class="cls-18" d="M411.27,691.52a28.34,28.34,0,0,0-.41,7.62A10,10,0,0,0,411.27,691.52Z"/>
              <path class="cls-17" d="M575.91,698.61a17.84,17.84,0,0,0-1.14-2.27c-.53,3.22-4.3,5.12-7.53,4.6s-5.9-2.78-8.06-5.23-4-5.2-6.62-7.2c1.46,2.37,3.67,4.2,5.28,6.47s2.58,5.41,1.19,7.83-4.4,3.13-7.11,3c-9.12-.33-16.26-7.6-22.37-14.37,1.72,2.23,3.49,4.57,4,7.33s-.57,6.06-3.19,7.09a8.22,8.22,0,0,1-3.42.34,34.87,34.87,0,0,1-15.34-4.62c-2-1.15-4.06-2.9-3.94-5.18.1-1.91,1.71-3.36,3.28-4.45a45,45,0,0,1,13.18-6.14q-7.75.9-15.56,1.3c-2.61.13-5.41.16-7.58-1.28-2.33-1.56-3.35-4.43-4.09-7.14A86.46,86.46,0,0,1,494.37,647a6.46,6.46,0,0,0,2,3.88l.39-6.78a8.28,8.28,0,0,0,5.51,7.15,71.19,71.19,0,0,1-7.21-39q-1.12,2-2.24,4c1.1-5.84,2.47-11.64,4.1-17.35-5.46,7.64-16.16,8.87-25.55,9.13-12.48.34-27.36.53-37.55-7.73,6.43,10.06,7.86,22.46,8.23,34.38.15,4.68,0,9.81-3,13.37l-1.71-1.8a86.84,86.84,0,0,1,2,29.49c-.45,4.2-1.31,8.61-4.1,11.79a9.4,9.4,0,0,1-8.51,3.07,14.08,14.08,0,0,1,4.21,3.19c5.19,6.13-2.13,12-7.95,13.37-3.71.86-8-.19-10.29-3.24a9.71,9.71,0,0,1-1.8-4.78,14.3,14.3,0,0,1-6.07,6.61c-5,2.72-11,2.76-16.66,2.23-3.61-.34-7.44-1-10.09-3.47a7.38,7.38,0,0,1-2.09-6.93,13.31,13.31,0,0,1-3.83,3.65c-2.41,1.44-5.74,1.67-7.89-.13a6.54,6.54,0,0,1-1.9-6.26c1.17-5.65,7.61-8.34,13.27-9.46a78,78,0,0,1,12.47-1.45c-.25-.08-.5-.14-.75-.23-3.41-1.22-6.36-4.51-5.94-8.1s4-6.31,4.54-10c.34,3.35,2.55,6.83,5.89,7.28s6.65-3.76,4.6-6.44c3.28,3.09,9.47,1.92,11.4-2.16-.33.69-6.26-5.37-6.66-6-1.46-2.31-3.17-4.79-3.78-7.51a10.05,10.05,0,0,1-2.06,9.56c-.8.89-2.33,1.59-3.07.65a2.26,2.26,0,0,1-.36-1.14,45.61,45.61,0,0,1,.49-14.23,34.31,34.31,0,0,1-6.8,12.6,4.62,4.62,0,0,1-1.82,1.47,1.74,1.74,0,0,1-2.1-.58,2.41,2.41,0,0,1-.23-1.25c0-4.74,1.75-9.3,3.55-13.69a14.9,14.9,0,0,1-4.41,6.24,3.58,3.58,0,0,1-2,1c-1.85.12-2.12-2.4-2.21-3.71-1.31-19.4,2.31-38.65,5.8-57.63.85-4.61,1.62-9.3,2.31-14a14.81,14.81,0,0,0-.47-2.74,3.55,3.55,0,0,1-.89-.45,20.2,20.2,0,0,1-5,8.85,2.65,2.65,0,0,1-1.41.88c-1.57.23-2.17-1.92-2.64-3.43-1.71-5.49-8.47-7.16-14.1-8.27-16.84-3.3-33.61-9.59-46.09-21.36s-20-29.79-16-46.48c-1.45,2.63-3.85,5.68-6.73,4.85-1.94-.56-2.95-2.72-3.25-4.72a13.42,13.42,0,0,1,5.24-12.42,3.75,3.75,0,0,1-3.9-2.83c-.44-2.46,1.18-4.78,2.82-6.66,4.51-5.19,9.85-9.58,15.16-13.94-5.83,4.37-11.6,7.58-16.92,12.61a57.35,57.35,0,0,0-12.83,17.22l-.14.28c-1.3,2.8-3.08,6.64-3,9.89a1.9,1.9,0,0,0,1.08,1.78,2.78,2.78,0,0,0,2.8-.51q.78-.64,1.53-1.32a41.16,41.16,0,0,0-2.44,8.9l-.08.5c-.32,2-.81,5-.23,7.41a4.43,4.43,0,0,0,4,3.78,5.18,5.18,0,0,0,4-1.15,8.79,8.79,0,0,0,2.41-3.45c2.1,15.63,11.25,30.31,26.23,41.84,8.47,6.52,16.3,11,24,13.85a72.92,72.92,0,0,0,13.09,3.29c2.57.44,4.89.88,7.09,1.37l-1.12.09a54.41,54.41,0,0,1-6.27.27h0l-.15,0-2.59-.31.08.09a40.88,40.88,0,0,1-5.8-1.2l-.74-.21-.35.68a7.48,7.48,0,0,0-.43,6.77c2.07,4.48,8.67,6.47,11.41,7.12a46.67,46.67,0,0,0,12.33,1.18,15.55,15.55,0,0,0,2.59-.42c1.62-.35,3.64-.79,4.58-.16.56.36.78,1.31.82,2.46a9.05,9.05,0,0,1-1.34.33c-.37.06-.77,9.16-.71,10,.52,7-2.16,15.47-4,22.22a140.83,140.83,0,0,1-8.31,22.93,7.85,7.85,0,0,1-2.12,3.11,2.82,2.82,0,0,1-3.5.11c-1.8-1.66.36-4.56.22-7a20.19,20.19,0,0,1-8.64,12.13c-1.38.89-3.64,1.38-4.34-.11a3,3,0,0,1,.06-2.1,30.29,30.29,0,0,1,4.46-9.22,30.92,30.92,0,0,1-15.65,9.37,23.76,23.76,0,0,1-17.83-2.84c-8.71-5.55-12-16.43-14.66-26.43.94,3.61.13,8.11.92,11.91a47.92,47.92,0,0,0,4.36,12.33c3.33,6.42,9.59,12.29,16.95,13.58,4.63.83,9.24-.53,13.53-2.24a18.42,18.42,0,0,0-1.6,2.45c-.72,1.32-2.86,5.86-.36,8.71a4.55,4.55,0,0,0,3.53,1.6c1.81,0,4.22-.89,7.43-3.46a30.66,30.66,0,0,0,5.19-5.51,15.9,15.9,0,0,0,0,2.07,4.52,4.52,0,0,0,1.47,3.5c1.25.93,2.95.81,5-.37,3.72-2.1,6.25-6.31,9.82-7.95a10.41,10.41,0,0,1,2.64-.79c-.16,1.67-.33,3.33-.5,5-.29,2.71-.59,5.42-.92,8.12-.26,2.09-1.63,4.36-3,6.55-.54.89-1,1.72-1.47,2.54l-5.39,10.29a8.68,8.68,0,0,0-1,2.68c-.56,3.64,2.56,4.47,4.24,4.91l.67.16a36,36,0,0,0,4.88.62c.81.06,1.63.13,2.45.22,4.4.51,8.57.82,13,1.15l3.62.27c3.91.29,8.54.63,13.15.93l3.87.23c2.6.14,5.29.29,7.89.56a25,25,0,0,0,2.72.13c1.37,0,2.71-.08,4-.16s3-.18,4.45-.16h.49a102.41,102.41,0,0,0,11.7-.29,18.78,18.78,0,0,0,8.76-2.6A65.87,65.87,0,0,0,446.4,703c2.53-2.26,2.61-5.2,2.69-8,0-.35,0-.71,0-1.06v-.12c.17-4,.35-8.11.48-12.18q.35-10.65.73-21.29c.56-15.63,1.25-29.84,2.11-43.43l.06-.87-.87-.12-.93-.15c3.61-1.22,7.62-1.22,11.51-1.23h2.37c4.86,0,9.49-.08,14,1.11-.47.06-.95.1-1.45.14l-1.08.09.24,1c1,4.54,1,9.48,1.09,14.26,0,1.84,0,3.74.11,5.57l.13,3.4c.24,5.88.49,11.95.59,17.94.13,7.79.22,15.69.25,23.47,0,3.91,0,7.82,0,11.74,0,.35,0,.7,0,1,0,2.5-.09,5.09,2.37,7.12s5.77,3.08,8.76,4.09L491,706a128.93,128.93,0,0,0,13.81,4,120.93,120.93,0,0,0,14.36,2.32c1.14.12,2.29.13,3.44.18a202.78,202.78,0,0,0,36.45-1.52c4.36-.64,9.06-1.23,13-3.29C576.65,705.28,577.45,702.36,575.91,698.61Zm-226.6-113.2.13.14a11.37,11.37,0,0,0,1.45,1.28c.45.33.9.7,1.35,1.06l.27.22A4.31,4.31,0,0,1,349.31,585.41Z"/>
              <path class="cls-19" d="M583,326.5c.32-.12.65-.22,1-.32a16.93,16.93,0,0,0-3.49.34c-.32.55-.63,1.11-.9,1.69A12.83,12.83,0,0,1,583,326.5Z"/>
              <path class="cls-20" d="M586.13,326.28a11.46,11.46,0,0,0-5.14,1.46,7.4,7.4,0,0,0-3.72,4.4,7.67,7.67,0,0,0,.4,4.63,11,11,0,0,0,6.15,6.33,10.36,10.36,0,0,0,8.77-.53,9.78,9.78,0,0,0,4.9-7.26,6.47,6.47,0,0,0-.53-3.61c-.86-1.73-3-2.72-4.74-3.4C590.3,327.53,588.25,326.33,586.13,326.28Z"/>
              <path class="cls-20" d="M516.55,143.9A83.82,83.82,0,0,0,534.7,111c-9.8-5.95-19.59-12.49-26.31-21.78-.83-1.15-9.14-16-11.21-14.6-2.54,1.72-4.34,4.31-6,6.89A122.73,122.73,0,0,0,478.86,107a78.79,78.79,0,0,0-3.47,12.72c-.11.66-1.29,9.31-1.33,9.31a50,50,0,0,1,28.64,3.51c5.88,2.57,11.17,5.67,12.87,12.4Z"/>
              <path class="cls-20" d="M357,147.43c-.28-.35-.54-.71-.78-1.07q-3.32-5-6.85-9.74c-4.73-6.39-9.75-12.54-15-18.54-13.64-15.7-28.06-33.92-47-43.34-3-1.47-6.15-2.78-9.46-2.64-10.4.43-8.83,13.87-9.28,21.12a207.27,207.27,0,0,0,7.25,68.57c2.94,10.51,6.84,21,13.76,29.45s17.32,14.62,28.23,14.19c-4.37.17,3.67-23.7,4.72-25.54,4.24-7.46,9.17-13.82,16.36-18.64a48.17,48.17,0,0,1,11-5.48c3.15-1.09,8.08-3.34,11.36-2.44C360.39,151.19,358.46,149.34,357,147.43Z"/>
              <path class="cls-20" d="M614,314.53a7.35,7.35,0,0,0,5.71,2.44,9.15,9.15,0,0,0,4.2-1.54,13,13,0,0,0,5.74-7.07,9.29,9.29,0,0,0-15.7-8.87C609.84,303.56,610.08,310.39,614,314.53Z"/>
              <path class="cls-20" d="M643.5,319.31a7,7,0,0,0,2,1.95,7.29,7.29,0,0,0,2.85,1,10.67,10.67,0,0,0,9.77-4.13,12.82,12.82,0,0,0,2.1-10.56,10,10,0,0,0-1.6-3.69,9.36,9.36,0,0,0-2.47-2.47,9,9,0,0,0-7.65-.31,12.8,12.8,0,0,0-6.33,6.07c-1.49,2.92-.94,7.09.25,10A10.67,10.67,0,0,0,643.5,319.31Z"/>
              <path class="cls-20" d="M677.59,329.6a9.34,9.34,0,0,0-4,1,9,9,0,0,0-4.78,7.55,9.82,9.82,0,0,0,.82,4c.88,2,2.92,4.82,5.31,5a10.88,10.88,0,0,0,11.78-10.05,6.51,6.51,0,0,0-.63-3.59C684.52,330.7,680.62,329.47,677.59,329.6Z"/>
              <path class="cls-20" d="M650.79,344.85a25.13,25.13,0,0,0-7.7-6.6,29.49,29.49,0,0,0-7.51-2.61c-12-2.71-26.64,5.13-28.45,17.95-.58,4.07,1.43,9.25,5,11.39,2.29,1.36,5.05,1.6,7.69,2a23.82,23.82,0,0,1,7.61,2.16c3.6,1.88,6.31,5.2,10,6.92a13.41,13.41,0,0,0,11.43-.11c5-2.46,8-8,8.29-13.57s-1.83-11-5-15.59C651.75,346.11,651.28,345.47,650.79,344.85Z"/>
              <path class="cls-21" d="M532.33,381.64c-.35-.8-.68-1.56-1-2.32a39.06,39.06,0,0,1-2.18-10.05c-.08-.84-.13-1.67-.19-2.51s-.11-1.7-.19-2.54l-.06-.77c0-.62-.09-1.25-.19-1.89a6.8,6.8,0,0,0-1-2.79c-.73-1.07-2.87-3.19-4.79-3.52l-1.1-.19v5.22l.71.17a1,1,0,0,1,.7.54.52.52,0,0,1-.12.53c-15.46,21.34-41.08,35.2-70.29,38A125.88,125.88,0,0,1,409,396.37a66,66,0,0,1-18.35-7.43c-4.6-2.82-9.61-6.32-11.85-10.88l-.39-.79-.81.33a10,10,0,0,1-2.75.69l-.85.1,0,.85c.08,4.55,0,9.21-.24,13.85-.13,2.43-.28,4.86-.43,7.28v.16c0,.66-.12,1.39-.21,2.13a16.82,16.82,0,0,0,0,6.33c.86,3,3.79,6.09,8.71,9.2.78.5,1.54.94,2.2,1.32A89.15,89.15,0,0,0,395.76,425a122.49,122.49,0,0,0,44.71,8.11,136,136,0,0,0,48-8.71,110.61,110.61,0,0,0,37-23.08c.55-.52,1.13-1.05,1.72-1.58,2.64-2.4,5.64-5.11,6.74-8.59S533.58,384.52,532.33,381.64Z"/>
              <path class="cls-22" d="M532.32,381.64c-.34-.81-.68-1.59-1-2.32a39.06,39.06,0,0,1-2.18-10.05c-.08-.84-.13-1.67-.19-2.51s-.11-1.7-.19-2.54l-.06-.77c0-.62-.09-1.25-.19-1.89a6.8,6.8,0,0,0-1-2.79c-.73-1.07-2.87-3.19-4.79-3.52l-1.1-.19v5.22l.71.17a1,1,0,0,1,.7.54.52.52,0,0,1-.12.53c-15.46,21.34-41.08,35.2-70.29,38A125.88,125.88,0,0,1,409,396.37a63.26,63.26,0,0,1-16-6.07,62.61,62.61,0,0,1-5.48-4.16c-2-1.47-6.52-2.59-7.87-4.61,7,10.35,18,17.52,29.86,21.41,25.74,8.44,55.87,5.14,80-6.18,7.86-3.93,14.52-9.49,22.3-13.64,1.35.95,1.44,2.87,1.52,4.52a33.44,33.44,0,0,0,1.53,8.48c.93,2.9,2.27,5.85,1.82,8.86a61.4,61.4,0,0,0,14.22-11.45,11.16,11.16,0,0,0,2.84-4.42C534.41,386.76,533.34,384.05,532.32,381.64Z"/>
              <path class="cls-22" d="M521.72,373.17c6-7.49,10.39-16.27,1-17.92l-1.1-.19v5.22l.71.17a1,1,0,0,1,.7.54.52.52,0,0,1-.12.53c-15.46,21.34-41.08,35.2-70.29,38-9.53.92-18.66,0-28.12-.51a70.49,70.49,0,0,1-29.12-8.12c2.73,4.47,8.12,6.44,13.16,7.85,17.25,4.82,35.42,6.75,53.19,4.55s35.15-8.62,49.46-19.39A74.66,74.66,0,0,0,521.72,373.17Z"/>
              <path class="cls-23" d="M373.81,393.09c-.13,2.43-.28,4.86-.43,7.28v.16c0,.66-.12,1.39-.21,2.13a16.82,16.82,0,0,0,0,6.33c.86,3,3.79,6.09,8.71,9.2.78.5,1.54.94,2.2,1.32A89.15,89.15,0,0,0,395.76,425a122.49,122.49,0,0,0,44.71,8.11,136,136,0,0,0,48-8.71,112.54,112.54,0,0,0,28.4-15.73c6.88-5.26,16.74-10.82,15.41-20.84-1.29,6.74-6.78,11.82-12.31,15.89-25.9,19.06-57.19,25.47-88.76,25.22-8.65-.07-17.66-.22-25.38-4.15S392.19,412,394.64,403.69a286.2,286.2,0,0,0,50.77,4.45c-11.29-.49-22.67-1.13-33.63-3.92s-21.58-7.85-29.36-16.06c-2-2.08-4.73-5.72-.46-6.88-2-1.53-4.33-5.9-7.25-3.06C372.57,380.3,374,389.9,373.81,393.09Z"/>
              <path class="cls-24" d="M495.79,321.18a16.53,16.53,0,0,0-10.43-6,54.45,54.45,0,0,0-15.35-.34,75.4,75.4,0,0,0-15.72,3.32c-1.73.57-3.45,1.35-5.11,2.09a46.11,46.11,0,0,1-5.52,2.22l-1.83.55,1.56,1.11c2.21,1.58,4.61,3.12,7.36,4.7,8.19,4.68,17,7.21,25.06,7.21.49,0,1,0,1.47,0,6.51-.25,12.32-4.33,17.76-12.46.29-.42.57-.85.84-1.28l.37-.6Z"/>
              <path class="cls-25" d="M489,244.83h0c-6.32-7.18-18.71-5.4-23.74-4.3a84.24,84.24,0,0,0-20.5,7.43l-1.07.54c-4.12,2.11-8.39,4.29-11.42,8a11.76,11.76,0,0,0-2.53,8.92,20.72,20.72,0,0,0,7.57,13.28,44.35,44.35,0,0,0,21.13,8.93,30.3,30.3,0,0,0,4.29.3c12.08,0,25.41-6.83,29.47-19.86C494.24,261.36,494.65,251.28,489,244.83Z"/>
              <path class="cls-18" d="M488.83,251.84a21.41,21.41,0,0,1-5.45,3.51c-13.73,6.78-28.47,12.24-43.79,12.73a18,18,0,0,1-6-.56,7.32,7.32,0,0,1-4.55-3.7c.53,1.16-.1,3.07.54,4.45a36.3,36.3,0,0,0,2.51,3.64,25.6,25.6,0,0,0,2.22,3.65,30.81,30.81,0,0,0,7.87,6.46,44.92,44.92,0,0,0,16.21,5.58,30.3,30.3,0,0,0,4.29.3c12.08,0,25.41-6.83,29.47-19.86a34.58,34.58,0,0,0,1.39-8.21,21.75,21.75,0,0,0-1-9,17.85,17.85,0,0,0-1-2.16l-1.5-2.77C491.28,248.27,490.42,250.25,488.83,251.84Z"/>
              <path class="cls-26" d="M505.62,290.31A92.58,92.58,0,0,1,484.44,303a119.21,119.21,0,0,1-14.34,5.38A133,133,0,0,1,449,313,114.3,114.3,0,0,1,434,314h-2.49l1.87,1.64c.9.78,1.78,1.61,2.64,2.41s1.95,1.83,3,2.71,1.81,1.5,2.59,2.1l.63.49.59-.54c3.43-3.21,9.32-4.94,13.62-6.21a62.9,62.9,0,0,1,17.62-2.51h.64c5.39,0,18,0,21.13,5.59l.81,1.43.82-1.41c1-1.64,1.84-3.24,2.49-4.45,4.12-7.63,5.89-16.07,7.2-24.07l.4-2.46Z"/>
              <path class="cls-27" d="M440.05,313.83q-2.9.15-6,.16h-2.49l1.87,1.64c.9.78,1.78,1.61,2.64,2.41s1.95,1.83,3,2.71,1.81,1.5,2.59,2.1l.63.49.59-.54a11.36,11.36,0,0,1,1.05-.88A18,18,0,0,1,440.05,313.83Z"/>
              <path class="cls-27" d="M505.62,290.31a89,89,0,0,1-18.39,11.41c1.33,3.67,1.1,7.87.52,11.66-.09.55-.19,1.1-.29,1.66,3.68.76,7,2.14,8.37,4.64l.81,1.43.82-1.41c1-1.64,1.84-3.24,2.49-4.45,4.12-7.63,5.89-16.07,7.2-24.07l.4-2.46Z"/>
              <path class="cls-17" d="M585.72,260.79l-.17-.17a.7.7,0,0,1-.24-.58l.07-.27-.09-.26-.3-.84.6,1.12.88-1.16c3.13-4.09,1.33-8.08-1.43-11.56a3.63,3.63,0,1,1-5.86,4.27c2.4,1.69,3.61,4.61,4.35,7.46a37.94,37.94,0,0,1-11.85,37.59c-2.6,2.21-8.65,6.09-11.6,2.59a9.37,9.37,0,0,1-1.42-2.78l-4.26-11.43a8.84,8.84,0,0,1-5.66,8.48c.56-6.9-1.5-15.47-5.43-21.17-4.72-6.86-10.52-9.1-17.58-12.57,5.63,2.77,9.81,8,12.22,13.78s3.2,12.15,3.32,18.42c.19,9.55-1.6,18.36-7.3,26.14-5.35,7.28-15.07,10.43-23.81,11.47,2.18,9.39,19,4.16,23.93,1.21,9.7-5.77,16.66-16.71,20-27.09A38.77,38.77,0,0,1,553,308l-.41,1.37,1.41-.17a.92.92,0,0,1,.83.32,8.92,8.92,0,0,0,6.77,3.13h.17c5.05,0,10.73-3.63,14.14-7.27a41.92,41.92,0,0,0,9.43-16.83c2-7.06,3.21-18,.42-27.5Z"/>
              <path class="cls-17" d="M367.73,121c1.62,2.28,3.24,4.52,4.77,6.79A8.68,8.68,0,0,0,367.73,121Z"/>
              <path class="cls-17" d="M338.32,186c.78-1,1.54-2,2.26-3C339.78,184,339,185,338.32,186Z"/>
              <path class="cls-17" d="M435.8,284.49a29.37,29.37,0,0,0,10.53,6.78c12.35,4.56,28.9,1.42,37.95-8.37,4.6-5,5.79-10.23,7.85-16.47a28.3,28.3,0,0,1-11.2,15.07c-2.56,1.71-6.07,3-8.6,1.22-1.6-1.1-2.31-3.08-2.89-4.93q-2.34-7.47-4-15.14a46.85,46.85,0,0,1-24,5.26c-2.86-.14-10.29-3.65-12.34-2.37-3,1.85-.22,8.17.78,10.42A28.75,28.75,0,0,0,435.8,284.49Z"/>
              <path class="cls-17" d="M512.64,268.33a16.84,16.84,0,0,0-4.78-.21c2.06.91,4.46,2.39,4.26,4.62a5.11,5.11,0,0,1-1,2.29c-6.1,9.21-15.56,15.82-25.72,20.18s-21.06,6.66-31.92,8.73c-7.91,1.51-16.27,2.89-23.87.22-2.09-.74-4.22-1.92-5.11-3.94s.21-5,2.41-5.15c-10.67,5.76-16.53,18.27-16.77,30.4-.09,4.35.35,9.07-2.08,12.68a2.43,2.43,0,0,1-1.77,1.27c-1,0-1.73-1-2.18-1.9a35.39,35.39,0,0,1-2.17-25.32c-1.25,4.25-3.46,8.07-4.43,12.49s-1,8.67-2,13-2.21,9.4-6.27,11.26c-4.36,2-9.67-1.16-11.74-5.48s-1.77-9.35-1.43-14.13a37.22,37.22,0,0,1-12.79,20.43A6.62,6.62,0,0,1,360,351.4c-2.62.28-4.63-2.24-5.84-4.59-5-9.79-5.91-21.36-4-32.19.56-3.14.87-5.91,2.18-8.9a113,113,0,0,1,10.32-18.45c-2.5,3.62-6,6.23-8.78,9.57a61.84,61.84,0,0,0-7.16,10.41c-1.41,2.65-1.84,5.83-5.53,6.07-2.28.15-3.64-2.52-4-4.78a22.3,22.3,0,0,1-.14-5.94,78.62,78.62,0,0,1-4.58,12c-2.33,4.89-6,10.08-11.4,10.48a2.36,2.36,0,0,1-1.5-.29,2.58,2.58,0,0,1-.74-2.12A69,69,0,0,1,328,286.67a49.85,49.85,0,0,1-24.64,19.19c-1.77.62-4.2.92-5.1-.72a3.93,3.93,0,0,1-.33-2c.25-7.9,4-15.38,9.31-21.26,4.68-5.24,10.48-9.33,16.51-12.94a5.21,5.21,0,0,1-4.28-1.45c-4.34-4.46-1.82-15.18,0-20.28a33.81,33.81,0,0,1,13.59-17.13A48.21,48.21,0,0,1,338.32,186a64.94,64.94,0,0,1-9,9.31,11.26,11.26,0,0,1-4.54,2.65,4.31,4.31,0,0,1-4.67-1.66,6.06,6.06,0,0,1-.27-4.19,50.56,50.56,0,0,1,61.26-39.87c-2.14-5.35-.11-11.36,1.91-16.76,3.74-10,7.51-20,13.11-29.09,1.66-2.68,3.89-5.53,7-5.78,1.74,2.36,1.73,5.55,1.5,8.47a89.81,89.81,0,0,1-7.35,29.13,198.28,198.28,0,0,1,33-31.77c-3.9,3-9.57,5.55-13.85,8.22-4.68,2.93-8.16,6.54-12,10.6l-2.38,2.53c.22-.86.46-1.74.7-2.63,2.09-7.82,4.26-15.9,1.23-23.84a2.26,2.26,0,0,0-1-1.32,2.57,2.57,0,0,0-1.88.07c-2.77,1.13-4.62,3-6.75,5.39a55.15,55.15,0,0,0-5.05,6.65c-5.51,8.38-8.73,18-11.6,27.62.05-.74.11-1.52.2-2.34l0-.19-.13-.37-.05-.06a65.2,65.2,0,0,0-5.24-9,9.9,9.9,0,0,1-1.14,6.45c-2.61,4.45-8.31,6.5-13.42,5.75a12.43,12.43,0,0,1-5.11-1.87,21.11,21.11,0,0,1-4.95-5.48c-15.77-21.8-36.9-39-57.77-56,12.19,9.92,24.19,19.85,34.24,32a115.88,115.88,0,0,1,13.15,19.47c2.83,5.36,10.08,14.15,7.14,20.38a14.37,14.37,0,0,1-2.2,3.07l-29.37,34a5.42,5.42,0,0,1-2.48,1.93,5.07,5.07,0,0,1-2.5-.14,34.06,34.06,0,0,1-12.9-6.26c-10.26-8-15-21.16-18.12-33.81A229.16,229.16,0,0,1,271,75.48c-3.5,12.49-2.72,25.73-1.91,38.67.77,12.28,1.55,24.6,3.77,36.7A155.38,155.38,0,0,0,286.1,191c-5.09.14-8.81-4.64-11.26-9.11-9.31-17-13.16-36.43-15.86-55.64A544.54,544.54,0,0,1,253.82,62c-.16-7.93.52-17.2,7.1-21.62-7.91,1.5-11,11.58-12,18.48a102.26,102.26,0,0,0-.67,15.26c0,1.65,0,3.2,0,4.6A392,392,0,0,0,249.39,118c.54,6.42,1.29,12.79,2.23,18.93a231.65,231.65,0,0,0,10.73,42.93,184.45,184.45,0,0,0,19.49,39.39,161.38,161.38,0,0,0,13.42,17.58c2.41,2.74,5,5.47,7.69,8.13.64.63,1.32,1.21,2,1.77s1.32,1.14,1.93,1.73a5.43,5.43,0,0,1,1.4,3.58q.79,6.45,1.61,12.91a61.76,61.76,0,0,0,1.15,7c.1.39.17.8.24,1.19s.18,1,.31,1.52c-1.09,1.07-2.2,2.11-3.31,3.15s-2.51,2.36-3.75,3.58a69.68,69.68,0,0,0-8.1,9.31,48.71,48.71,0,0,0-6.49,12,21.55,21.55,0,0,0-1,3.34c-1.1,5.6,2.05,7.47,4.89,8.05,1.91.4,4.12-.37,5.9-1l.75-.26c6.36-2.12,13-6.44,20.34-13.15a56.68,56.68,0,0,0-3.33,8.45,52.07,52.07,0,0,0-2.08,15,20.46,20.46,0,0,0,1,6.85,5.15,5.15,0,0,0,2.9,3.37,4.88,4.88,0,0,0,1.05.23c3.23.25,6.27-3.13,8.29-5.36.19-.23.38-.43.55-.62a48.59,48.59,0,0,0,7.49-11l.23.7c1.27,3.85,2.7,8.21,5.59,11.19l1.41,1.45.2-2a64.3,64.3,0,0,1,9.14-27.06c-6,12.09-10.38,25.91-8.1,41.31,1.47,10,5.36,18.35,11.54,24.93a31.2,31.2,0,0,0,9.77,7.12,17.81,17.81,0,0,0,4.58,1.55c.88.13,5.65-.79,6-.44,9.8,9.77,22.6,16.22,36,19.78s27.35,4.37,41.18,3.93c3.22-.1,6,0,8.94-1.16s6.08-2.46,9.11-3.7c-7,2.33-15.35-1.92-19.54-8.27-4.55-6.9-5.46-15.49-6.25-23.72A5.49,5.49,0,0,0,456.83,359a23.93,23.93,0,0,0,37.94-14.56c-4.25,7.9-13.91,12-22.84,11.12s-17-6.09-23-12.82-10-14.93-13.44-23.21c11.31,14.43,32,20.74,49.42,15.1a35.63,35.63,0,0,1-18.07-1.72c-3.06-1.13-6.07-2.79-7.91-5.47s-2.18-6.6-.09-9.1c1.59-1.89,4.14-2.61,6.56-3.09a63.51,63.51,0,0,1,17.94-1c5.68.49,12.68,3.36,12.54,9.06q8.44-16.89,17.66-33.37c1.88-3.36,4-6.91,7.49-8.52,2.78-1.29,6.6-.56,8.33,1.71C526.13,276.16,520.24,269.74,512.64,268.33Z"/>
              <path class="cls-17" d="M512.9,267a5.06,5.06,0,0,0-3.29-1.24A30.38,30.38,0,0,1,512.9,267Z"/>
              <path class="cls-17" d="M337.1,302.6c.56-1.91,1-3.83,1.45-5.78A22.18,22.18,0,0,0,337.1,302.6Z"/>
              <path class="cls-17" d="M563.75,116.61c-.36,0-.72-.07-1.07-.12-14.47-1.91-26.94-10.83-38.32-19.95-12.34-9.9-24.59-20.88-30.9-35.39a28.79,28.79,0,0,0-3.41-6.62c-1.56-2-4-3.39-6.49-3s-4.33,2.73-5.61,5a34.43,34.43,0,0,0-3.41,8.53c1-3.37,5.87-4.23,8.8-2.28s4.2,5.61,4.74,9.09a34.37,34.37,0,0,1-4.24,22.32c2.42-2.87,5.11-10.59,9.63-10.84,1.84-.11,3.23,1.55,4.33,3,9,12.06,19.68,23,32.56,30.79a150.38,150.38,0,0,1-15.54,23.48,113.86,113.86,0,0,0-32.43-11.25c-1.82-.34-3.83-.74-4.92-2.22a6.75,6.75,0,0,1-1-4A55.06,55.06,0,0,1,480.23,103c-1.93,5-4,10.18-8.07,13.66s-10.73,4.52-14.58.82c-4.19-4-3-10.91-1.44-16.52-.83,3-2.62,5.77-3.33,8.91a66.14,66.14,0,0,1-2.12,8.68l1.76.65a.73.73,0,0,1-.51.48c.81-.11,4.68,1.09,7.09,1.92a.86.86,0,0,1,.66-.13c4.19.76,7.33,5.57,7.32,9.76,0-2.31,24.78-.31,26.63,0,7.39,1.3,14.87,4,19.94,9.53s7,14.41,2.93,20.71c-.41.63-1,1.29-1.76,1.19a12.41,12.41,0,0,1,1.35,14.69,10.73,10.73,0,0,0-1.63,2.91,7,7,0,0,0,0,2.84,46,46,0,0,0,2.33,8.78c.17.44,9.41-8.33,10.11-9.33,2.75-3.92,5.3-8.25,7.73-12.42-.86,2.8-4.33,4.17-7.17,3.47s-5.06-3-6.62-5.44a22.32,22.32,0,0,1-3.29-13.91,12.76,12.76,0,0,1,.72-3.35,17.85,17.85,0,0,1,1.76-3.24,253.54,253.54,0,0,0,16.85-31.26,4.15,4.15,0,0,1,1.5-2c1.19-.65,2.64,0,3.82.66l8.79,4.87c4.06,2.25,8.49,4.57,13.09,3.93a11.14,11.14,0,0,0,9.3-10.32C571.38,116.38,567.38,116.92,563.75,116.61Z"/>
            </g>
            <g>
              <path class="cls-26" d="M373,153.42c-18.16-5.66-36.63,5.37-46.91,20-5.07,7.19-10.94,17.18-10.45,26.29.27,5,4.82,13.59,10.89,11.84-.56,6.94,1.07,13.59,5.9,18.94.33.37.87-.1.66-.5-8.34-16.09-1.68-33.19,7.93-47,0-.06-.06-.13-.11-.08C334.59,190.3,328.82,198.13,327,208c-.09.49-.17,1-.24,1.48-3.2-1.62-6-2.62-7.39-6.47-1.54-4.41.05-9.47,1.57-13.69a60.2,60.2,0,0,1,11.33-19.4A47.64,47.64,0,0,1,373,153.72C373.16,153.74,373.18,153.47,373,153.42Z"/>
              <path class="cls-26" d="M520.1,151.45c-1.74-7.46-7.2-13.93-13.8-17.66-17.46-9.88-39.65-5.11-57,2.16-.07,0,0,.15,0,.12a96.39,96.39,0,0,1,30.95-5c10.05.12,20.51,1.47,28.8,7.61a22.82,22.82,0,0,1,7.26,8.36c2.4,5.13,1.48,9.77-1.8,14.12a14.63,14.63,0,0,0-5.26-2.92c-.1,0-.14.1-.06.16,3.79,2.91,7.66,8.81,7.76,13.72.12,5.73-5.09,9.67-10.56,5.82-1.53-1.08-3-2.28-4.45-3.47-.24-.2-.57.11-.34.34,2.27,2.28,6.3,7.17,9.92,7.21,3.08,0,5.6-3.13,6.66-5.68a13,13,0,0,0-1.57-12.9C520.59,162.72,520.84,154.68,520.1,151.45Z"/>
              <path class="cls-28" d="M544.89,274.19a31.51,31.51,0,0,0-22.38-17,.09.09,0,0,0,0,.17c17.9,7.29,29.31,27.54,21.78,46.35,0,.12.15.2.2.09C548.82,294.05,549.76,283.9,544.89,274.19Z"/>
              <path class="cls-28" d="M415.82,358.72c-6.86-3.94-11.74-8.27-14.41-16a42.15,42.15,0,0,1-1.1-23.68c0-.11-.13-.15-.17,0-3.05,8.62-3.36,17.35.18,25.95,2.57,6.25,7.88,14.08,15.35,14.3A.31.31,0,0,0,415.82,358.72Z"/>
              <path class="cls-28" d="M428.54,360.78a.24.24,0,0,0-.48.06c.21,3.5-3.72,5.37-6.55,6a17.24,17.24,0,0,1-9.05-.84c-5-1.75-9.24-5.09-13.42-8.28-.06,0-.13,0-.09.09,4.07,6.95,10.9,12.32,19.19,12.77C424.44,370.9,430.32,367.92,428.54,360.78Z"/>
              <path class="cls-26" d="M529.75,282.78a25.73,25.73,0,0,0-5.32-8.91c-4.21-4.49-10.62-7.15-16.66-6,2.59.48,8.32,1.94,8.66,5.1.3,2.73-2.42,5.15-4,7.11a61.19,61.19,0,0,1-10.53,10.19A103,103,0,0,1,475,305.39a94.93,94.93,0,0,1-29.34,5.73,124.55,124.55,0,0,1-13-.32c-4-.27-7.85-.5-11.7-2a2.15,2.15,0,0,1-.91-.53c-.59-.67-.24-1.71.16-2.51a39.43,39.43,0,0,1,7.21-10,31,31,0,0,0-14.22,18.52,29,29,0,0,0-.68,11.28c.48,3.62,2.08,6.56,3.11,10a32.8,32.8,0,0,1,.92-21.4,1,1,0,0,1,1.39-.78c2.06.23,4,.78,6.11,1,.67.09,6.06.18,6.21.51,3.68,7.72,12.81,13.77,20.25,17.09,8.6,3.83,19.11,7.1,28.63,5.87,10.09-1.3,16.46-11.55,21.22-19.63,5.3-9,9.95-19.05,9.93-29.68a1.64,1.64,0,0,0-.3-1c1.32-1.27,2.59-2.59,3.79-4,2-2.36,5.79-5.52,6.16-8.79,5.84,3.27,9.84,9.29,11.52,15.76A35.58,35.58,0,0,0,529.75,282.78Zm-52.5,52.32c-9,.36-18.31-2.65-26-7.06a85.57,85.57,0,0,1-7.29-4.65c3.61-1.08,7.09-3.13,10.65-4.3a74.23,74.23,0,0,1,15.52-3.29,54.56,54.56,0,0,1,15.1.33,15.65,15.65,0,0,1,9.88,5.67C490.82,328.49,485.17,334.79,477.25,335.1Zm21.87-20.3c-.76,1.41-1.58,2.91-2.47,4.42-3.53-6.29-16.92-6.07-22.49-6.07a63.53,63.53,0,0,0-18,2.56c-4.47,1.31-10.42,3.06-14,6.41-.87-.67-1.72-1.35-2.55-2.06-1.94-1.68-3.71-3.48-5.61-5.13a113.39,113.39,0,0,0,15.07-1,129.62,129.62,0,0,0,35.74-10.08A94.59,94.59,0,0,0,506.22,291C504.87,299.26,503.12,307.39,499.12,314.8Z"/>
              <path class="cls-28" d="M494.79,345.79c-2.73,5.27-8.81,9.73-14.56,11.21-7,1.78-12.94-1-19.13-3.85,0,0-.09,0-.06.06,3.92,6.18,12.43,7.9,19.23,6.46,7.67-1.63,12.08-6.75,14.8-13.76C495.14,345.74,494.87,345.63,494.79,345.79Z"/>
              <path class="cls-26" d="M494.45,255.2c-1-5.49-3.55-11-8.76-13.5-5.71-2.78-10.74-3.09-16.9-2.24-8.47,1.16-18.38,4.81-25.89,8.78-6,3.18-14.74,7.82-14.89,15.67-.17,8.33,7.11,16,14,20,11.22,6.37,25.59,8.13,37.2,1.89C489.78,280.07,496.65,267.2,494.45,255.2Zm-3.19,12.56c-4.21,13.55-19.24,20.83-32.73,18.91a43.77,43.77,0,0,1-20.68-8.73c-5.7-4.54-10.28-14.34-4.89-20.88,3.16-3.83,7.86-6,12.19-8.26a83.13,83.13,0,0,1,20.28-7.35c7.58-1.66,17.64-1.88,22.83,4S493.44,260.74,491.26,267.76Z"/>
              <path class="cls-26" d="M280.06,509.31c0-.07,0-.06,0,0Z"/>
              <path class="cls-26" d="M689.27,331.7c-2.5-4.75-6.37-9.16-12.24-8.31-6.24.91-11.61,5.68-16.66,9.07a.79.79,0,0,1-.53.19.74.74,0,0,1-.33-.22c-.53-.49-1-1-1.56-1.49,1.64-2.8,3.42-5.54,5-8.41,1.79-3.25,3.8-6.47,4.31-10.21.84-6.14-2.35-11.87-7.36-15.28-5.27-3.59-13.07-4.78-18.28-.43-3.22,2.7-5.11,6.72-6.34,11a20.37,20.37,0,0,0-2.31-9.43c-3.57-6.58-10.61-8.83-17.74-7.93-5.86.74-11.25,3.81-13.11,9.7-1.1,3.5-.88,7.24-.53,10.85.64,6.64.36,14-3,20a24.05,24.05,0,0,0-7.27-4.72,18.57,18.57,0,0,0-16.41,1.64A17.2,17.2,0,0,0,567,340.08c-.69,6.45,2.31,10.31,7.82,13.09,3.62,1.83,7.22,3.62,10.19,6.46,2.33,2.23,3.07,5.79,4.09,8.71a23.81,23.81,0,0,0,3.8,7.18c.55.67,1.22,1.21,1.77,1.89a.65.65,0,0,1,.17.34.61.61,0,0,1-.08.32,64.47,64.47,0,0,1-12.62,18c-2.29,2.5-5.39,6.3-8.54,7.58-4.36,1.77-11.47-1.05-15.86-2.23a96,96,0,0,1-11-3.66c-3.87-1.56-7.55-3.9-11.54-5.1a10.4,10.4,0,0,0,.76-5.82c-.74-4.59-3.25-9.11-4.4-13.66-1.65-6.46-.29-18.89-8.95-20.82,0-5.27.15-10.53.58-15.83,7-.77,14.26-5.25,19.14-9.78A42,42,0,0,0,552.59,312c4.18,5.21,12,3.75,17,.31,6.67-4.57,11.8-12,15-19.33,4-9.09,6.21-21.68,2.59-31.64a2.09,2.09,0,0,0,.25-.32c3.33-5.4.21-12.32-2.42-17.34-3.78-7.21-9.71-12.43-16.79-16.38a78.53,78.53,0,0,0-35.77-9.61c-.54-1.7-1.69-3-2.83-4.63a94.83,94.83,0,0,1-5.77-9c-3.15-6-5.8-12.29-8.78-18.33,0-.07-.13,0-.12.05a61.74,61.74,0,0,0,6.75,19.54c1.81,3.5,3.57,9,6.55,12.34a66.7,66.7,0,0,0-14.8,2.08,0,0,0,0,0,0,.09c5.76-1.1,11.85-.69,17.77.15.12.06.24.13.37.18a.74.74,0,0,0,.6,0c2.29.35,4.55.75,6.76,1.15A107.69,107.69,0,0,1,560.27,227a52.12,52.12,0,0,1,18.07,12c4.16,4.31,12.09,12.89,7.39,19.05a21.78,21.78,0,0,0-6.28-7.26c-.1-.08-.21.08-.13.17a25,25,0,0,1,5.08,8.85,1.55,1.55,0,0,0,.49,1.47c2.55,8.71,1.85,19.13-.42,27a41,41,0,0,1-9.21,16.44c-4.55,4.84-14.12,10.49-19.7,4.16a1.83,1.83,0,0,0-1.64-.62,38.78,38.78,0,0,0,1.56-14.45.11.11,0,0,0-.22,0c-2.13,20.31-21.2,47.43-44.7,37.65-.36-.16-.6.37-.36.62a14.5,14.5,0,0,0,9.8,4.54c-.68,7.87-2.49,17.12-.34,24.79a1.39,1.39,0,0,1,.06.13c-15.78,21.84-41.21,33.93-67.82,36.2a120.93,120.93,0,0,1-40.77-3.42A74.44,74.44,0,0,1,394,387.42c-5.11-2.86-8.88-7.17-13.54-10.48a6.59,6.59,0,0,0,2.36-3.73,14.46,14.46,0,0,0,7.56,4.47c4.79,1,13.61.49,12.6-6.46a.38.38,0,0,0-.73,0c-1.43,8-13.3,2.89-17.09-.18s-5.54-7-8.32-10.71c-.05-.06-.14,0-.12.05a28.35,28.35,0,0,0,4.09,10.27c-5.7,9.2-17.74,2-23.46-4.13-6.39-6.81-9.92-15.21-11.29-24.42-2.79-18.87,4.42-35.51,13.84-51.33,0-.06-.06-.14-.11-.08a65.23,65.23,0,0,0-16.63,37.2c-2.92-3-4.32-7.63-5.61-11.56a7.36,7.36,0,0,1-.52-2.73A48,48,0,0,1,328.52,327c-1.88,2.05-5.6,6.65-8.89,5.49a4.37,4.37,0,0,1-2.33-2.79,19.81,19.81,0,0,1-.94-6.54,51.46,51.46,0,0,1,2-14.75c1.33-4.62,3.48-8.67,5.49-13C317.32,302,309.13,309,300.2,312c-1.81.6-4.26,1.62-6.17,1.22-5.9-1.2-4.54-6.46-3.24-10.15a48,48,0,0,1,6.37-11.78,69.18,69.18,0,0,1,8-9.19c2.48-2.42,5-4.71,7.48-7.12-.37-1.07-.45-2.15-.71-3.22a60.73,60.73,0,0,1-1.13-6.87q-.8-6.45-1.61-12.91a6.28,6.28,0,0,0-1.67-4.12c-1.24-1.23-2.65-2.29-3.9-3.51q-4-3.9-7.65-8.08a160.3,160.3,0,0,1-13.33-17.48,182.65,182.65,0,0,1-19.39-39.19,230.5,230.5,0,0,1-10.69-42.76c-1-6.25-1.7-12.55-2.22-18.86-1.08-13-1.37-26.13-1.15-39.21.19-11.18-1.91-31.94,11.62-36.51,6.54-2.21,14,1.56,19.78,4.32a140.57,140.57,0,0,1,16.55,9.5c10.35,6.84,20.06,14.64,29.64,22.48,20.11,16.48,39,34.85,50.16,58.7l0,.06a47.46,47.46,0,0,0-.19,8.84c3.4-11.37,6.69-23.45,13.31-33.49a55.57,55.57,0,0,1,5-6.55c1.89-2.09,3.73-4.06,6.41-5.15a1.38,1.38,0,0,1,1.1-.1,1.35,1.35,0,0,1,.58.81c3.7,9.7-.69,19.83-2.79,29.31,9.42-9.67,17.23-19.88,30.27-24.94,3.26-1.26,6.26-2.35,9.83-2.43a1.77,1.77,0,0,1,1.51.47,1.73,1.73,0,0,1,0,1.68c-1.54,3.9-4.57,7-7.66,9.85-3.93,3.6-8.07,7-12.22,10.29,1.05-.85,4.06-1,5.4-1.4,1.78-.53,3.48-1.09,5.28-1.46a65.26,65.26,0,0,1,12.52-1.63c6.93-.07,17.44.91,21.19,7.76.72-4.16-1.66-6.13-5.19-7.77-.79-.37-9.38-3.36-9.68-2.56C455,109.64,457.36,100.09,461,91a230,230,0,0,1,13.9-29.34c2.87-5,5.95-11.27,12-12.68,5.84-1.35,13.09.85,18.86,2a236.26,236.26,0,0,1,31.93,8.63c10.19,3.52,23.18,7,29.21,16.66,5.82,9.34,7.63,21.74,6.21,32.52-.8,6-1.56,13.72-9.4,13.41-6-.24-11.43-3.39-16.48-6.26a155.29,155.29,0,0,1-24.36-17.14,157.1,157.1,0,0,1-22.55-23.85c-4.63-6.08-8.26-12.84-14-18a2.18,2.18,0,0,0-1-.6,2,2,0,0,0-1.3.34,10.62,10.62,0,0,0-4.43,4.71c2.36-2.4,5.28-3.08,7.33,0,2.54,3.9,4.73,8,7.42,11.76A162.54,162.54,0,0,0,505,86.63a161.81,161.81,0,0,0,23.74,21.94c5.41,4.09,11.48,8.66,17.89,12.1-.22,13.52-1.59,27.41-7,39.9a94.41,94.41,0,0,1-22.13,30.65,1,1,0,0,0-.3.41.91.91,0,0,0,.11.62,37.68,37.68,0,0,0,2.06,4.18c-.41-.72,5.58-6.4,6.23-7.17,7.4-8.83,13-19.16,17.19-29.87a101.92,101.92,0,0,0,7.18-37.06,43.88,43.88,0,0,0,7.62,2.76c4.21,1.07,9.83,1.46,13.44-1.51,3.17-2.61,3.67-7.49,4.2-11.25a61,61,0,0,0-4.07-32.71c-4.53-10.31-13-14.49-23-18.48a221,221,0,0,0-36.66-11c-5.67-1.18-11.43-2.28-17.19-2.9-4.74-.51-9.67-.44-13.5,2.79-4.42,3.72-7.25,9.9-10.35,14.7a135.51,135.51,0,0,0-9.67,18.11c-5,11.22-10.13,23.44-11.61,35.77a52,52,0,0,0-16.86,2c4-2.74,7.95-5.86,10.39-9.77,2.28-3.66,2.21-8.65-3.57-8.49-12.76.36-24.67,9.2-33.49,18.85a43.43,43.43,0,0,0,0-18c-1.49-6.79-7.74-3.23-10.85-.44a56.87,56.87,0,0,0-17.05,29.95c-9.52-21.72-26.91-38.6-45-53.54-10.09-8.34-20.4-16.58-31.24-23.93-9.84-6.68-22.27-15.14-34.4-16.43-11.48-1.22-18,8.52-19.56,18.76-2,13.85-1.35,28.67-.9,42.62.87,27.66,4.81,55.43,13.95,81.64,9.27,26.54,23.67,50.89,44.73,69.74a2.07,2.07,0,0,0,1.19.54c-.2,0,.76,8.93.84,9.53.27,2.11.66,4.24.78,6.36.05.79,1.15,5.4.77,5.81-1.67,1.79-3.39,3.51-5,5.32s-3.37,3.84-4.94,5.85a62.19,62.19,0,0,0-8,13c-1.88,4.25-5.64,13.54-.12,16.88,2.82,1.71,6.52,1.57,9.59.71a42,42,0,0,0,13-6.39c1-.69,1.83-1.37,2.63-2.05a33.27,33.27,0,0,0-2.3,8.13c-.85,5.47-.85,13.19,2.76,17.79,3.15,4,9,1.47,12.25-1.06a20.77,20.77,0,0,0,6.95-9,20.2,20.2,0,0,0,7.12,9.53l.12.07a55.22,55.22,0,0,0,3.68,21.56c3.68,9.35,9.8,19.15,19.28,23.42a20.35,20.35,0,0,0,5.71,1.64q-.69,7.43-.84,14.89c-.09,4.5-.72,9.43.14,13.88,0,.22.11.43.17.64a1.78,1.78,0,0,0-.55.46c-15.66,19.82-34.95,36.51-55.69,50.79-9.49,6.53-19.53,12.88-27.83,20.93a59.13,59.13,0,0,0-10.54,13.05c-2.27,4-6,11.64-3,16.05.84,1.24,2.32,1.14,3.63,1.18a23.78,23.78,0,0,0-.45,14.19c1.07,3.82,6.47,7.13,9.56,3.19a48.47,48.47,0,0,0,8.23,20.91,82.36,82.36,0,0,0,16.7,17.32c7.62,6.05,15.83,11.46,25,14.94,1.06.4,2.15.79,3.25,1.15-2.27,2.93-1.68,7.43.44,10.52,3.45,5,9.9,6.07,15.5,6.68,3.84.42,9.2,1.08,13.94.48-.39,4-.81,8.25-1.24,12.62a89.09,89.09,0,0,1-33.82,11.64,96.55,96.55,0,0,1-18.15.38c-5.72-.4-11.42-1.8-17.13-2.11h-.07c-.51,0-1-.06-1.52-.07a.09.09,0,0,0-.05.16c.1.06.21.1.31.15-2.17,1-3.44,4.8-3.68,7.15-.93,9.07,2.38,18.07,6.44,26,3.49,6.83,7.86,13.8,15.66,16a17.53,17.53,0,0,0,12.07-.73A12.39,12.39,0,0,0,327,675.8a6,6,0,0,0,4.65,6.19c3.61,1,7.44-1,10.26-3.08a12.84,12.84,0,0,0,2.59-2.56,3.72,3.72,0,0,0,1,1.94c2,2.13,5.34,1.65,7.84.82a18.73,18.73,0,0,0,7.56-4.72,71.6,71.6,0,0,1-1.26,8.27c-1,4.19-3.65,8.06-5.55,11.86-1.44,2.86-5.22,10.07-2.83,13,1.34,1.64,4.13,2.36,6.06,2.92,6,1.73,12.36,2.32,18.57,2.81,2.56.21,5.12.32,7.69.51,8.8.65,17.61,1.26,26.44,1.54,4.26.14,8.52.29,12.78.24a80,80,0,0,0,11.26-.65c3.51-.55,6.45-2.52,9.24-4.6,2.94-2.2,5.93-4.65,7.82-7.83,1.62-2.73,1.24-6.42,1.36-9.46.15-3.81,0-7.62.17-11.43q.39-10.65.87-21.28c.66-14.41,1.4-28.82,2.32-43.21,3,0,6.06-.29,9-.3,3.21,0,6.34.14,9.48.06-.81,6.5.17,13.33.33,19.85.18,7.11.23,14.23.38,21.35q.25,12.57.27,25.13,0,6.29-.05,12.56c0,2.76-.29,5.64,2.06,7.56a34.55,34.55,0,0,0,9.18,4.91c6.94,2.72,14.37,4,21.71,5.08,12.46,1.89,26.66,2.79,39.22,1.57,5.52-.53,11.14-1.12,16.61-2,4.38-.72,10.45-1.29,13.48-5.05,4-4.95,0-11.16-3.23-15.27-1.79-2.26-3.95-4.21-5.71-6.47a12.31,12.31,0,0,1-1.07-1.59c-1.27-2.24-1.66-4.51-2.22-7.23-.69-3.37-1.36-6.73-2-10.11-5.18-27-9-54.23-12.17-81.52-3.87-32.89-6.07-65.87-9.05-98.84-.13-1.46-.25-2.92-.37-4.38,16.64,6.94,34.53,7.52,51.9,2.56,7.6-2.17,17.08-5.55,22.94-11.07a5.26,5.26,0,0,0,.16-7.87,16.23,16.23,0,0,0,4.56-.85c2.94-.92,6-2.49,7.52-5.36,2.48-4.59-.22-6.65-4.34-6.89,5.92-4,12-15.61,14.39-20.85a121.61,121.61,0,0,0,6.75-19.36c1.6-6,2.72-12,4.48-17.89a1.36,1.36,0,0,1,.18-.43,1.52,1.52,0,0,1,.46-.32c1.11-.55,2.38-.77,3.41-1.41a19.2,19.2,0,0,0,3.43-2.79,27.3,27.3,0,0,0,4.62-6.07,86.69,86.69,0,0,0,9-26.21,1.19,1.19,0,0,1,.17-.49,1.17,1.17,0,0,1,.55-.34C682.11,352.75,696.06,344.62,689.27,331.7Zm-315,68.88c.15-2.48.3-5,.43-7.44.24-4.64.33-9.27.25-13.92a10.74,10.74,0,0,0,3-.75c2.4,4.89,7.71,8.52,12.2,11.27a67.18,67.18,0,0,0,18.6,7.53,127.1,127.1,0,0,0,44,3.2c27.68-2.67,54.42-15.56,71-38.41a1.61,1.61,0,0,0-1.12-2.53v-3.35c1.57.26,3.54,2.17,4.18,3.12,1,1.43,1,3.34,1.11,5s.21,3.37.37,5.06a40.45,40.45,0,0,0,2.24,10.29c1.32,3.56,3.78,7.34,2.53,11.26s-5.29,7-8.2,9.77a109.12,109.12,0,0,1-36.69,22.88c-28.52,10.82-63.45,11.86-92,.6a90.5,90.5,0,0,1-11.52-5.46c-3.52-2-9.25-5.7-10.48-10C373.41,406.33,374.16,403.06,374.31,400.58Zm-17,271.63a27,27,0,0,1-5.57,4c-1.24.7-2.86,1.29-4,.44a3.58,3.58,0,0,1-1.09-2.79,15.5,15.5,0,0,1,1.1-6.46c-2.27,3.3-4.62,6.68-7.77,9.2-2.36,1.89-7,5-9.67,2-1.82-2.07-.68-5.51.48-7.64a28.78,28.78,0,0,1,4-5.28c-5.12,2.21-10.92,4.7-16.6,3.7-5.86-1-10.14-5.11-13.38-9.87a54.16,54.16,0,0,1-7.5-15.51c-.9-3.13-4.28-19.16,2.19-19.92,11.39,4.85,25.63,4.64,37.52,3A107.32,107.32,0,0,0,357.84,622c3.57-1.27,7.37-2.54,9.79-5.2-.79,7.93-1.63,16.11-2.41,23.83-.88,8.64-2.09,17.24-3.33,25.84a9.32,9.32,0,0,0-.77,1.11A23.7,23.7,0,0,1,357.32,672.21Zm331.1-331.06A13.7,13.7,0,0,1,685,347c-3.57,3.63-8.69,4.58-13.12,6.72-.66.32-3.64,2.18-4.28,1.91l1.31.55c-.26,3.76-2.43,7.86-3.63,11.42a105.43,105.43,0,0,1-4.47,11.54c-1.65,3.49-3.81,7.45-7,9.72a30.38,30.38,0,0,1-4.07,2.43c-1.26.62-2.22.84-2.68,2.23-.39,1.16-.64,2.55-1,3.76-.37,1.37-.75,2.75-1.08,4.13-.74,3.16-1.51,6.31-2.36,9.44a136.77,136.77,0,0,1-6,17.83c-2.26,5.33-4.84,10.62-8.62,15a54.62,54.62,0,0,1-6.14,6.5c-1,.86-5.23,4.94-6.55,4.72,2.14.36,4.39.3,6.52.47,1.37.11,3.58-.29,4.78.45,3.27,2-1.26,4.61-2.36,5.23-4.41,2.52-10.89,2.85-15.88,2.9a20.85,20.85,0,0,1,5.07,2.35,4.78,4.78,0,0,1,1.68,1.6c1.25,2.34-1.21,4.39-3,5.51a65.8,65.8,0,0,1-7.87,4.28,69.48,69.48,0,0,1-21.37,6.19,80.62,80.62,0,0,1-40.54-6,2.47,2.47,0,0,0-1.07-.2q-.75-9.68-1.29-19.37c-.5-8.84-.66-17.91-2.32-26.62,0-.08-.12-.06-.13,0-.8,9-.29,18.07.36,27.07.32,4.44,1.44,32.25,2,41.77.63,10.38,1.56,20.75,2.32,31.13,2.38,32.8,6.12,65.56,11.09,98.07,1.57,10.23,3.33,20.42,5.2,30.6q1.43,7.73,2.94,15.44c.71,3.66,1.26,7.29,3.25,10.63,2.37,4,6.12,7.27,8.67,11.21a27.29,27.29,0,0,1,1.8,3c2.92,6.13-4.65,7.38-9,8.2-3.43-7.09-7.47-15.85-14.06-20.39-.07,0-.17.05-.12.12a83.07,83.07,0,0,1,6.67,9.92,81.32,81.32,0,0,1,4.38,10.9c-2.35.36-4.72.62-7.09.84-5.35.52-10.7,1-16.06,1.39-1.93-7.31-5.33-15.85-10.66-21.12-.1-.1-.32,0-.26.15,1.49,3.78,3.65,7.22,5.19,11a74.38,74.38,0,0,1,3.14,10.11l-2.74.15A115.85,115.85,0,0,1,505,709a125.75,125.75,0,0,1-13.72-4c-3.15-1.09-7.19-2.25-9.8-4.39-2.4-2-2-4.57-2-7.43q0-5.87,0-11.74-.06-11.73-.26-23.48c-.12-7.13-.44-14.23-.73-21.35-.26-6.54.21-13.57-1.21-20a34.52,34.52,0,0,0,3.59-.45c.5-.1.41-.8,0-.94-5.53-1.9-11.11-1.78-16.9-1.73-5.11,0-10.49-.24-15.21,1.94a.43.43,0,0,0,.1.77,22.15,22.15,0,0,0,2.67.54q-1.36,21.72-2.11,43.47-.37,10.63-.73,21.28c-.13,4.1-.31,8.2-.49,12.29-.13,3.06.1,6.19-2.41,8.44a62.48,62.48,0,0,1-7.95,6.39c-2.63,1.69-5.26,2.16-8.35,2.47-4.65.46-9.33.52-14,.52l-1.68,0c.12-3.1-.82-6.29-1-9.43-.18-3.66.45-7.39-.1-11,0-.1-.15-.07-.17,0-1.36,3.41-1.3,7.38-1.54,11-.19,2.88-.78,6.41-.26,9.39-5.43-.12-10.85-.44-16.27-.79-6.48-.42-13-.91-19.44-1.43a67.49,67.49,0,0,1,6.57-20.26c0-.07-.07-.13-.12-.06a70.72,70.72,0,0,0-9.34,20.09c-2.47-.19-4.93-.4-7.39-.68a56,56,0,0,1-7.87-1c-2.1-.55-4-1.23-3.55-3.86a7.77,7.77,0,0,1,.93-2.39L359.66,691c1.48-2.83,4.14-6.22,4.53-9.4.33-2.71.63-5.43.92-8.14,1.13-10.64,2.05-21.3,3.37-31.92,1.7-13.72,3.32-28.58,4.48-41.87a11.63,11.63,0,0,0,3.61-1.85c6.66-5.23,7.47-15.41,9.06-23.15a258.09,258.09,0,0,0,3.93-28.24c.59-6.43,1.17-13-.51-19.25a9.44,9.44,0,0,0-2.52-4.73,6.81,6.81,0,0,0-1.6-1,16.25,16.25,0,0,0-2.13-.84c-1.87-.63-3.8-1.22-5.75-1.73,0,0,0,0,0-.08,1.57-19.65,1.84-39.2,2.28-58.86,0-.05-.08-.05-.09,0-1.52,15.72-3.49,31.43-5.18,47.16a2.23,2.23,0,0,0-1.09.47c-2.08,1.69-3.08,4.3-5.23,6a1.82,1.82,0,0,1-1.17.54,1.93,1.93,0,0,1-1-.47c-9-6.87-15.13-17.38-25.09-22.81,7.62,5.53,11.82,14.61,18.59,21.15,4.56,4.4,9.87,6.75,15.61,9.14,3.83,1.59,11.2,1.63,11.95,7,1.45,10.31.28,20.45-1.19,30.67A144.3,144.3,0,0,1,381.56,578c-1.51,5.27-3.32,14.63-8.54,17.41-7.56,4-38.22,1.37-31.35-12a40.3,40.3,0,0,0,6.47,1.3c.83,3.89,4.21,4.73,7.82,4.61a33.16,33.16,0,0,1-4.51-3.27,11,11,0,0,1-1.33-1.18l.26,0c4.45.17,8.78-.77,13.19-.52a5.59,5.59,0,0,0-2.15-.88c-3.56-.91-7-1.59-10.56-2.2A71,71,0,0,1,338,578.07c-8.62-3.14-16.47-8.13-23.72-13.7-15-11.59-26-27.75-26.32-47.19-.31,3.6-1.87,10.35-6.82,9.75-4.68-.56-3.3-7.49-2.83-10.61.72-4.76,2.88-11.27,5.93-15.09a44.7,44.7,0,0,1-6.54,6.65c-.76.63-2.31.83-2.34-.57-.07-3.14,1.76-7,3.06-9.75,8.55-18.28,27.82-28.64,43.67-39.68a282.89,282.89,0,0,0,50.66-45.8c3.32,4.91,10.14,8.56,14.57,11.21,15,9,34,11.45,51.14,11.78,18.6.37,37.37-2.68,54.56-9.87,14.59-6.11,30.39-15.51,39.86-28.5.43-.59.82-1.17,1.19-1.77,5.49,4.85,14.32,7.41,21.18,9.36a57.38,57.38,0,0,0,10.11,2.14c3.24.32,6.59,1.11,9.64-.43,5.79-2.92,10.52-9.32,14.37-14.32a54.48,54.48,0,0,0,8.09-13.8,4.72,4.72,0,0,0,2,1c-1.45-3-5-4.6-6.42-7.62a42.37,42.37,0,0,1-2.23-6.1,17.8,17.8,0,0,0-5.33-8.17c-6.31-5.32-18.7-7.21-16.59-18,1.9-9.71,12.74-14.49,21.44-10.47,3.83,1.77,5.7,3.87,8.82,6.38a16.46,16.46,0,0,0,8.88,3.41c-1.55-1.08-3.11-2.1-4.62-3.22-.56-.4-2.1-2.11-2-2.7a1.46,1.46,0,0,0,0-.6c-.24-2,.54-3.32,1.18-5.09,2.33-6.41,1.76-12,1.12-18.63-.59-6,.46-11.33,6.23-14.26,6.5-3.31,16.53-2.41,20.44,4.27a21.35,21.35,0,0,1,2.39,12.44c-.16,2.25-.24,10.45-3.11,10.77a6.84,6.84,0,0,0-2.27.28c2.13.35,4.24.79,6.33,1.3,1.54.38,3.54,1.33,5.07,1.29-.89-1.22-2.93-1.85-3.48-3.32a1.73,1.73,0,0,1-.07-.6c.05-4.16,1.06-7.67,2.16-11.66a20.89,20.89,0,0,1,4-8.29c5.22-6.05,14.18-4.62,19.54.51s5.17,12.09,1.38,18.16c-1.46,2.34-3.13,4.53-4.59,6.87-.88,1.41-1.52,3.83-2.85,4.85a1,1,0,0,1-1.1.13c1.82,3.11,4.93,5,6.89,7.93-.2-.87-.42-1.73-.68-2.57,1.95-1,3.33-2.92,5.07-4.26a50.91,50.91,0,0,1,6.21-3.95c3.35-1.85,7.54-3,11.19-1.12a11.31,11.31,0,0,1,4.28,4.32,13.83,13.83,0,0,1,2,6.06A11.67,11.67,0,0,1,688.42,341.15Z"/>
              <path class="cls-28" d="M416.37,452.94c-2.09.8-4.31,1.24-6.43,2-2.5.85-5.52,2.56-4.19-1.85,1.26-4.2,5-8.12,8.49-10.45.06,0,0-.15-.05-.12a15.81,15.81,0,0,0-6.22,4.9c-1.61,2-4.93,5.76-4.91,8.44.05,4.67,6.64,2.6,10.91.65-1.17.54-.4,5.34-.1,6.24a11.62,11.62,0,0,0,2.8,4.7c-1.33-1.23-1.1-5.48-1.05-7.12a15.63,15.63,0,0,1,2.67-8.24A16.65,16.65,0,0,1,416.37,452.94Z"/>
              <path class="cls-28" d="M498.39,435c-.1-.08-.22.09-.13.17,2.77,2.82,5.92,6.1,7.82,9.57,1.42,2.59,2.31,5.42.37,7.94a3.52,3.52,0,0,1-2.33,1.64c-1,.2-3.9.23-4.63-.61,2,2.24,3.6,3.42,6.6,2.5a5.44,5.44,0,0,0,4.09-4.78C510.72,444.16,503.43,438.75,498.39,435Z"/>
              <path class="cls-28" d="M492.81,450.17c-.16-.09-.29.12-.18.25a23.46,23.46,0,0,1,4.9,10.47,23.08,23.08,0,0,1-.07,7.69c-.16.92-.38,2.6-1.26,3.16-1.42.9-2.17-1.14-3.38-1.71a11.53,11.53,0,0,1-2.45,6.41c.9-1.13,2.76-1.94,3.81-3.11,1.45,3,4.37-.33,5.06-1.86a16.1,16.1,0,0,0,1.15-8C499.92,458.31,497.36,453,492.81,450.17Z"/>
              <path class="cls-28" d="M486.5,468a71.6,71.6,0,0,1-4.62,6.69c-1.69,2.12-3.83,3.8-5.57,5.88-.17.21,0,.65.3.52,5.1-2.1,8.79-7.89,10-13A.07.07,0,0,0,486.5,468Z"/>
              <path class="cls-28" d="M385.36,664.88c-.9,1.24-1.8,2.47-2.74,3.66a8.56,8.56,0,0,1-3.37,2.91.94.94,0,0,1-.75.06,1.07,1.07,0,0,1-.46-.79c-.79-3.67.35-7.17,1.3-10.69A68.21,68.21,0,0,1,383,649.85c0-.05-.05-.1-.07,0-2,4.27-4.55,8.44-5.87,13-.67,2.31-2.21,6.73-.66,9,1.65,2.44,4,1.05,5.58-.69a17.09,17.09,0,0,0,2.19-3.22c.64-1.14,1-2.79,1.78-3.81Z"/>
              <path class="cls-28" d="M395.29,667.45a9.49,9.49,0,0,0-.12-2.57,6.48,6.48,0,0,1-1.35,2.6.84.84,0,0,1-.42.31.82.82,0,0,1-.64-.22c-2.58-2-2.54-5.43-2.52-8.35,0-2.32.24-4.66.34-7a.09.09,0,0,0-.17,0c-1.5,4.67-2.48,10.56.13,15.06.61,1.05,2.12,2.37,3.46,2.05C394.82,669.12,395.17,668.34,395.29,667.45Z"/>
              <path class="cls-28" d="M405.31,662.66a19.72,19.72,0,0,1-3.12-3.9,45.78,45.78,0,0,1-3.41-6.6,15.93,15.93,0,0,0,1.93,7c1.26,2.13,3.67,4.14,6.24,4.3A3,3,0,0,1,405.31,662.66Z"/>
              <path class="cls-28" d="M541.72,602.72a58.47,58.47,0,0,0-8.33-13.2c0-.07-.17,0-.14.08,1.4,4.37,4,8.07,6,12.15,1.32,2.65,2.37,5.54,1.66,8.53-1.43,6-6-.56-8-2.33a32.78,32.78,0,0,1,3,8.67,14.22,14.22,0,0,1-1.78,10,3.52,3.52,0,0,0,2.16-1.46,11.8,11.8,0,0,0,1.41-9.28c1.8.45,3.6-.47,4.75-3.71A12,12,0,0,0,541.72,602.72Z"/>
              <path class="cls-28" d="M527.46,618.22a14,14,0,0,0-1.52-2.8c2.49,5.27,1.43,10.8-.91,15.91a.25.25,0,0,0,.39.29C529,628.26,529.27,622.67,527.46,618.22Z"/>
              <path class="cls-28" d="M428.52,691.08c-17.18-8.5-37.88-9.57-56.5-6.48-.07,0,0,.14,0,.13,19.45-1.93,37.71,1.53,56.38,6.59C428.56,691.36,428.66,691.15,428.52,691.08Z"/>
              <path class="cls-28" d="M558.57,684.67c-16-5.17-36.61-2-50.39,7.63-.05,0,0,.15.06.12,7.73-3.12,15.65-6,23.91-7.36,8.8-1.44,17.55-.81,26.37,0C558.73,685,558.75,684.73,558.57,684.67Z"/>
              <path class="cls-26" d="M509.7,217.32c-2,.21-5,1.65-6.93,2.73,3.71-5.2,3.87-12.73,2.64-19-2-9.9-5.18-18.89-13.7-24.8,2.11.47,5.27.3,7.36.61a.26.26,0,0,0,.2-.48,38.6,38.6,0,0,0-25.89-8.24,22.92,22.92,0,0,0-13,4.74c-11.33,9.37-8.27,27.06-3.61,38.94,2.76,7,7.35,13.65,14.35,17,6,2.84,12.71,4.14,18.76,1a104.48,104.48,0,0,0,9.91-6.05c3.23-2.15,6.94-3.7,10.05-5.95C510.07,217.74,510,217.29,509.7,217.32Zm-10.29,5.09c-1.19.83-2.34,1.66-3.45,2.37-7.19,4.6-15.89,6.95-23.79,2.8-7.06-3.7-12.48-11.74-15-19.07-3.41-9.79-3.72-23.59,5.06-30.69s21.95-4.73,30.25,2.38A33,33,0,0,1,499.41,222.41Z"/>
              <path class="cls-26" d="M418.22,247.13c3.08-6.21,3.07-13.39,1.7-20.07-2.59-12.69-10.58-24.18-23.08-28.33a31.14,31.14,0,0,0-6.59-1.41c1.77-.26,3.38-1.06,5.16-1.36,1.22-.21,4.24-.76,5.33,0a17.93,17.93,0,0,0-9.82-2.85,37.39,37.39,0,0,0-10.22,1.55,39.58,39.58,0,0,0-12.67,6c-8.42,6-18.25,17.61-18.58,28.56a.2.2,0,0,0,.36.15c2.71-3.77,4.47-8.13,7.1-12-3.3,9.6-2.17,21.52,2,30a32.52,32.52,0,0,0,13.76,13.86,17.66,17.66,0,0,0,8,2.24,36,36,0,0,0-4.14,3.06c-.14.12,0,.38.18.3a97.38,97.38,0,0,1,21.86-7.43c6.91-1.44,13.64-2.47,20.33-4.74.14,0,.11-.29,0-.29-2.13,0-4.35.09-6.63.24A20.46,20.46,0,0,0,418.22,247.13Zm-10.89,8a71.81,71.81,0,0,0-21.76,5.72c-5.84.65-12.45.09-17.06-3.23-12.15-8.77-12.64-25.86-7.4-38.61a28.89,28.89,0,0,1,16.5-16.09c13.22-4.85,29.59,1,36.67,13.49A34.18,34.18,0,0,1,418.44,238a24.6,24.6,0,0,1-4.09,10.75C412.42,251.48,409.79,253,407.33,255.08Z"/>
            </g>
          </g>
          <g>
            <path class="cls-29" d="M428.54,241.22h0a172.65,172.65,0,0,0-11.69-44.45c-1.92-4.67-5.41-11.07-13.35-12.75a35.12,35.12,0,0,0-9.95-.28c-21.35,1.61-49.08,9.27-72.38,20-4.88,2.26-6.62,4.7-7.16,10.05-.84,8.36,2.5,17.61,5.45,25.76.45,1.25.89,2.46,1.3,3.63a186.1,186.1,0,0,0,7.14,17.59c.3.63.6,1.27.89,1.91a78.48,78.48,0,0,0,5.51,10.48,36.51,36.51,0,0,0,2.65,3.53,13.79,13.79,0,0,0,4.15,3.5,15,15,0,0,0,3.86,1.18,35.64,35.64,0,0,0,6.3.53c7.38,0,15.05-1.92,22-3.66l2.4-.6c8.69-2.14,37.38-12.83,43.88-17.61C426.82,254.68,429.51,249.06,428.54,241.22Z"/>
            <path class="cls-29" d="M549.46,202.77h0a74,74,0,0,0-1.45-11l-.36-2c-1-5.84-2.4-11.69-4-17.38-.32-1.13-.64-2.31-1-3.52-2.15-7.86-4.58-16.76-9.69-22.82-3.29-3.91-6-4.91-10.91-4.1a176,176,0,0,0-60.19,21.77,31.57,31.57,0,0,0-7.41,5.43c-5.15,5.52-4.35,12.35-3.3,17a165.81,165.81,0,0,0,15,40.6c3.79,7.22,8.31,10.17,16.11,10.51.57,0,1.15,0,1.72,0,6.94,0,13.79-1.76,20.75-3.73A161.49,161.49,0,0,0,527.09,226c5.73-2.57,13.59-6.09,18.67-11.18a13.38,13.38,0,0,0,2.31-3,12.83,12.83,0,0,0,1.28-4.93A32.35,32.35,0,0,0,549.46,202.77Z"/>
            <g class="cls-30">
              <path class="cls-31" d="M429.48,240.28h0a172.65,172.65,0,0,0-11.69-44.45c-1.92-4.67-5.41-11.07-13.35-12.75a35.12,35.12,0,0,0-9.95-.28c-21.35,1.61-49.08,9.27-72.38,20-4.88,2.26-6.62,4.7-7.16,10.05-.84,8.36,2.5,17.61,5.45,25.76.45,1.25.89,2.46,1.3,3.63a183.47,183.47,0,0,0,7.14,17.59c.3.63.6,1.27.89,1.91a78.48,78.48,0,0,0,5.51,10.48,36.51,36.51,0,0,0,2.65,3.53,13.79,13.79,0,0,0,4.15,3.5,15,15,0,0,0,3.86,1.18,35.64,35.64,0,0,0,6.3.53c7.38,0,15.05-1.92,22-3.66l2.4-.6c8.69-2.14,37.37-12.83,43.88-17.61C427.76,253.74,430.45,248.12,429.48,240.28Z"/>
              <path class="cls-31" d="M550.4,201.83h0a74,74,0,0,0-1.45-11l-.36-2c-1.05-5.84-2.4-11.69-4-17.38-.32-1.13-.64-2.31-1-3.52-2.15-7.86-4.58-16.76-9.69-22.82-3.29-3.91-5.95-4.91-10.91-4.1a176,176,0,0,0-60.19,21.77,31.57,31.57,0,0,0-7.41,5.43c-5.16,5.52-4.35,12.35-3.3,17a165.81,165.81,0,0,0,15,40.6c3.79,7.23,8.31,10.17,16.11,10.51.57,0,1.15,0,1.72,0,6.94,0,13.78-1.76,20.75-3.73A161.49,161.49,0,0,0,528,225.05c5.73-2.57,13.59-6.09,18.67-11.18a13.38,13.38,0,0,0,2.31-3,12.83,12.83,0,0,0,1.28-4.93A32.35,32.35,0,0,0,550.4,201.83Z"/>
            </g>
            <g class="cls-32">
              <path class="cls-33" d="M429.48,240.28h0a172.65,172.65,0,0,0-11.69-44.45c-1.92-4.67-5.41-11.07-13.35-12.75a35.12,35.12,0,0,0-9.95-.28c-21.35,1.61-49.08,9.27-72.38,20-4.88,2.26-6.62,4.7-7.16,10.05-.84,8.36,2.5,17.61,5.45,25.76.45,1.25.89,2.46,1.3,3.63a183.47,183.47,0,0,0,7.14,17.59c.3.63.6,1.27.89,1.91a78.48,78.48,0,0,0,5.51,10.48,36.51,36.51,0,0,0,2.65,3.53,13.79,13.79,0,0,0,4.15,3.5,15,15,0,0,0,3.86,1.18,35.64,35.64,0,0,0,6.3.53c7.38,0,15.05-1.92,22-3.66l2.4-.6c8.69-2.14,37.37-12.83,43.88-17.61C427.76,253.74,430.45,248.12,429.48,240.28Z"/>
              <path class="cls-33" d="M550.4,201.83h0a74,74,0,0,0-1.45-11l-.36-2c-1.05-5.84-2.4-11.69-4-17.38-.32-1.13-.64-2.31-1-3.52-2.15-7.86-4.58-16.76-9.69-22.82-3.29-3.91-5.95-4.91-10.91-4.1a176,176,0,0,0-60.19,21.77,31.57,31.57,0,0,0-7.41,5.43c-5.16,5.52-4.35,12.35-3.3,17a165.81,165.81,0,0,0,15,40.6c3.79,7.23,8.31,10.17,16.11,10.51.57,0,1.15,0,1.72,0,6.94,0,13.78-1.76,20.75-3.73A161.49,161.49,0,0,0,528,225.05c5.73-2.57,13.59-6.09,18.67-11.18a13.38,13.38,0,0,0,2.31-3,12.83,12.83,0,0,0,1.28-4.93A32.35,32.35,0,0,0,550.4,201.83Z"/>
            </g>
            <g class="cls-34">
              <g>
                <path class="cls-4" d="M395.1,215.08c-1,8.8-2,17.59-3.21,26.37-1.05,7.84-2.35,15.66-3.44,23.49,2.27-.82,4.62-1.7,7-2.61,2.59-10.61,4.8-21.32,7.55-31.89,2.63-10.1,6-20,8.53-30.1-.22-.55-.42-1.1-.65-1.64-2.11-5.12-4.42-7.51-8-8.26a18.21,18.21,0,0,0-3.78-.34c-.52,0-1.06,0-1.59.05C397,198.48,396.09,206.79,395.1,215.08Z"/>
                <path class="cls-4" d="M359.56,197.05c-1.25,4.23-2.58,8.44-3.95,12.64-1.28,3.93-2.63,7.85-3.86,11.8s-2.34,8.21-3.44,12.32Q345,246,342.22,258.31c-.62,2.66-1.2,5.33-1.78,8,.35.6.7,1.19,1.07,1.76a29.19,29.19,0,0,0,2.1,2.8,7.14,7.14,0,0,0,1.8,1.65,8.49,8.49,0,0,0,1.82.51,28.56,28.56,0,0,0,5,.41,62.86,62.86,0,0,0,13.57-1.84q3.28-12.43,6.55-24.88c2.65-10.12,5.07-20.32,8.1-30.33,2.57-8.53,5.48-16.94,8.21-25.42A198.45,198.45,0,0,0,359.56,197.05Z"/>
              </g>
              <g>
                <path class="cls-4" d="M518.87,154c-.72,14.19-1.42,28.35-1.54,42.56-.07,8.19,0,16.38.27,24.57l1.6-.58c.14-.9.28-1.79.43-2.68,3.44-20.49,8.59-40.65,12.5-61a27.07,27.07,0,0,0-4-6.82c-1.42-1.69-1.75-1.69-2.31-1.69a10.38,10.38,0,0,0-1.64.16c-1.72.28-3.43.6-5.13.93Q519,151.69,518.87,154Z"/>
                <path class="cls-4" d="M488.59,158.51c-2.3,13.26-4.34,26.57-6.34,39.87q-2.17,14.55-4.39,29.08a11.31,11.31,0,0,0,5.66,1.39c.46,0,.93,0,1.39,0,5.46,0,11.12-1.34,16.93-2.94.53-3.6,1.12-7.19,1.67-10.78,1.57-10.3,3.17-20.59,4.9-30.86,1.6-9.52,3.14-19.07,5.39-28.46.44-1.86.91-3.74,1.35-5.63A166.89,166.89,0,0,0,488.59,158.51Z"/>
              </g>
            </g>
            <path class="cls-6" d="M556.11,198.89c-.17-6.13-1.66-14.22-2.74-20.26-.2-1.15-3.38-13.6-3.28-13.65,2.55-1.34,2.29-5.62,1.89-7.91a63.17,63.17,0,0,0-4.7-15.34c-2-4.56-3.33-9-9-8.77a154.79,154.79,0,0,0-19.66,2.22c-20.1,3.37-40.07,11.59-57.86,21.24-5,2.71-14.31,7.52-15.26,13.81a37.21,37.21,0,0,0-.1,8.76c-8.23-1.62-19.89,1-24.83,7.9a40.77,40.77,0,0,0-5.87-8.2c-4.75-4.93-16.11-3.51-22.27-2.87-22,2.28-49.89,9.92-70.05,19.08a170.13,170.13,0,0,0-19,9.9c-5.28,3.24-3.68,7.89-2.7,13.1a66.3,66.3,0,0,0,5.28,16.23c1.06,2.23,3.49,6.13,6.6,5.77.12,0,5,12.77,5.51,13.9,2.77,5.92,6.45,13.89,10.09,19.33,3,4.54,4.73,7.86,9.29,11.24,3.86,2.87,9.88,3.23,14.57,2.76,6.47-.65,11.77-2,18.14-3.34,13.13-2.67,30.94-9.32,43.06-15.06,9-4.26,22-10.57,22.58-21.64.66-12.16-2.54-24.34-5.73-36-.47-1.71-1-3.42-1.49-5.13a18.93,18.93,0,0,1,9.62-7.12,21.91,21.91,0,0,1,7.26-1.69,11.56,11.56,0,0,1,4,.8c.58,1.81,1.2,3.61,1.84,5.4,3.81,10.68,8.4,22.82,15.4,31.92,6.38,8.27,19.08,5.38,28.13,4A150,150,0,0,0,530.14,229a174.74,174.74,0,0,0,16.19-7.67c3.79-2.08,7.41-4.66,8.79-8.89C556.74,207.44,556.24,204,556.11,198.89Zm-137,58.29c-6.19,4.55-34.54,15.13-43,17.23-9.2,2.27-20.22,5.4-29.73,3.69a11.37,11.37,0,0,1-3.21-1,11.19,11.19,0,0,1-3.43-2.92,33.51,33.51,0,0,1-2.46-3.29,92.79,92.79,0,0,1-6.24-12.1,184.1,184.1,0,0,1-7.06-17.37c-2.94-8.46-7.53-19.28-6.62-28.38.44-4.42,1.61-6.21,5.81-8.14,20.93-9.63,48.59-18.05,71.57-19.79a32.75,32.75,0,0,1,9.28.24c6.19,1.31,9.47,6,11.67,11.35a170.27,170.27,0,0,1,11.53,43.84C428.06,248,425.33,252.6,419.09,257.18ZM548,205.75a10.38,10.38,0,0,1-1,4,10.94,10.94,0,0,1-1.92,2.43c-4.66,4.67-11.9,8-17.95,10.69a160.35,160.35,0,0,1-22.05,7.5c-7.09,2-14.36,3.92-21.73,3.6-7.16-.31-10.88-3.06-14.13-9.25a163.73,163.73,0,0,1-14.77-40c-1.19-5.28-1.24-10.64,2.73-14.88a29.21,29.21,0,0,1,6.87-5,174.71,174.71,0,0,1,59.39-21.48c4.2-.69,6,.1,8.74,3.3,5.55,6.58,7.88,17.36,10.19,25.47a173.24,173.24,0,0,1,4,17.15,88.84,88.84,0,0,1,1.77,12.63A30.88,30.88,0,0,1,548,205.75Z"/>
            <path class="cls-22" d="M429,240.34c.95,7.64-1.69,13.13-8.81,18.36-6.46,4.75-35.05,15.4-43.71,17.53l-2.38.6c-6.83,1.71-14.57,3.64-21.93,3.64A34.79,34.79,0,0,1,346,280a13.39,13.39,0,0,1-3.73-1.14,13.05,13.05,0,0,1-4-3.38c-.56-.65-1.09-1.35-1.61-2.07.07.12.14.25.22.37a37,37,0,0,0,2.58,3.48,13.43,13.43,0,0,0,4,3.38,13.17,13.17,0,0,0,3.7,1.13,34.31,34.31,0,0,0,6.16.53c7.3,0,15-1.94,21.75-3.65l2.37-.59c8.59-2.13,36.95-12.79,43.37-17.54,7.06-5.23,9.67-10.72,8.73-18.35a171.61,171.61,0,0,0-6.12-28.94A170.78,170.78,0,0,1,429,240.34Z"/>
            <path class="cls-22" d="M309,235.1a64.75,64.75,0,0,1-5.09-15.77c-.1-.53-.21-1.06-.31-1.57-1-4.84-1.31-7.46,2.13-9.58a163.23,163.23,0,0,1,18.68-9.79c19.83-9.08,47.52-16.69,68.92-18.93l.74-.07a83.14,83.14,0,0,1,8.83-.61c5.4,0,9.09,1,11,3a38.62,38.62,0,0,1,5.55,7.82l1.44,2.55,1.7-2.39c3.71-5.23,11.77-7.57,18.11-7.57a24.39,24.39,0,0,1,4.64.43l2.43.49-.21-2.5a35.29,35.29,0,0,1,.09-8.31c.76-5.12,9.11-9.67,13.59-12.11l.6-.33c20.06-11,39.18-18.06,56.82-21a147.8,147.8,0,0,1,19.27-2.19h.34c3.39,0,4.48,2.15,6.26,6.28.19.46.39.92.6,1.39a62.52,62.52,0,0,1,4.53,14.88,14.11,14.11,0,0,1,.16,3.47c.62-1.15.63-3.34.3-5.24a61.77,61.77,0,0,0-4.56-14.89c-.21-.46-.41-.92-.61-1.38-1.79-4.13-2.89-6.28-6.3-6.28h-.35A152,152,0,0,0,518.89,137c-17.78,3-37.05,10.07-57.27,21l-.6.33c-4.52,2.44-12.93,7-13.7,12.11a35.38,35.38,0,0,0-.09,8.32l.22,2.49-2.46-.48a23.91,23.91,0,0,0-4.67-.43c-6.39,0-14.52,2.34-18.26,7.57l-1.7,2.39-1.46-2.55a38,38,0,0,0-5.6-7.82c-1.91-2-5.63-3-11.07-3a84.53,84.53,0,0,0-8.9.6l-.75.08c-21.56,2.23-49.47,9.84-69.46,18.92a167.37,167.37,0,0,0-18.83,9.79c-3.47,2.13-3.12,4.75-2.14,9.58.1.52.21,1.05.31,1.58a64.05,64.05,0,0,0,5.13,15.76,13.24,13.24,0,0,0,2.47,3.64A15.45,15.45,0,0,1,309,235.1Z"/>
            <path class="cls-22" d="M554.32,201.37c0-.78-.07-1.58-.09-2.43-.15-5.74-1.5-13.23-2.58-19.25l-.13-.73c-.08-.46-.83-3.48-1.49-6.15-.44-1.8-.9-3.64-1.23-5-.25-1-.43-1.78-.51-2.37-.78.66-.56,1.6.05,4.14.33,1.4.79,3.24,1.23,5,.65,2.67,1.39,5.7,1.47,6.16l.13.72c1.08,6,2.41,13.51,2.56,19.25,0,.85.06,1.66.09,2.43a30.06,30.06,0,0,1-.49,8.73h0C554.59,208,554.47,205.22,554.32,201.37Z"/>
            <path class="cls-22" d="M467.67,227.4c3.68,7.06,8.05,9.93,15.6,10.27.57,0,1.13,0,1.7,0,6.83,0,13.57-1.75,20.45-3.7a160.64,160.64,0,0,0,22.13-7.6c5.64-2.55,13.38-6,18.37-11.08a12.23,12.23,0,0,0,2.22-2.87,10.55,10.55,0,0,0,1-3,9.6,9.6,0,0,1-.55,1.24,12.19,12.19,0,0,1-2.23,2.86c-5,5.05-12.83,8.54-18.52,11.08a162.36,162.36,0,0,1-22.31,7.6c-6.93,1.95-13.72,3.71-20.6,3.71-.57,0-1.15,0-1.72,0-7.6-.33-12-3.21-15.72-10.26a165.44,165.44,0,0,1-14.93-40.48c-.08-.35-.16-.72-.23-1.09.14,1,.33,2,.53,2.86A166.36,166.36,0,0,0,467.67,227.4Z"/>
            <path class="cls-22" d="M332.33,276c-.45-.69-.91-1.41-1.42-2.17-3.39-5.11-6.8-12.46-9.53-18.37l-.34-.72c-.21-.45-1.41-3.56-2.47-6.3-2.79-7.24-3.25-8.44-4.11-8.63.57,1.24,1.38,3.32,2.76,6.85,1.06,2.75,2.27,5.85,2.49,6.31l.33.72c2.76,5.9,6.19,13.26,9.62,18.37.5.75,1,1.47,1.42,2.17.86,1.31,1.62,2.49,2.43,3.59Z"/>
          </g>
          <g>
            <path class="cls-35" d="M486.44,252a.66.66,0,0,0-.28,0,1.65,1.65,0,0,0-.71.23c-2.43,1.21-4.75,2.64-7.2,3.79l-1.28.62c-.55.27-1.34.85-1.05,1.58s1.38.55,2,.41a11.07,11.07,0,0,0,1.35-.42,22.81,22.81,0,0,0,2.68-1.3c.88-.5,1.74-1.05,2.59-1.62a5,5,0,0,0,2.16-2.39.84.84,0,0,0,.06-.54A.55.55,0,0,0,486.44,252Z"/>
            <path class="cls-35" d="M456.79,264.59a1.46,1.46,0,0,0-.69-.29,6.88,6.88,0,0,0-2.31.46c-.79.18-1.57.41-2.38.55a28.89,28.89,0,0,0-5.16,1,1.28,1.28,0,0,0-.49.29.45.45,0,0,0-.09.52.69.69,0,0,0,.33.23c3.15,1.28,6.9.38,10-.77.54-.2,1.15-.52,1.24-1.09A1,1,0,0,0,456.79,264.59Z"/>
            <path class="cls-35" d="M462.36,263.3c-.43-1-2.57-.11-3.29.15a2.09,2.09,0,0,0-.74.42.79.79,0,0,0-.24.78.78.78,0,0,0,.56.48,2,2,0,0,0,.77,0C460.21,265,462.89,264.58,462.36,263.3Z"/>
          </g>
          <path class="cls-35" d="M488.82,322.94a7.43,7.43,0,0,0-3.09-3.42c-1.26-.74-3.31-1.32-4.63-.37a1.89,1.89,0,0,0-.65,2.51c.57,1.1,1.86,1.67,2.66,2.59a8.2,8.2,0,0,1,.87,1.14,3.42,3.42,0,0,0,1.29,1.28c.21.21.42.42.62.64a1.6,1.6,0,0,0,2.49-.32,5.19,5.19,0,0,0,.42-.93l.08-.27c0-.11,0-.2.05-.28A2.84,2.84,0,0,0,488.82,322.94Z"/>
          <path class="cls-35" d="M478.84,318.13a2.31,2.31,0,0,0-.8-.67,3.91,3.91,0,0,0-1.23-.19,1.53,1.53,0,0,0-1.35.79c-.18.19-.28.42-.47.6a.82.82,0,0,0,.57,1.38,1.64,1.64,0,0,1,.35.1,1.49,1.49,0,0,0,1.33.26,2.83,2.83,0,0,0,1.54-.8A1,1,0,0,0,478.84,318.13Z"/>
        </g>
      </g>
    </g>
  </g>
</svg>
