<?xml version="1.0" encoding="UTF-8" standalone="no"?>
<svg
   viewBox="0 0 342.83306 397.13049"
   version="1.1"
   id="svg322"
   sodipodi:docname="strolch_mascot_head.svg"
   inkscape:version="1.1.2 (0a00cf5339, 2022-02-04)"
   width="342.83307"
   height="397.13049"
   inkscape:export-filename="/home/eitch/SynologyDrive/Graphics/Strolch/strolch_mascot_head.png"
   inkscape:export-xdpi="30.802162"
   inkscape:export-ydpi="30.802162"
   xmlns:inkscape="http://www.inkscape.org/namespaces/inkscape"
   xmlns:sodipodi="http://sodipodi.sourceforge.net/DTD/sodipodi-0.dtd"
   xmlns="http://www.w3.org/2000/svg"
   xmlns:svg="http://www.w3.org/2000/svg">
  <sodipodi:namedview
     id="namedview324"
     pagecolor="#ffffff"
     bordercolor="#666666"
     borderopacity="1.0"
     inkscape:pageshadow="2"
     inkscape:pageopacity="0.0"
     inkscape:pagecheckerboard="0"
     showgrid="false"
     inkscape:zoom="1.4142136"
     inkscape:cx="-10.606601"
     inkscape:cy="224.15284"
     inkscape:window-width="3440"
     inkscape:window-height="1319"
     inkscape:window-x="0"
     inkscape:window-y="32"
     inkscape:window-maximized="1"
     inkscape:current-layer="g315"
     fit-margin-top="0"
     fit-margin-left="0"
     fit-margin-right="0"
     fit-margin-bottom="0" />
  <defs
     id="defs29">
    <style
       id="style2">
      .cls-1 {
        isolation: isolate;
      }

      .cls-2, .cls-7, .cls-9 {
        font-size: 171.09px;
        font-family: Ubuntu-Bold, Ubuntu;
        font-weight: 700;
      }

      .cls-2, .cls-29, .cls-33 {
        fill: none;
      }

      .cls-2 {
        stroke: #baefa0;
        stroke-linejoin: round;
        stroke-width: 52.31px;
      }

      .cls-3, .cls-5 {
        fill: #baefa0;
      }

      .cls-13, .cls-14, .cls-22, .cls-35, .cls-4, .cls-9 {
        fill: #fff;
      }

      .cls-17, .cls-18, .cls-23, .cls-32, .cls-5 {
        mix-blend-mode: multiply;
      }

      .cls-6 {
        fill: #4f2a11;
      }

      .cls-21, .cls-23, .cls-7 {
        fill: #74b559;
      }

      .cls-8 {
        fill: #599a3e;
      }

      .cls-10 {
        fill: #9cd484;
      }

      .cls-11 {
        fill: #4c91c6;
      }

      .cls-12 {
        fill: url(#radial-gradient);
      }

      .cls-13, .cls-18, .cls-30, .cls-32 {
        opacity: 0.4;
      }

      .cls-14 {
        opacity: 0.41;
      }

      .cls-14, .cls-22, .cls-34, .cls-35 {
        mix-blend-mode: overlay;
      }

      .cls-15 {
        fill: url(#radial-gradient-2);
      }

      .cls-16 {
        fill: #fff9f6;
      }

      .cls-17 {
        fill: #ba9888;
        opacity: 0.35;
      }

      .cls-18 {
        fill: #a5968e;
      }

      .cls-19 {
        fill: url(#linear-gradient);
      }

      .cls-20 {
        fill: #e5c2a8;
      }

      .cls-22 {
        opacity: 0.43;
      }

      .cls-23, .cls-28, .cls-34 {
        opacity: 0.5;
      }

      .cls-24 {
        fill: #ff7182;
      }

      .cls-25 {
        fill: #725e5b;
      }

      .cls-26, .cls-28 {
        fill: #351905;
      }

      .cls-27 {
        fill: #5b1d0d;
      }

      .cls-29 {
        stroke: #fff;
        stroke-width: 7.52px;
      }

      .cls-29, .cls-33 {
        stroke-miterlimit: 10;
      }

      .cls-31 {
        fill: #cfe3ff;
      }

      .cls-33 {
        stroke: #cfe3ff;
        stroke-width: 15.97px;
      }
    </style>
    <radialGradient
       id="radial-gradient"
       cx="210.22"
       cy="-163.62"
       r="18.969999"
       gradientTransform="matrix(1.09,0,0,1,159.4,398.3)"
       gradientUnits="userSpaceOnUse">
      <stop
         offset="0"
         stop-color="#603e26"
         id="stop4" />
      <stop
         offset="0.29"
         stop-color="#5c3a23"
         id="stop6" />
      <stop
         offset="0.62"
         stop-color="#4e2f18"
         id="stop8" />
      <stop
         offset="0.96"
         stop-color="#381c08"
         id="stop10" />
      <stop
         offset="1"
         stop-color="#351905"
         id="stop12" />
    </radialGradient>
    <radialGradient
       id="radial-gradient-2"
       cx="290.48999"
       cy="-172.17"
       r="17.26"
       gradientTransform="matrix(1.09,0,0,1,155.31,379.31)"
       gradientUnits="userSpaceOnUse">
      <stop
         offset="0"
         stop-color="#603e26"
         id="stop15" />
      <stop
         offset="0.29"
         stop-color="#593821"
         id="stop17" />
      <stop
         offset="0.73"
         stop-color="#452711"
         id="stop19" />
      <stop
         offset="1"
         stop-color="#351905"
         id="stop21" />
    </radialGradient>
    <linearGradient
       id="linear-gradient"
       x1="498.70999"
       y1="132.21001"
       x2="677.48999"
       y2="552.03003"
       gradientUnits="userSpaceOnUse">
      <stop
         offset="0"
         stop-color="#fff"
         id="stop24" />
      <stop
         offset="1"
         stop-color="#fffae3"
         id="stop26" />
    </linearGradient>
  </defs>
  <g
     class="cls-1"
     id="g320"
     transform="translate(-236.00163,-121.85967)">
    <g
       id="g315"
       transform="translate(-10.177181,83.153401)">
      <path
         class="cls-4"
         d="m 517.17,222.55 c 0.53,1.46 1,3.18 0.2,4.49 a 5.16,5.16 0 0 1 -2.5,1.71 l -61.21,25.89 c -26.13,11.06 -52.38,22.15 -79.85,29.27 a 12.45,12.45 0 0 1 -5.53,0.56 c -3.63,-0.74 -5.84,-4.35 -7.54,-7.65 a 340.46,340.46 0 0 1 -20,-47.18 73,73 0 0 1 -3.95,-15.88 6.5,6.5 0 0 1 0.38,-3.61 c 0.7,-1.39 2.21,-2.13 3.62,-2.78 a 914.41,914.41 0 0 1 85.7,-33.72 c 14.54,-5 29.18,-9.66 43.86,-14.18 3.72,-1.14 7.43,-2.28 11.15,-3.39 2.57,-0.77 4.63,-1.51 6.59,0.67 1.96,2.18 3,5.54 4.27,8.06 q 2.55,5.08 5,10.23 10.99,23.28 19.81,47.51 z"
         id="path103" />
      <g
         id="g117">
        <g
           id="g113">
          <ellipse
             class="cls-11"
             cx="388.78"
             cy="234.62"
             rx="22.93"
             ry="23.209999"
             transform="rotate(-12.7,388.68595,234.57025)"
             id="ellipse105" />
          <ellipse
             class="cls-12"
             cx="388.75"
             cy="234.99001"
             rx="19.65"
             ry="19.889999"
             transform="rotate(-12.7,388.69088,234.93469)"
             id="ellipse107"
             style="fill:url(#radial-gradient)" />
          <ellipse
             class="cls-4"
             cx="393.41"
             cy="218.27"
             rx="6.1599998"
             ry="6.2399998"
             transform="rotate(-12.7,393.32161,218.25618)"
             id="ellipse109" />
          <ellipse
             class="cls-13"
             cx="378.28"
             cy="239.03"
             rx="2.5899999"
             ry="2.6199999"
             transform="rotate(-12.7,378.2313,239.00163)"
             id="ellipse111" />
        </g>
        <path
           class="cls-14"
           d="m 387.87,234.64 a 40.34,40.34 0 0 0 -11.22,5.05 c -5,3.51 -5.2,9.61 -0.21,13.33 a 16.37,16.37 0 0 0 8.56,2.84 26,26 0 0 0 16.26,-4 21.9,21.9 0 0 0 9.43,-13.7 c 1.57,-7.79 -3.8,-8.16 -9.83,-6.89 -4.38,0.89 -8.71,2.05 -12.99,3.37 z"
           id="path115" />
      </g>
      <g
         id="g131">
        <g
           id="g127">
          <ellipse
             class="cls-11"
             cx="472.67999"
             cy="206.8"
             rx="20.860001"
             ry="21.120001"
             transform="rotate(-12.7,472.60643,206.79243)"
             id="ellipse119" />
          <ellipse
             class="cls-15"
             cx="472.04001"
             cy="207.14"
             rx="17.870001"
             ry="18.1"
             transform="rotate(-12.7,471.93241,207.1268)"
             id="ellipse121"
             style="fill:url(#radial-gradient-2)" />
          <ellipse
             class="cls-4"
             cx="476.89001"
             cy="191.92"
             rx="5.6100001"
             ry="5.6799998"
             transform="rotate(-12.7,476.8125,191.88612)"
             id="ellipse123" />
          <ellipse
             class="cls-13"
             cx="463.13"
             cy="210.81"
             rx="2.3499999"
             ry="2.3800001"
             transform="rotate(-12.7,463.02051,210.77466)"
             id="ellipse125" />
        </g>
        <path
           class="cls-14"
           d="m 471.85,206.82 a 36.78,36.78 0 0 0 -10.21,4.59 c -4.55,3.2 -4.73,8.75 -0.19,12.13 a 14.89,14.89 0 0 0 7.79,2.58 23.58,23.58 0 0 0 14.8,-3.66 20,20 0 0 0 8.57,-12.46 c 1.43,-7.1 -3.46,-7.43 -8.94,-6.28 -3.98,0.84 -7.92,1.9 -11.82,3.1 z"
           id="path129" />
      </g>
      <path
         class="cls-16"
         d="m 534.95,394.53 c -0.10423,-0.78954 -0.16765,-1.58393 -0.19,-2.38 -0.09,-3.89 -1.21,-7 -2.51,-10.44 -0.28,-0.76 -0.58,-1.54 -0.88,-2.35 -1.16641,-3.23928 -1.89943,-6.61856 -2.18,-10.05 -0.08,-0.84 -0.13,-1.67 -0.19,-2.51 -0.06,-0.84 -0.11,-1.7 -0.19,-2.54 l -0.06,-0.77 c 0,-0.62 -0.09,-1.25 -0.19,-1.89 -0.1259,-0.99491 -0.46715,-1.95043 -1,-2.8 -1.74,-2.54 -5.08,-5 -7.95,-7.23 0.08,-3.25 0.46,-6.59 0.82,-9.87 0.19,-1.7 0.38,-3.36 0.52,-5 l 0.08,-1 -1,-0.06 c -2.46033,-0.13209 -4.83847,-0.93056 -6.88,-2.31 7.05406,2.08946 14.66513,1.05936 20.91,-2.83 9.7,-5.77 16.66,-16.71 20,-27.09 -0.25997,1.55007 -0.61395,3.0829 -1.06,4.59 l -0.41,1.37 1.41,-0.17 c 0.31328,-0.0431 0.62671,0.0778 0.83,0.32 1.69123,1.98201 4.16451,3.12548 6.77,3.13 h 0.17 c 5.05,0 10.73,-3.63 14.14,-7.27 4.40902,-4.80058 7.63784,-10.56317 9.43,-16.83 2,-7.06 3.21,-18 0.42,-27.5 l -0.07,-0.24 -0.17,-0.17 c -0.16706,-0.14462 -0.25602,-0.35962 -0.24,-0.58 l 0.07,-0.27 -0.09,-0.26 -0.3,-0.84 0.6,1.12 0.88,-1.16 c 1.75,-2.29 2.11,-5 1.06,-8.21 -1.43,-4.34 -5.1,-8.53 -8.51,-12.06 -5.20839,-5.31875 -11.47749,-9.48225 -18.4,-12.22 -6.93983,-2.63718 -14.13029,-4.56045 -21.46,-5.74 -2,-0.35 -4.4,-0.79 -6.78,-1.15 h -0.3 l -0.19,0.09 v 0 c -0.0579,-0.034 -0.11807,-0.064 -0.18,-0.09 l -0.27,-0.08 c -1.21,-0.17 -2.37,-0.32 -3.48,-0.44 h 0.39 l 2,-0.07 -1.32,-1.5 c -2,-2.25 -3.47,-5.6 -4.77,-8.56 -0.57,-1.29 -1.1,-2.52 -1.65,-3.58 -2.11219,-3.96817 -3.83684,-8.13077 -5.15,-12.43 l 0.83,-0.78 c 9.3969,-8.66395 16.94187,-19.1412 22.18,-30.8 3.23158,-7.69795 5.30086,-15.83353 6.14,-24.14 v -0.43 c 0.57117,-3.80493 0.76878,-7.6566 0.59,-11.5 -0.32,-4 0.21,-7.25 1.31,-8 0.15,-0.1 0.61,-0.41 1.8,0.19 0.59837,0.37187 1.12091,0.85369 1.54,1.42 0.72102,0.95094 1.64737,1.72689 2.71,2.27 2.86468,1.34508 5.96042,2.1292 9.12,2.31 8.46,0.35 9.53,-7.77 10.31,-13.69 l 0.07,-0.55 C 575.59,97.04 573.22,84.66 567.68,75.79 562.14,66.92 551.07,63 541.29,59.76 L 538,58.65 C 527.54781,55.024921 516.8551,52.13455 506,50 c -1.06,-0.21 -2.18,-0.45 -3.32,-0.7 -2.53,-0.56 -5.15,-1.13 -7.78,-1.45 -2.7095,-0.419123 -5.47162,-0.358194 -8.16,0.18 -6,1.39 -9.16,7 -11.95,11.93 l -0.68,1.2 c -5.35706,9.480235 -10.03545,19.328243 -14,29.47 -2,5 -3.64,10.24 -5.23,15.29 -1.3,4.15 -2.65,8.45 -4.19,12.59 v 0 l 1.76,0.65 c -0.0771,0.23643 -0.26934,0.41732 -0.51,0.48 1.1,-0.15 8,2.16 8.92,2.6 2.28,1.06 3.91,2.18 4.51,3.93 -3.77,-3.84 -10.67,-5.8 -20.13,-5.7 -4.27343,0.13062 -8.52376,0.67992 -12.69,1.64 -1.47,0.3 -2.89,0.73 -4.27,1.15 l -1.1,0.33 c -0.3554,0.0969 -0.71597,0.17365 -1.08,0.23 3,-2.42 6,-4.92 8.81,-7.53 3.15,-2.89 6.29,-6.13 7.9,-10.19 0.44241,-0.82026 0.40411,-1.81614 -0.1,-2.6 -0.33411,-0.41761 -0.81187,-0.69571 -1.34,-0.78 -0.31061,-0.0508 -0.62546,-0.0709 -0.94,-0.06 -3.65,0.08 -6.76,1.18 -10.15,2.5 -11,4.25 -18.18,12 -25.81,20.11 l -2.38,2.53 c 0.22,-0.86 0.46,-1.74 0.7,-2.63 2.09,-7.82 4.26,-15.9 1.23,-23.84 -0.15432,-0.55068 -0.51166,-1.02237 -1,-1.32 -0.61299,-0.215117 -1.2847,-0.190106 -1.88,0.07 -2.77,1.13 -4.62,3 -6.75,5.39 -1.84897,2.08586 -3.53714,4.3089 -5.05,6.65 -5.51,8.38 -8.73,18 -11.6,27.62 0.05,-0.74 0.11,-1.52 0.2,-2.34 v -0.19 l -0.13,-0.37 -0.05,-0.06 c -11.86,-25.31 -32.12,-44 -50.37,-59 C 318.1,70.17 308.16,62.16 297.67,55.24 292.33546,51.686689 286.76601,48.499371 281,45.7 l -0.49,-0.23 c -5.91,-2.85 -13.28,-6.39 -20,-4.12 -6.41,2.16 -10.2,7.89 -11.59,17.51 -0.60345,5.06285 -0.82741,10.163743 -0.67,15.26 v 4.6 c -0.27693,13.104158 0.10355,26.21396 1.14,39.28 0.54,6.42 1.29,12.79 2.23,18.93 2.19857,14.61961 5.79162,28.99518 10.73,42.93 4.90365,13.85981 11.44675,27.08365 19.49,39.39 4.06605,6.16 8.54991,12.03379 13.42,17.58 2.41,2.74 5,5.47 7.69,8.13 0.64,0.63 1.32,1.21 2,1.77 0.68,0.56 1.32,1.14 1.93,1.73 0.88758,0.98271 1.38547,2.25588 1.4,3.58 0.52667,4.3 1.06333,8.60333 1.61,12.91 0.2489,2.35344 0.63287,4.69063 1.15,7 0.1,0.39 0.17,0.8 0.24,1.19 0.07,0.39 0.18,1 0.31,1.52 -1.09,1.07 -2.2,2.11 -3.31,3.15 -1.11,1.04 -2.51,2.36 -3.75,3.58 -2.97003,2.85767 -5.68066,5.97322 -8.1,9.31 -2.71555,3.67574 -4.90031,7.71535 -6.49,12 -0.42299,1.0845 -0.75742,2.20149 -1,3.34 -1.1,5.6 2.05,7.47 4.89,8.05 1.91,0.4 4.12,-0.37 5.9,-1 l 0.75,-0.26 c 6.36,-2.12 13,-6.44 20.34,-13.15 -1.33425,2.72305 -2.44782,5.54879 -3.33,8.45 -1.42059,4.87193 -2.12133,9.92536 -2.08,15 -0.0582,2.32356 0.28,4.64004 1,6.85 0.40702,1.50423 1.47326,2.74327 2.9,3.37 0.34046,0.1151 0.6926,0.19223 1.05,0.23 3.23,0.25 6.27,-3.13 8.29,-5.36 0.19,-0.23 0.38,-0.43 0.55,-0.62 2.98934,-3.3058 5.50964,-7.00717 7.49,-11 l 0.23,0.7 c 1.27,3.85 2.7,8.21 5.59,11.19 l 1.41,1.45 0.2,-2 c 0.97947,-9.59115 4.1032,-18.83928 9.14,-27.06 -6,12.09 -10.38,25.91 -8.1,41.31 1.47,10 5.36,18.35 11.54,24.93 4.44,4.73 11.52,9.22 17.43,8.75 0.23108,1.70039 0.35133,3.414 0.36,5.13 -0.13,4 -0.48,8 -0.69,12 -0.13,2.43 -0.28,4.86 -0.43,7.28 v 0.16 c 0,0.66 -0.12,1.39 -0.21,2.13 -0.30318,2.65626 -0.46673,5.3266 -0.49,8 l -0.68,0.78 c 41.01775,22.88959 72.40402,16.34289 162.96,-16.82 z M 461,173.66 c 4,-3.3 9,-4.28 12.45,-4.53 0.75,0 1.51,-0.08 2.26,-0.08 7.54555,0.0985 14.89092,2.44137 21.1,6.73 h -0.84 c -1.35778,-0.0136 -2.71222,-0.13737 -4.05,-0.37 l -4.72,-1.07 4,2.76 c 8.73,6.05 11.63,15.63 13.32,24.21 0.68,3.47 1.82,12.19 -2.49,18.23 l -2.37,3.33 -0.34,0.22 c -3.15355,2.18445 -6.42885,4.18768 -9.81,6 -5,2.57 -11.07,2.22 -17.93,-1.06 -7.54,-3.57 -11.71,-10.93 -13.89,-16.47 -2.47,-6.25 -9.44,-27.37 3.31,-37.9 z m -87.89,86.78 c -6.21,-3.45 -10.71,-8 -13.38,-13.45 -4.21,-8.63 -5,-20.4 -1.92,-29.29 l 2.24,-6.51 -3.91,5.67 c -1.24314,1.87598 -2.38802,3.81526 -3.43,5.81 -0.64,1.18 -1.29,2.38 -2,3.55 1.76,-9.55 10.14,-19.32 17.86,-24.81 3.75334,-2.69154 7.96535,-4.67726 12.43,-5.86 3.20797,-0.99143 6.54252,-1.5135 9.9,-1.55 1.83336,0.012 3.65543,0.28816 5.41,0.82 l -0.94,0.15 h -0.11 c -0.88595,0.16919 -1.75829,0.40315 -2.61,0.7 -0.82464,0.28626 -1.67061,0.50694 -2.53,0.66 l -7.47,1.06 7.5,0.8 c 2.17281,0.22718 4.31503,0.68647 6.39,1.37 11.3,3.75 19.69,14.08 22.46,27.63 1.55,7.6 1,14.15 -1.62,19.46 -1.32712,2.80832 -3.29696,5.26462 -5.75,7.17 l -2.72,1.93 3.32,-0.22 h 0.26 c -3.11,0.77 -6.25,1.38 -9.5,2 l -4.67,0.93 c -5.25245,1.08962 -10.39893,2.63891 -15.38,4.63 l 0.68,-0.44 -3,-0.13 c -2.63327,-0.0853 -5.20806,-0.79843 -7.51,-2.08 z"
         id="path133"
         sodipodi:nodetypes="cccccscccccccccccccccccsccccccccccccccccccscccccccccccccccccccccsccccccccccscccccccccccccccccccccccccccccccccccccccccccsccccscscccccccccccccccccccccccccccscccccccccccccccccccccccccccccccccccccccccccccccccc" />
      <path
         class="cls-17"
         d="m 424.71,219 c -0.39,-1.47 -0.83,-2.92 -1.32,-4.34 a 55.51,55.51 0 0 0 -12.82,-21.15 39.92,39.92 0 0 0 -21.7,-11.45 c -10.91,-1.71 -22.12,2.09 -30.62,8.92 a 46.36,46.36 0 0 0 -10.14,10.64 c -8.38,13 -6.42,30.91 0.48,44.16 a 42.39,42.39 0 0 0 18.22,18.33 18.55,18.55 0 0 0 8.47,2.32 9.19,9.19 0 0 0 7.61,-3.8 16.9,16.9 0 0 1 -9.79,-2.2 c -6.2,-3.45 -10.7,-8 -13.37,-13.45 a 40.21,40.21 0 0 1 -3.65,-20.7 c 0.48,-6.09 4,-11.57 8.11,-16 7.95,-8.68 20.63,-14.54 32.35,-10.64 11.3,3.75 19.69,14.08 22.46,27.63 1.55,7.6 1,14.15 -1.62,19.46 -1.69,3.43 -4.16,5.82 -7,8.33 2.3,-0.84 4.5,0.4 6.66,0 2.36,-0.49 4.11,-3.09 5.18,-5 5.14,-9.41 5.22,-20.7 2.49,-31.06 z"
         id="path135" />
      <path
         class="cls-17"
         d="m 507.67,218.9 c 2.52,-3 2.58,-10.3 2.7,-14 0.32,-10.06 -2.47,-20.09 -6.51,-29.08 a 51.36,51.36 0 0 0 -4.33,-8 35.51,35.51 0 0 0 -17.53,-13.39 28.12,28.12 0 0 0 -17.62,-0.6 C 450.92,158.15 447,173.43 447,186 a 57.89,57.89 0 0 0 13.07,37 24.09,24.09 0 0 0 5.39,5 24.76,24.76 0 0 0 8.92,3.1 25.82,25.82 0 0 0 10,0.23 c 3.45,-0.73 6.55,-2.55 9.59,-4.35 l 7.12,-4.22 c 1.84,-1.1 5,-2.22 6.46,-3.77 z m -5.67,0.61 -2.37,3.33 -0.34,0.22 a 101.13,101.13 0 0 1 -9.81,6 c -5,2.57 -11.07,2.22 -17.93,-1.06 -7.54,-3.57 -11.71,-10.93 -13.89,-16.47 -2.44,-6.22 -9.41,-27.34 3.34,-37.87 4,-3.3 9,-4.28 12.45,-4.53 0.75,0 1.51,-0.08 2.26,-0.08 a 38,38 0 0 1 21.1,6.73 h -0.84 a 25.11,25.11 0 0 1 -4.05,-0.37 l -4.72,-1.07 4,2.76 c 8.73,6.05 11.63,15.63 13.32,24.21 0.65,3.44 1.79,12.16 -2.52,18.2 z"
         id="path137" />
      <path
         class="cls-17"
         d="m 473.42269,430.68072 c 19.47,-5 38.81731,-11.03072 53.18731,-25.29072 7.39,-7.32 9.25,-14 5.6,-23.71 -0.28,-0.76 -0.58,-1.54 -0.88,-2.35 -0.18,-0.5 -0.35,-1 -0.51,-1.52 -5.58,6.93 -13.26,12.49 -20.66,16.92 -24.54,14.71 -52.93,20.78 -81.33,20.85 -18.23,0 -39.61,-2.6 -55.75,-12.48 0.44,0.27 -0.44,6.36 -0.84,7.07 21.58166,25.55667 73.55856,27.86434 101.18269,20.51072 z"
         id="path139"
         sodipodi:nodetypes="cccccccccc" />
      <path
         class="cls-19"
         d="m 583,326.5 c 0.32,-0.12 0.65,-0.22 1,-0.32 a 16.93,16.93 0 0 0 -3.49,0.34 c -0.32,0.55 -0.63,1.11 -0.9,1.69 A 12.83,12.83 0 0 1 583,326.5 Z"
         id="path155"
         style="fill:url(#linear-gradient)" />
      <path
         class="cls-20"
         d="M 516.55,143.9 A 83.82,83.82 0 0 0 534.7,111 c -9.8,-5.95 -19.59,-12.49 -26.31,-21.78 -0.83,-1.15 -9.14,-16 -11.21,-14.6 -2.54,1.72 -4.34,4.31 -6,6.89 a 122.73,122.73 0 0 0 -12.32,25.49 78.79,78.79 0 0 0 -3.47,12.72 c -0.11,0.66 -1.29,9.31 -1.33,9.31 a 50,50 0 0 1 28.64,3.51 c 5.88,2.57 11.17,5.67 12.87,12.4 z"
         id="path159" />
      <path
         class="cls-20"
         d="m 357,147.43 c -0.28,-0.35 -0.54,-0.71 -0.78,-1.07 q -3.32,-5 -6.85,-9.74 c -4.73,-6.39 -9.75,-12.54 -15,-18.54 -13.64,-15.7 -28.06,-33.92 -47,-43.34 -3,-1.47 -6.15,-2.78 -9.46,-2.64 -10.4,0.43 -8.83,13.87 -9.28,21.12 a 207.27,207.27 0 0 0 7.25,68.57 c 2.94,10.51 6.84,21 13.76,29.45 6.92,8.45 17.32,14.62 28.23,14.19 -4.37,0.17 3.67,-23.7 4.72,-25.54 4.24,-7.46 9.17,-13.82 16.36,-18.64 a 48.17,48.17 0 0 1 11,-5.48 c 3.15,-1.09 8.08,-3.34 11.36,-2.44 -0.92,-2.14 -2.85,-3.99 -4.31,-5.9 z"
         id="path161" />
      <path
         class="cls-21"
         d="m 532.33,381.64 c -0.35,-0.8 -0.68,-1.56 -1,-2.32 a 39.06,39.06 0 0 1 -2.18,-10.05 c -0.08,-0.84 -0.13,-1.67 -0.19,-2.51 -0.06,-0.84 -0.11,-1.7 -0.19,-2.54 l -0.06,-0.77 c 0,-0.62 -0.09,-1.25 -0.19,-1.89 a 6.8,6.8 0 0 0 -1,-2.79 c -0.73,-1.07 -2.87,-3.19 -4.79,-3.52 l -1.1,-0.19 v 5.22 l 0.71,0.17 a 1,1 0 0 1 0.7,0.54 0.52,0.52 0 0 1 -0.12,0.53 c -15.46,21.34 -41.08,35.2 -70.29,38 A 125.88,125.88 0 0 1 409,396.37 66,66 0 0 1 390.65,388.94 c -4.6,-2.82 -9.61,-6.32 -11.85,-10.88 l -0.39,-0.79 -0.81,0.33 a 10,10 0 0 1 -2.75,0.69 l -0.85,0.1 v 0.85 c 0.08,4.55 0,9.21 -0.24,13.85 -0.13,2.43 -0.28,4.86 -0.43,7.28 v 0.16 c 0,0.66 -0.12,1.39 -0.21,2.13 a 16.82,16.82 0 0 0 0,6.33 c 0.86,3 3.79,6.09 8.71,9.2 0.78,0.5 1.54,0.94 2.2,1.32 a 89.15,89.15 0 0 0 11.73,5.49 122.49,122.49 0 0 0 44.71,8.11 136,136 0 0 0 48,-8.71 110.61,110.61 0 0 0 37,-23.08 c 0.55,-0.52 1.13,-1.05 1.72,-1.58 2.64,-2.4 5.64,-5.11 6.74,-8.59 1.1,-3.48 -0.35,-6.63 -1.6,-9.51 z"
         id="path171" />
      <path
         class="cls-22"
         d="m 532.32,381.64 c -0.34,-0.81 -0.68,-1.59 -1,-2.32 a 39.06,39.06 0 0 1 -2.18,-10.05 c -0.08,-0.84 -0.13,-1.67 -0.19,-2.51 -0.06,-0.84 -0.11,-1.7 -0.19,-2.54 l -0.06,-0.77 c 0,-0.62 -0.09,-1.25 -0.19,-1.89 a 6.8,6.8 0 0 0 -1,-2.79 c -0.73,-1.07 -2.87,-3.19 -4.79,-3.52 l -1.1,-0.19 v 5.22 l 0.71,0.17 a 1,1 0 0 1 0.7,0.54 0.52,0.52 0 0 1 -0.12,0.53 c -15.46,21.34 -41.08,35.2 -70.29,38 a 125.88,125.88 0 0 1 -43.62,-3.15 63.26,63.26 0 0 1 -16,-6.07 62.61,62.61 0 0 1 -5.48,-4.16 c -2,-1.47 -6.52,-2.59 -7.87,-4.61 7,10.35 18,17.52 29.86,21.41 25.74,8.44 55.87,5.14 80,-6.18 7.86,-3.93 14.52,-9.49 22.3,-13.64 1.35,0.95 1.44,2.87 1.52,4.52 a 33.44,33.44 0 0 0 1.53,8.48 c 0.93,2.9 2.27,5.85 1.82,8.86 a 61.4,61.4 0 0 0 14.22,-11.45 11.16,11.16 0 0 0 2.84,-4.42 c 0.67,-2.35 -0.4,-5.06 -1.42,-7.47 z"
         id="path173" />
      <path
         class="cls-22"
         d="m 521.72,373.17 c 6,-7.49 10.39,-16.27 1,-17.92 l -1.1,-0.19 v 5.22 l 0.71,0.17 a 1,1 0 0 1 0.7,0.54 0.52,0.52 0 0 1 -0.12,0.53 c -15.46,21.34 -41.08,35.2 -70.29,38 -9.53,0.92 -18.66,0 -28.12,-0.51 a 70.49,70.49 0 0 1 -29.12,-8.12 c 2.73,4.47 8.12,6.44 13.16,7.85 17.25,4.82 35.42,6.75 53.19,4.55 17.77,-2.2 35.15,-8.62 49.46,-19.39 a 74.66,74.66 0 0 0 10.53,-10.73 z"
         id="path175" />
      <path
         class="cls-23"
         d="m 373.81,393.09 c -0.13,2.43 -0.28,4.86 -0.43,7.28 v 0.16 c 0,0.66 -0.12,1.39 -0.21,2.13 a 16.82,16.82 0 0 0 0,6.33 c 0.86,3 3.79,6.09 8.71,9.2 0.78,0.5 1.54,0.94 2.2,1.32 a 89.15,89.15 0 0 0 11.68,5.49 122.49,122.49 0 0 0 44.71,8.11 136,136 0 0 0 48,-8.71 112.54,112.54 0 0 0 28.4,-15.73 c 6.88,-5.26 16.74,-10.82 15.41,-20.84 -1.29,6.74 -6.78,11.82 -12.31,15.89 -25.9,19.06 -57.19,25.47 -88.76,25.22 -8.65,-0.07 -17.66,-0.22 -25.38,-4.15 -7.72,-3.93 -13.64,-12.79 -11.19,-21.1 a 286.2,286.2 0 0 0 50.77,4.45 c -11.29,-0.49 -22.67,-1.13 -33.63,-3.92 -10.96,-2.79 -21.58,-7.85 -29.36,-16.06 -2,-2.08 -4.73,-5.72 -0.46,-6.88 -2,-1.53 -4.33,-5.9 -7.25,-3.06 -2.14,2.08 -0.71,11.68 -0.9,14.87 z"
         id="path177" />
      <path
         class="cls-24"
         d="m 495.79,321.18 a 16.53,16.53 0 0 0 -10.43,-6 54.45,54.45 0 0 0 -15.35,-0.34 75.4,75.4 0 0 0 -15.72,3.32 c -1.73,0.57 -3.45,1.35 -5.11,2.09 a 46.11,46.11 0 0 1 -5.52,2.22 l -1.83,0.55 1.56,1.11 c 2.21,1.58 4.61,3.12 7.36,4.7 8.19,4.68 17,7.21 25.06,7.21 0.49,0 1,0 1.47,0 6.51,-0.25 12.32,-4.33 17.76,-12.46 0.29,-0.42 0.57,-0.85 0.84,-1.28 l 0.37,-0.6 z"
         id="path179" />
      <path
         class="cls-25"
         d="m 489,244.83 v 0 c -6.32,-7.18 -18.71,-5.4 -23.74,-4.3 a 84.24,84.24 0 0 0 -20.5,7.43 l -1.07,0.54 c -4.12,2.11 -8.39,4.29 -11.42,8 a 11.76,11.76 0 0 0 -2.53,8.92 20.72,20.72 0 0 0 7.57,13.28 44.35,44.35 0 0 0 21.13,8.93 30.3,30.3 0 0 0 4.29,0.3 c 12.08,0 25.41,-6.83 29.47,-19.86 2.04,-6.71 2.45,-16.79 -3.2,-23.24 z"
         id="path181" />
      <path
         class="cls-18"
         d="m 488.83,251.84 a 21.41,21.41 0 0 1 -5.45,3.51 c -13.73,6.78 -28.47,12.24 -43.79,12.73 a 18,18 0 0 1 -6,-0.56 7.32,7.32 0 0 1 -4.55,-3.7 c 0.53,1.16 -0.1,3.07 0.54,4.45 a 36.3,36.3 0 0 0 2.51,3.64 25.6,25.6 0 0 0 2.22,3.65 30.81,30.81 0 0 0 7.87,6.46 44.92,44.92 0 0 0 16.21,5.58 30.3,30.3 0 0 0 4.29,0.3 c 12.08,0 25.41,-6.83 29.47,-19.86 a 34.58,34.58 0 0 0 1.39,-8.21 21.75,21.75 0 0 0 -1,-9 17.85,17.85 0 0 0 -1,-2.16 l -1.5,-2.77 c 1.24,2.37 0.38,4.35 -1.21,5.94 z"
         id="path183" />
      <path
         class="cls-26"
         d="M 505.62,290.31 A 92.58,92.58 0 0 1 484.44,303 119.21,119.21 0 0 1 470.1,308.38 133,133 0 0 1 449,313 a 114.3,114.3 0 0 1 -15,1 h -2.49 l 1.87,1.64 c 0.9,0.78 1.78,1.61 2.64,2.41 0.86,0.8 1.95,1.83 3,2.71 1.05,0.88 1.81,1.5 2.59,2.1 l 0.63,0.49 0.59,-0.54 c 3.43,-3.21 9.32,-4.94 13.62,-6.21 a 62.9,62.9 0 0 1 17.62,-2.51 h 0.64 c 5.39,0 18,0 21.13,5.59 l 0.81,1.43 0.82,-1.41 c 1,-1.64 1.84,-3.24 2.49,-4.45 4.12,-7.63 5.89,-16.07 7.2,-24.07 l 0.4,-2.46 z"
         id="path185" />
      <path
         class="cls-27"
         d="m 440.05,313.83 q -2.9,0.15 -6,0.16 h -2.49 l 1.87,1.64 c 0.9,0.78 1.78,1.61 2.64,2.41 0.86,0.8 1.95,1.83 3,2.71 1.05,0.88 1.81,1.5 2.59,2.1 l 0.63,0.49 0.59,-0.54 a 11.36,11.36 0 0 1 1.05,-0.88 18,18 0 0 1 -3.88,-8.09 z"
         id="path187" />
      <path
         class="cls-27"
         d="m 505.62,290.31 a 89,89 0 0 1 -18.39,11.41 c 1.33,3.67 1.1,7.87 0.52,11.66 -0.09,0.55 -0.19,1.1 -0.29,1.66 3.68,0.76 7,2.14 8.37,4.64 l 0.81,1.43 0.82,-1.41 c 1,-1.64 1.84,-3.24 2.49,-4.45 4.12,-7.63 5.89,-16.07 7.2,-24.07 l 0.4,-2.46 z"
         id="path189" />
      <path
         class="cls-17"
         d="m 585.72,260.79 -0.17,-0.17 a 0.7,0.7 0 0 1 -0.24,-0.58 l 0.07,-0.27 -0.09,-0.26 -0.3,-0.84 0.6,1.12 0.88,-1.16 c 3.13,-4.09 1.33,-8.08 -1.43,-11.56 a 3.63,3.63 0 1 1 -5.86,4.27 c 2.4,1.69 3.61,4.61 4.35,7.46 a 37.94,37.94 0 0 1 -11.85,37.59 c -2.6,2.21 -8.65,6.09 -11.6,2.59 a 9.37,9.37 0 0 1 -1.42,-2.78 l -4.26,-11.43 a 8.84,8.84 0 0 1 -5.66,8.48 c 0.56,-6.9 -1.5,-15.47 -5.43,-21.17 -4.72,-6.86 -10.52,-9.1 -17.58,-12.57 5.63,2.77 9.81,8 12.22,13.78 2.41,5.78 3.2,12.15 3.32,18.42 0.19,9.55 -1.6,18.36 -7.3,26.14 -5.35,7.28 -15.07,10.43 -23.81,11.47 2.18,9.39 19,4.16 23.93,1.21 9.7,-5.77 16.66,-16.71 20,-27.09 A 38.77,38.77 0 0 1 553,308 l -0.41,1.37 1.41,-0.17 a 0.92,0.92 0 0 1 0.83,0.32 8.92,8.92 0 0 0 6.77,3.13 h 0.17 c 5.05,0 10.73,-3.63 14.14,-7.27 a 41.92,41.92 0 0 0 9.43,-16.83 c 2,-7.06 3.21,-18 0.42,-27.5 z"
         id="path191" />
      <path
         class="cls-17"
         d="m 367.73,121 c 1.62,2.28 3.24,4.52 4.77,6.79 A 8.68,8.68 0 0 0 367.73,121 Z"
         id="path193" />
      <path
         class="cls-17"
         d="m 338.32,186 c 0.78,-1 1.54,-2 2.26,-3 -0.8,1 -1.58,2 -2.26,3 z"
         id="path195" />
      <path
         class="cls-17"
         d="m 435.8,284.49 a 29.37,29.37 0 0 0 10.53,6.78 c 12.35,4.56 28.9,1.42 37.95,-8.37 4.6,-5 5.79,-10.23 7.85,-16.47 a 28.3,28.3 0 0 1 -11.2,15.07 c -2.56,1.71 -6.07,3 -8.6,1.22 -1.6,-1.1 -2.31,-3.08 -2.89,-4.93 q -2.34,-7.47 -4,-15.14 a 46.85,46.85 0 0 1 -24,5.26 c -2.86,-0.14 -10.29,-3.65 -12.34,-2.37 -3,1.85 -0.22,8.17 0.78,10.42 a 28.75,28.75 0 0 0 5.92,8.53 z"
         id="path197" />
      <path
         class="cls-17"
         d="m 512.64,268.33 a 16.84,16.84 0 0 0 -4.78,-0.21 c 2.06,0.91 4.46,2.39 4.26,4.62 a 5.11,5.11 0 0 1 -1,2.29 c -6.1,9.21 -15.56,15.82 -25.72,20.18 -10.16,4.36 -21.06,6.66 -31.92,8.73 -7.91,1.51 -16.27,2.89 -23.87,0.22 -2.09,-0.74 -4.22,-1.92 -5.11,-3.94 -0.89,-2.02 0.21,-5 2.41,-5.15 -10.67,5.76 -16.53,18.27 -16.77,30.4 -0.09,4.35 0.35,9.07 -2.08,12.68 a 2.43,2.43 0 0 1 -1.77,1.27 c -1,0 -1.73,-1 -2.18,-1.9 a 35.39,35.39 0 0 1 -2.17,-25.32 c -1.25,4.25 -3.46,8.07 -4.43,12.49 -0.97,4.42 -1,8.67 -2,13 -1,4.33 -2.21,9.4 -6.27,11.26 -4.36,2 -9.67,-1.16 -11.74,-5.48 -2.07,-4.32 -1.77,-9.35 -1.43,-14.13 a 37.22,37.22 0 0 1 -12.79,20.43 6.62,6.62 0 0 1 -3.28,1.63 c -2.62,0.28 -4.63,-2.24 -5.84,-4.59 -5,-9.79 -5.91,-21.36 -4,-32.19 0.56,-3.14 0.87,-5.91 2.18,-8.9 a 113,113 0 0 1 10.32,-18.45 c -2.5,3.62 -6,6.23 -8.78,9.57 a 61.84,61.84 0 0 0 -7.16,10.41 c -1.41,2.65 -1.84,5.83 -5.53,6.07 -2.28,0.15 -3.64,-2.52 -4,-4.78 a 22.3,22.3 0 0 1 -0.14,-5.94 78.62,78.62 0 0 1 -4.58,12 c -2.33,4.89 -6,10.08 -11.4,10.48 a 2.36,2.36 0 0 1 -1.5,-0.29 2.58,2.58 0 0 1 -0.74,-2.12 69,69 0 0 1 9.17,-36 49.85,49.85 0 0 1 -24.64,19.19 c -1.77,0.62 -4.2,0.92 -5.1,-0.72 a 3.93,3.93 0 0 1 -0.33,-2 c 0.25,-7.9 4,-15.38 9.31,-21.26 4.68,-5.24 10.48,-9.33 16.51,-12.94 a 5.21,5.21 0 0 1 -4.28,-1.45 c -4.34,-4.46 -1.82,-15.18 0,-20.28 a 33.81,33.81 0 0 1 13.59,-17.13 48.21,48.21 0 0 1 5.26,-44.08 64.94,64.94 0 0 1 -9,9.31 11.26,11.26 0 0 1 -4.54,2.65 4.31,4.31 0 0 1 -4.67,-1.66 6.06,6.06 0 0 1 -0.27,-4.19 50.56,50.56 0 0 1 61.26,-39.87 c -2.14,-5.35 -0.11,-11.36 1.91,-16.76 3.74,-10 7.51,-20 13.11,-29.09 1.66,-2.68 3.89,-5.53 7,-5.78 1.74,2.36 1.73,5.55 1.5,8.47 a 89.81,89.81 0 0 1 -7.35,29.13 198.28,198.28 0 0 1 33,-31.77 c -3.9,3 -9.57,5.55 -13.85,8.22 -4.68,2.93 -8.16,6.54 -12,10.6 l -2.38,2.53 c 0.22,-0.86 0.46,-1.74 0.7,-2.63 2.09,-7.82 4.26,-15.9 1.23,-23.84 a 2.26,2.26 0 0 0 -1,-1.32 2.57,2.57 0 0 0 -1.88,0.07 c -2.77,1.13 -4.62,3 -6.75,5.39 a 55.15,55.15 0 0 0 -5.05,6.65 c -5.51,8.38 -8.73,18 -11.6,27.62 0.05,-0.74 0.11,-1.52 0.2,-2.34 v -0.19 l -0.13,-0.37 -0.05,-0.06 a 65.2,65.2 0 0 0 -5.24,-9 9.9,9.9 0 0 1 -1.14,6.45 c -2.61,4.45 -8.31,6.5 -13.42,5.75 a 12.43,12.43 0 0 1 -5.11,-1.87 21.11,21.11 0 0 1 -4.95,-5.48 c -15.77,-21.8 -36.9,-39 -57.77,-56 12.19,9.92 24.19,19.85 34.24,32 a 115.88,115.88 0 0 1 13.15,19.47 c 2.83,5.36 10.08,14.15 7.14,20.38 a 14.37,14.37 0 0 1 -2.2,3.07 l -29.37,34 a 5.42,5.42 0 0 1 -2.48,1.93 5.07,5.07 0 0 1 -2.5,-0.14 34.06,34.06 0 0 1 -12.9,-6.26 c -10.26,-8 -15,-21.16 -18.12,-33.81 A 229.16,229.16 0 0 1 271,75.48 c -3.5,12.49 -2.72,25.73 -1.91,38.67 0.77,12.28 1.55,24.6 3.77,36.7 A 155.38,155.38 0 0 0 286.1,191 c -5.09,0.14 -8.81,-4.64 -11.26,-9.11 -9.31,-17 -13.16,-36.43 -15.86,-55.64 A 544.54,544.54 0 0 1 253.82,62 c -0.16,-7.93 0.52,-17.2 7.1,-21.62 -7.91,1.5 -11,11.58 -12,18.48 a 102.26,102.26 0 0 0 -0.67,15.26 c 0,1.65 0,3.2 0,4.6 a 392,392 0 0 0 1.14,39.28 c 0.54,6.42 1.29,12.79 2.23,18.93 a 231.65,231.65 0 0 0 10.73,42.93 184.45,184.45 0 0 0 19.49,39.39 161.38,161.38 0 0 0 13.42,17.58 c 2.41,2.74 5,5.47 7.69,8.13 0.64,0.63 1.32,1.21 2,1.77 0.68,0.56 1.32,1.14 1.93,1.73 a 5.43,5.43 0 0 1 1.4,3.58 q 0.79,6.45 1.61,12.91 a 61.76,61.76 0 0 0 1.15,7 c 0.1,0.39 0.17,0.8 0.24,1.19 0.07,0.39 0.18,1 0.31,1.52 -1.09,1.07 -2.2,2.11 -3.31,3.15 -1.11,1.04 -2.51,2.36 -3.75,3.58 a 69.68,69.68 0 0 0 -8.1,9.31 48.71,48.71 0 0 0 -6.49,12 21.55,21.55 0 0 0 -1,3.34 c -1.1,5.6 2.05,7.47 4.89,8.05 1.91,0.4 4.12,-0.37 5.9,-1 l 0.75,-0.26 c 6.36,-2.12 13,-6.44 20.34,-13.15 a 56.68,56.68 0 0 0 -3.33,8.45 52.07,52.07 0 0 0 -2.08,15 20.46,20.46 0 0 0 1,6.85 5.15,5.15 0 0 0 2.9,3.37 4.88,4.88 0 0 0 1.05,0.23 c 3.23,0.25 6.27,-3.13 8.29,-5.36 0.19,-0.23 0.38,-0.43 0.55,-0.62 a 48.59,48.59 0 0 0 7.49,-11 l 0.23,0.7 c 1.27,3.85 2.7,8.21 5.59,11.19 l 1.41,1.45 0.2,-2 a 64.3,64.3 0 0 1 9.14,-27.06 c -6,12.09 -10.38,25.91 -8.1,41.31 1.47,10 5.36,18.35 11.54,24.93 a 31.2,31.2 0 0 0 9.77,7.12 17.81,17.81 0 0 0 4.58,1.55 c 0.88,0.13 5.65,-0.79 6,-0.44 9.8,9.77 22.6,16.22 36,19.78 13.4,3.56 27.35,4.37 41.18,3.93 3.22,-0.1 6,0 8.94,-1.16 2.94,-1.16 6.08,-2.46 9.11,-3.7 -7,2.33 -15.35,-1.92 -19.54,-8.27 -4.55,-6.9 -5.46,-15.49 -6.25,-23.72 a 5.49,5.49 0 0 0 10.34,-3.21 23.93,23.93 0 0 0 37.94,-14.56 c -4.25,7.9 -13.91,12 -22.84,11.12 -8.93,-0.88 -17,-6.09 -23,-12.82 -6,-6.73 -10,-14.93 -13.44,-23.21 11.31,14.43 32,20.74 49.42,15.1 a 35.63,35.63 0 0 1 -18.07,-1.72 c -3.06,-1.13 -6.07,-2.79 -7.91,-5.47 -1.84,-2.68 -2.18,-6.6 -0.09,-9.1 1.59,-1.89 4.14,-2.61 6.56,-3.09 a 63.51,63.51 0 0 1 17.94,-1 c 5.68,0.49 12.68,3.36 12.54,9.06 q 8.44,-16.89 17.66,-33.37 c 1.88,-3.36 4,-6.91 7.49,-8.52 2.78,-1.29 6.6,-0.56 8.33,1.71 -3.23,-6.97 -9.12,-13.39 -16.72,-14.8 z"
         id="path199" />
      <path
         class="cls-17"
         d="m 512.9,267 a 5.06,5.06 0 0 0 -3.29,-1.24 30.38,30.38 0 0 1 3.29,1.24 z"
         id="path201" />
      <path
         class="cls-17"
         d="m 337.1,302.6 c 0.56,-1.91 1,-3.83 1.45,-5.78 a 22.18,22.18 0 0 0 -1.45,5.78 z"
         id="path203" />
      <path
         class="cls-17"
         d="m 563.75,116.61 c -0.36,0 -0.72,-0.07 -1.07,-0.12 -14.47,-1.91 -26.94,-10.83 -38.32,-19.95 -12.34,-9.9 -24.59,-20.88 -30.9,-35.39 a 28.79,28.79 0 0 0 -3.41,-6.62 c -1.56,-2 -4,-3.39 -6.49,-3 -2.49,0.39 -4.33,2.73 -5.61,5 a 34.43,34.43 0 0 0 -3.41,8.53 c 1,-3.37 5.87,-4.23 8.8,-2.28 2.93,1.95 4.2,5.61 4.74,9.09 a 34.37,34.37 0 0 1 -4.24,22.32 c 2.42,-2.87 5.11,-10.59 9.63,-10.84 1.84,-0.11 3.23,1.55 4.33,3 9,12.06 19.68,23 32.56,30.79 a 150.38,150.38 0 0 1 -15.54,23.48 113.86,113.86 0 0 0 -32.43,-11.25 c -1.82,-0.34 -3.83,-0.74 -4.92,-2.22 a 6.75,6.75 0 0 1 -1,-4 55.06,55.06 0 0 1 3.76,-20.15 c -1.93,5 -4,10.18 -8.07,13.66 -4.07,3.48 -10.73,4.52 -14.58,0.82 -4.19,-4 -3,-10.91 -1.44,-16.52 -0.83,3 -2.62,5.77 -3.33,8.91 a 66.14,66.14 0 0 1 -2.12,8.68 l 1.76,0.65 a 0.73,0.73 0 0 1 -0.51,0.48 c 0.81,-0.11 4.68,1.09 7.09,1.92 a 0.86,0.86 0 0 1 0.66,-0.13 c 4.19,0.76 7.33,5.57 7.32,9.76 0,-2.31 24.78,-0.31 26.63,0 7.39,1.3 14.87,4 19.94,9.53 5.07,5.53 7,14.41 2.93,20.71 -0.41,0.63 -1,1.29 -1.76,1.19 a 12.41,12.41 0 0 1 1.35,14.69 10.73,10.73 0 0 0 -1.63,2.91 7,7 0 0 0 0,2.84 46,46 0 0 0 2.33,8.78 c 0.17,0.44 9.41,-8.33 10.11,-9.33 2.75,-3.92 5.3,-8.25 7.73,-12.42 -0.86,2.8 -4.33,4.17 -7.17,3.47 -2.84,-0.7 -5.06,-3 -6.62,-5.44 a 22.32,22.32 0 0 1 -3.29,-13.91 12.76,12.76 0 0 1 0.72,-3.35 17.85,17.85 0 0 1 1.76,-3.24 253.54,253.54 0 0 0 16.85,-31.26 4.15,4.15 0 0 1 1.5,-2 c 1.19,-0.65 2.64,0 3.82,0.66 l 8.79,4.87 c 4.06,2.25 8.49,4.57 13.09,3.93 a 11.14,11.14 0 0 0 9.3,-10.32 c -2.01,2.84 -6.01,3.38 -9.64,3.07 z"
         id="path205" />
      <path
         class="cls-26"
         d="m 373,153.42 c -18.16,-5.66 -36.63,5.37 -46.91,20 -5.07,7.19 -10.94,17.18 -10.45,26.29 0.27,5 4.82,13.59 10.89,11.84 -0.56,6.94 1.07,13.59 5.9,18.94 0.33,0.37 0.87,-0.1 0.66,-0.5 -8.34,-16.09 -1.68,-33.19 7.93,-47 0,-0.06 -0.06,-0.13 -0.11,-0.08 -6.32,7.39 -12.09,15.22 -13.91,25.09 -0.09,0.49 -0.17,1 -0.24,1.48 -3.2,-1.62 -6,-2.62 -7.39,-6.47 -1.54,-4.41 0.05,-9.47 1.57,-13.69 a 60.2,60.2 0 0 1 11.33,-19.4 47.64,47.64 0 0 1 40.73,-16.2 c 0.16,0.02 0.18,-0.25 0,-0.3 z"
         id="path209" />
      <path
         class="cls-26"
         d="m 520.1,151.45 c -1.74,-7.46 -7.2,-13.93 -13.8,-17.66 -17.46,-9.88 -39.65,-5.11 -57,2.16 -0.07,0 0,0.15 0,0.12 a 96.39,96.39 0 0 1 30.95,-5 c 10.05,0.12 20.51,1.47 28.8,7.61 a 22.82,22.82 0 0 1 7.26,8.36 c 2.4,5.13 1.48,9.77 -1.8,14.12 a 14.63,14.63 0 0 0 -5.26,-2.92 c -0.1,0 -0.14,0.1 -0.06,0.16 3.79,2.91 7.66,8.81 7.76,13.72 0.12,5.73 -5.09,9.67 -10.56,5.82 -1.53,-1.08 -3,-2.28 -4.45,-3.47 -0.24,-0.2 -0.57,0.11 -0.34,0.34 2.27,2.28 6.3,7.17 9.92,7.21 3.08,0 5.6,-3.13 6.66,-5.68 a 13,13 0 0 0 -1.57,-12.9 c 3.98,-0.72 4.23,-8.76 3.49,-11.99 z"
         id="path211" />
      <path
         class="cls-28"
         d="m 544.89,274.19 a 31.51,31.51 0 0 0 -22.38,-17 0.09,0.09 0 0 0 0,0.17 c 17.9,7.29 29.31,27.54 21.78,46.35 0,0.12 0.15,0.2 0.2,0.09 4.33,-9.75 5.27,-19.9 0.4,-29.61 z"
         id="path213" />
      <path
         class="cls-28"
         d="m 415.82,358.72 c -6.86,-3.94 -11.74,-8.27 -14.41,-16 a 42.15,42.15 0 0 1 -1.1,-23.68 c 0,-0.11 -0.13,-0.15 -0.17,0 -3.05,8.62 -3.36,17.35 0.18,25.95 2.57,6.25 7.88,14.08 15.35,14.3 a 0.31,0.31 0 0 0 0.15,-0.57 z"
         id="path215" />
      <path
         class="cls-28"
         d="m 428.54,360.78 a 0.24186773,0.24186773 0 0 0 -0.48,0.06 c 0.21,3.5 -3.72,5.37 -6.55,6 A 17.24,17.24 0 0 1 412.46,366 c -5,-1.75 -9.24,-5.09 -13.42,-8.28 -0.06,0 -0.13,0 -0.09,0.09 4.07,6.95 10.9,12.32 19.19,12.77 6.3,0.32 12.18,-2.66 10.4,-9.8 z"
         id="path217" />
      <path
         class="cls-26"
         d="m 529.75,282.78 a 25.73,25.73 0 0 0 -5.32,-8.91 c -4.21,-4.49 -10.62,-7.15 -16.66,-6 2.59,0.48 8.32,1.94 8.66,5.1 0.3,2.73 -2.42,5.15 -4,7.11 a 61.19,61.19 0 0 1 -10.53,10.19 103,103 0 0 1 -26.9,15.12 94.93,94.93 0 0 1 -29.34,5.73 124.55,124.55 0 0 1 -13,-0.32 c -4,-0.27 -7.85,-0.5 -11.7,-2 a 2.15,2.15 0 0 1 -0.91,-0.53 c -0.59,-0.67 -0.24,-1.71 0.16,-2.51 a 39.43,39.43 0 0 1 7.21,-10 31,31 0 0 0 -14.22,18.52 29,29 0 0 0 -0.68,11.28 c 0.48,3.62 2.08,6.56 3.11,10 a 32.8,32.8 0 0 1 0.92,-21.4 1,1 0 0 1 1.39,-0.78 c 2.06,0.23 4,0.78 6.11,1 0.67,0.09 6.06,0.18 6.21,0.51 3.68,7.72 12.81,13.77 20.25,17.09 8.6,3.83 19.11,7.1 28.63,5.87 10.09,-1.3 16.46,-11.55 21.22,-19.63 5.3,-9 9.95,-19.05 9.93,-29.68 a 1.64,1.64 0 0 0 -0.3,-1 c 1.32,-1.27 2.59,-2.59 3.79,-4 2,-2.36 5.79,-5.52 6.16,-8.79 5.84,3.27 9.84,9.29 11.52,15.76 a 35.58,35.58 0 0 0 -1.71,-7.73 z m -52.5,52.32 c -9,0.36 -18.31,-2.65 -26,-7.06 a 85.57,85.57 0 0 1 -7.29,-4.65 c 3.61,-1.08 7.09,-3.13 10.65,-4.3 a 74.23,74.23 0 0 1 15.52,-3.29 54.56,54.56 0 0 1 15.1,0.33 15.65,15.65 0 0 1 9.88,5.67 c -4.29,6.69 -9.94,12.99 -17.86,13.3 z m 21.87,-20.3 c -0.76,1.41 -1.58,2.91 -2.47,4.42 -3.53,-6.29 -16.92,-6.07 -22.49,-6.07 a 63.53,63.53 0 0 0 -18,2.56 c -4.47,1.31 -10.42,3.06 -14,6.41 -0.87,-0.67 -1.72,-1.35 -2.55,-2.06 -1.94,-1.68 -3.71,-3.48 -5.61,-5.13 a 113.39,113.39 0 0 0 15.07,-1 129.62,129.62 0 0 0 35.74,-10.08 94.59,94.59 0 0 0 21.41,-12.85 c -1.35,8.26 -3.1,16.39 -7.1,23.8 z"
         id="path219" />
      <path
         class="cls-28"
         d="m 494.79,345.79 c -2.73,5.27 -8.81,9.73 -14.56,11.21 -7,1.78 -12.94,-1 -19.13,-3.85 0,0 -0.09,0 -0.06,0.06 3.92,6.18 12.43,7.9 19.23,6.46 7.67,-1.63 12.08,-6.75 14.8,-13.76 0.07,-0.17 -0.2,-0.28 -0.28,-0.12 z"
         id="path221" />
      <path
         class="cls-26"
         d="m 494.45,255.2 c -1,-5.49 -3.55,-11 -8.76,-13.5 -5.71,-2.78 -10.74,-3.09 -16.9,-2.24 -8.47,1.16 -18.38,4.81 -25.89,8.78 -6,3.18 -14.74,7.82 -14.89,15.67 -0.17,8.33 7.11,16 14,20 11.22,6.37 25.59,8.13 37.2,1.89 10.57,-5.73 17.44,-18.6 15.24,-30.6 z m -3.19,12.56 c -4.21,13.55 -19.24,20.83 -32.73,18.91 a 43.77,43.77 0 0 1 -20.68,-8.73 c -5.7,-4.54 -10.28,-14.34 -4.89,-20.88 3.16,-3.83 7.86,-6 12.19,-8.26 a 83.13,83.13 0 0 1 20.28,-7.35 c 7.58,-1.66 17.64,-1.88 22.83,4 5.19,5.88 5.18,15.29 3,22.31 z"
         id="path223" />
      <path
         class="cls-26"
         d="m 535.2,392.66 c 0.80687,-1.82679 1.07071,-3.84727 0.76,-5.82 -0.74,-4.59 -3.25,-9.11 -4.4,-13.66 -1.65,-6.46 -0.29,-18.89 -8.95,-20.82 0,-5.27 0.15,-10.53 0.58,-15.83 7,-0.77 14.26,-5.25 19.14,-9.78 4.44394,-4.11901 7.94402,-9.1508 10.26,-14.75 4.18,5.21 12,3.75 17,0.31 6.67,-4.57 11.8,-12 15,-19.33 4,-9.09 6.21,-21.68 2.59,-31.64 0.0935,-0.0983 0.17725,-0.20547 0.25,-0.32 3.33,-5.4 0.21,-12.32 -2.42,-17.34 -3.78,-7.21 -9.71,-12.43 -16.79,-16.38 -10.98656,-6.00953 -23.25099,-9.30451 -35.77,-9.61 -0.54,-1.7 -1.69,-3 -2.83,-4.63 -2.09104,-2.88911 -4.01744,-5.89389 -5.77,-9 -3.15,-6 -5.8,-12.29 -8.78,-18.33 0,-0.07 -0.13,0 -0.12,0.05 1.1358,6.84641 3.41778,13.45233 6.75,19.54 1.81,3.5 3.57,9 6.55,12.34 -4.99568,0.13669 -9.96017,0.83441 -14.8,2.08 v 0.09 c 5.76,-1.1 11.85,-0.69 17.77,0.15 0.12,0.06 0.24,0.13 0.37,0.18 0.19103,0.0847 0.40897,0.0847 0.6,0 2.29,0.35 4.55,0.75 6.76,1.15 7.28275,1.16165 14.42691,3.06832 21.32,5.69 6.79826,2.68845 12.95491,6.77698 18.07,12 4.16,4.31 12.09,12.89 7.39,19.05 -1.52735,-2.85693 -3.67279,-5.33716 -6.28,-7.26 -0.1,-0.08 -0.21,0.08 -0.13,0.17 2.28378,2.56936 4.01314,5.58211 5.08,8.85 -0.11088,0.54234 0.0759,1.10265 0.49,1.47 2.55,8.71 1.85,19.13 -0.42,27 -1.75195,6.12074 -4.90523,11.7494 -9.21,16.44 -4.55,4.84 -14.12,10.49 -19.7,4.16 -0.40565,-0.47213 -1.02347,-0.7057 -1.64,-0.62 1.42601,-4.67531 1.95531,-9.57806 1.56,-14.45 0,-0.14667 -0.22,-0.14667 -0.22,0 -2.13,20.31 -21.2,47.43 -44.7,37.65 -0.36,-0.16 -0.6,0.37 -0.36,0.62 2.56014,2.71887 6.07058,4.34514 9.8,4.54 -0.68,7.87 -2.49,17.12 -0.34,24.79 0.0222,0.0423 0.0423,0.0857 0.06,0.13 -15.78,21.84 -41.21,33.93 -67.82,36.2 -13.68561,1.18385 -27.47288,0.0273 -40.77,-3.42 -5.97427,-1.58006 -11.72854,-3.89789 -17.13,-6.9 -5.11,-2.86 -8.88,-7.17 -13.54,-10.48 1.19204,-0.93509 2.02548,-2.25235 2.36,-3.73 1.99562,2.23776 4.63751,3.79984 7.56,4.47 4.79,1 13.61,0.49 12.6,-6.46 -0.10592,-0.36572 -0.62408,-0.36572 -0.73,0 -1.43,8 -13.3,2.89 -17.09,-0.18 -3.79,-3.07 -5.54,-7 -8.32,-10.71 -0.05,-0.06 -0.14,0 -0.12,0.05 0.67623,3.65854 2.06598,7.14821 4.09,10.27 -5.7,9.2 -17.74,2 -23.46,-4.13 -6.39,-6.81 -9.92,-15.21 -11.29,-24.42 -2.79,-18.87 4.42,-35.51 13.84,-51.33 0,-0.06 -0.06,-0.14 -0.11,-0.08 -9.3735,10.30603 -15.20128,23.34231 -16.63,37.2 -2.92,-3 -4.32,-7.63 -5.61,-11.56 -0.34512,-0.86872 -0.5216,-1.79524 -0.52,-2.73 -2.07331,4.90801 -4.9493,9.43659 -8.51,13.4 -1.88,2.05 -5.6,6.65 -8.89,5.49 -1.14496,-0.54754 -1.99532,-1.56578 -2.33,-2.79 -0.67723,-2.11201 -0.99499,-4.32275 -0.94,-6.54 -0.0517,-4.98761 0.62202,-9.95624 2,-14.75 1.33,-4.62 3.48,-8.67 5.49,-13 C 317.32,302 309.13,309 300.2,312 c -1.81,0.6 -4.26,1.62 -6.17,1.22 -5.9,-1.2 -4.54,-6.46 -3.24,-10.15 1.56244,-4.20504 3.70664,-8.17028 6.37,-11.78 2.39119,-3.29266 5.06824,-6.36792 8,-9.19 2.48,-2.42 5,-4.71 7.48,-7.12 -0.37,-1.07 -0.45,-2.15 -0.71,-3.22 -0.50773,-2.26651 -0.88502,-4.56028 -1.13,-6.87 -0.53333,-4.3 -1.07,-8.60333 -1.61,-12.91 -0.0357,-1.53102 -0.6296,-2.99623 -1.67,-4.12 -1.24,-1.23 -2.65,-2.29 -3.9,-3.51 -2.66667,-2.6 -5.21667,-5.29333 -7.65,-8.08 -4.83809,-5.51478 -9.29189,-11.35517 -13.33,-17.48 -8.00927,-12.23979 -14.51924,-25.39738 -19.39,-39.19 -4.92104,-13.87914 -8.50073,-28.19792 -10.69,-42.76 -1,-6.25 -1.7,-12.55 -2.22,-18.86 -1.08,-13 -1.37,-26.13 -1.15,-39.21 0.19,-11.18 -1.91,-31.94 11.62,-36.51 6.54,-2.21 14,1.56 19.78,4.32 5.72549,2.788127 11.25489,5.962105 16.55,9.5 10.35,6.84 20.06,14.64 29.64,22.48 20.11,16.48 39,34.85 50.16,58.7 v 0.06 c -0.33828,2.93433 -0.40189,5.89384 -0.19,8.84 3.4,-11.37 6.69,-23.45 13.31,-33.49 1.50227,-2.30407 3.17353,-4.49342 5,-6.55 1.89,-2.09 3.73,-4.06 6.41,-5.15 0.33676,-0.18502 0.7354,-0.22126 1.1,-0.1 0.28953,0.18618 0.497,0.47593 0.58,0.81 3.7,9.7 -0.69,19.83 -2.79,29.31 9.42,-9.67 17.23,-19.88 30.27,-24.94 3.26,-1.26 6.26,-2.35 9.83,-2.43 0.54923,-0.0894 1.10853,0.0847 1.51,0.47 0.29016,0.52241 0.29016,1.15759 0,1.68 -1.54,3.9 -4.57,7 -7.66,9.85 -3.93,3.6 -8.07,7 -12.22,10.29 1.05,-0.85 4.06,-1 5.4,-1.4 1.78,-0.53 3.48,-1.09 5.28,-1.46 4.11084,-0.94671 8.30379,-1.49259 12.52,-1.63 6.93,-0.07 17.44,0.91 21.19,7.76 0.72,-4.16 -1.66,-6.13 -5.19,-7.77 -0.79,-0.37 -9.38,-3.36 -9.68,-2.56 3.39,-9.21 5.75,-18.76 9.39,-27.85 3.93643,-10.095212 8.58133,-19.899631 13.9,-29.34 2.87,-5 5.95,-11.27 12,-12.68 5.84,-1.35 13.09,0.85 18.86,2 10.83187,2.127202 21.50135,5.010933 31.93,8.63 10.19,3.52 23.18,7 29.21,16.66 5.82,9.34 7.63,21.74 6.21,32.52 -0.8,6 -1.56,13.72 -9.4,13.41 -6,-0.24 -11.43,-3.39 -16.48,-6.26 -8.65044,-4.9196 -16.80795,-10.65933 -24.36,-17.14 -8.32882,-7.140816 -15.88672,-15.134432 -22.55,-23.85 -4.63,-6.08 -8.26,-12.84 -14,-18 -0.27266,-0.287102 -0.61836,-0.494524 -1,-0.6 -0.45958,-0.03999 -0.91885,0.08013 -1.3,0.34 -1.93034,1.071373 -3.47879,2.717703 -4.43,4.71 2.36,-2.4 5.28,-3.08 7.33,0 2.54,3.9 4.73,8 7.42,11.76 3.31342,4.674757 6.87173,9.171034 10.66,13.47 7.16115,8.087427 15.11416,15.43743 23.74,21.94 5.41,4.09 11.48,8.66 17.89,12.1 -0.22,13.52 -1.59,27.41 -7,39.9 -5.23479,11.60419 -12.76235,22.02983 -22.13,30.65 -0.13363,0.10856 -0.23696,0.24979 -0.3,0.41 -0.0383,0.21317 7.2e-4,0.43301 0.11,0.62 0.59977,1.4345 1.28775,2.8305 2.06,4.18 -0.41,-0.72 5.58,-6.4 6.23,-7.17 7.4,-8.83 13,-19.16 17.19,-29.87 4.68013,-11.79847 7.11522,-24.36735 7.18,-37.06 2.44942,1.1531 5.0003,2.07704 7.62,2.76 4.21,1.07 9.83,1.46 13.44,-1.51 3.17,-2.61 3.67,-7.49 4.2,-11.25 1.67074,-11.07023 0.26267,-22.386753 -4.07,-32.71 -4.53,-10.31 -13,-14.49 -23,-18.48 -11.8789,-4.719942 -24.14488,-8.400408 -36.66,-11 -5.67,-1.18 -11.43,-2.28 -17.19,-2.9 -4.74,-0.51 -9.67,-0.44 -13.5,2.79 -4.42,3.72 -7.25,9.9 -10.35,14.7 -3.67664,5.78346 -6.90924,11.837497 -9.67,18.11 -5,11.22 -10.13,23.44 -11.61,35.77 -5.69162,-0.26151 -11.38752,0.41416 -16.86,2 4,-2.74 7.95,-5.86 10.39,-9.77 2.28,-3.66 2.21,-8.65 -3.57,-8.49 -12.76,0.36 -24.67,9.2 -33.49,18.85 1.25702,-5.93416 1.25702,-12.06584 0,-18 -1.49,-6.79 -7.74,-3.23 -10.85,-0.44 -8.64428,7.97954 -14.60122,18.44347 -17.05,29.95 -9.52,-21.72 -26.91,-38.6 -45,-53.54 -10.09,-8.34 -20.4,-16.58 -31.24,-23.93 -9.84,-6.68 -22.27,-15.14 -34.4,-16.43 -11.48,-1.22 -18,8.52 -19.56,18.76 -2,13.85 -1.35,28.67 -0.9,42.62 0.87,27.66 4.81,55.43 13.95,81.64 9.27,26.54 23.67,50.89 44.73,69.74 0.32795,0.30377 0.74543,0.49321 1.19,0.54 -0.2,0 0.76,8.93 0.84,9.53 0.27,2.11 0.66,4.24 0.78,6.36 0.05,0.79 1.15,5.4 0.77,5.81 -1.67,1.79 -3.39,3.51 -5,5.32 -1.61,1.81 -3.37,3.84 -4.94,5.85 -3.19037,3.98839 -5.87727,8.3546 -8,13 -1.88,4.25 -5.64,13.54 -0.12,16.88 2.82,1.71 6.52,1.57 9.59,0.71 4.67071,-1.36101 9.06946,-3.52316 13,-6.39 1,-0.69 1.83,-1.37 2.63,-2.05 -1.10906,2.60124 -1.88196,5.33327 -2.3,8.13 -0.85,5.47 -0.85,13.19 2.76,17.79 3.15,4 9,1.47 12.25,-1.06 3.10877,-2.29508 5.51565,-5.4119 6.95,-9 1.36294,3.81934 3.84388,7.14003 7.12,9.53 l 0.12,0.07 c -0.2231,7.36015 1.0281,14.69058 3.68,21.56 3.68,9.35 9.8,19.15 19.28,23.42 1.81286,0.82304 3.73669,1.3756 5.71,1.64 -0.46,4.95333 -0.74,9.91667 -0.84,14.89 -0.09,4.5 -0.72,9.43 0.14,13.88 0,0.22 0.11,0.43 0.17,0.64 -0.21264,0.11444 -0.39977,0.27095 -0.55,0.46 39.87546,50.2706 150.74799,20.95505 164.64,-16.42 z m -160.93,7.92 c 0.15,-2.48 0.3,-5 0.43,-7.44 0.24,-4.64 0.33,-9.27 0.25,-13.92 1.03094,-0.10397 2.04141,-0.35659 3,-0.75 2.4,4.89 7.71,8.52 12.2,11.27 5.78806,3.42703 12.05799,5.96533 18.6,7.53 14.368,3.62336 29.25893,4.70634 44,3.2 27.68,-2.67 54.42,-15.56 71,-38.41 0.70613,-0.99526 0.0915,-2.38365 -1.12,-2.53 v -3.35 c 1.57,0.26 3.54,2.17 4.18,3.12 1,1.43 1,3.34 1.11,5 0.11,1.66 0.21,3.37 0.37,5.06 0.29508,3.51296 1.04812,6.97227 2.24,10.29 1.32,3.56 3.78,7.34 2.53,11.26 -1.25,3.92 -5.29,7 -8.2,9.77 -10.58138,9.99768 -23.05625,17.77705 -36.69,22.88 -28.52,10.82 -63.45,11.86 -92,0.6 -3.96357,-1.54694 -7.81312,-3.37146 -11.52,-5.46 -3.52,-2 -9.25,-5.7 -10.48,-10 -0.76,-2.37 -0.01,-5.64 0.14,-8.12 z m -3.71,8.5 c 3.32,4.91 12.33,11.56 16.76,14.21 32.76863,16.45217 73.75645,14.87957 105.7,1.91 14.59,-6.11 30.39,-15.51 39.86,-28.5 0.43,-0.59 0.82,-1.17 1.19,-1.77 -24.77138,28.29671 -82.97968,43.46246 -102.55479,38.04616 C 423.96694,430.8876 393.70104,428.20472 370.56,409.08 Z"
         id="path227"
         sodipodi:nodetypes="ccccccccccccccccccccccccccccccscccccccccccccccccccccscccccccccccccccccccccccccccccccccccccccccccccccccccccccccccccccccccccccccccccccccccccccccccccccccccccccccccccccccccscccccccccccccccccccccccccccccccsccsccccccccccccsc" />
      <path
         class="cls-26"
         d="m 509.7,217.32 c -2,0.21 -5,1.65 -6.93,2.73 3.71,-5.2 3.87,-12.73 2.64,-19 -2,-9.9 -5.18,-18.89 -13.7,-24.8 2.11,0.47 5.27,0.3 7.36,0.61 a 0.26,0.26 0 0 0 0.2,-0.48 38.6,38.6 0 0 0 -25.89,-8.24 22.92,22.92 0 0 0 -13,4.74 c -11.33,9.37 -8.27,27.06 -3.61,38.94 2.76,7 7.35,13.65 14.35,17 6,2.84 12.71,4.14 18.76,1 a 104.48,104.48 0 0 0 9.91,-6.05 c 3.23,-2.15 6.94,-3.7 10.05,-5.95 0.23,-0.08 0.16,-0.53 -0.14,-0.5 z m -10.29,5.09 c -1.19,0.83 -2.34,1.66 -3.45,2.37 -7.19,4.6 -15.89,6.95 -23.79,2.8 -7.06,-3.7 -12.48,-11.74 -15,-19.07 -3.41,-9.79 -3.72,-23.59 5.06,-30.69 8.78,-7.1 21.95,-4.73 30.25,2.38 a 33,33 0 0 1 6.93,42.21 z"
         id="path251" />
      <path
         class="cls-26"
         d="m 418.22,247.13 c 3.08,-6.21 3.07,-13.39 1.7,-20.07 -2.59,-12.69 -10.58,-24.18 -23.08,-28.33 a 31.14,31.14 0 0 0 -6.59,-1.41 c 1.77,-0.26 3.38,-1.06 5.16,-1.36 1.22,-0.21 4.24,-0.76 5.33,0 a 17.93,17.93 0 0 0 -9.82,-2.85 37.39,37.39 0 0 0 -10.22,1.55 39.58,39.58 0 0 0 -12.67,6 c -8.42,6 -18.25,17.61 -18.58,28.56 a 0.2,0.2 0 0 0 0.36,0.15 c 2.71,-3.77 4.47,-8.13 7.1,-12 -3.3,9.6 -2.17,21.52 2,30 a 32.52,32.52 0 0 0 13.76,13.86 17.66,17.66 0 0 0 8,2.24 36,36 0 0 0 -4.14,3.06 c -0.14,0.12 0,0.38 0.18,0.3 a 97.38,97.38 0 0 1 21.86,-7.43 c 6.91,-1.44 13.64,-2.47 20.33,-4.74 0.14,0 0.11,-0.29 0,-0.29 -2.13,0 -4.35,0.09 -6.63,0.24 a 20.46,20.46 0 0 0 5.95,-7.48 z m -10.89,8 a 71.81,71.81 0 0 0 -21.76,5.72 c -5.84,0.65 -12.45,0.09 -17.06,-3.23 -12.15,-8.77 -12.64,-25.86 -7.4,-38.61 a 28.89,28.89 0 0 1 16.5,-16.09 c 13.22,-4.85 29.59,1 36.67,13.49 a 34.18,34.18 0 0 1 4.16,21.59 24.6,24.6 0 0 1 -4.09,10.75 c -1.93,2.73 -4.56,4.25 -7.02,6.33 z"
         id="path253" />
      <g
         id="g301">
        <path
           class="cls-29"
           d="m 428.54,241.22 v 0 a 172.65,172.65 0 0 0 -11.69,-44.45 c -1.92,-4.67 -5.41,-11.07 -13.35,-12.75 a 35.12,35.12 0 0 0 -9.95,-0.28 c -21.35,1.61 -49.08,9.27 -72.38,20 -4.88,2.26 -6.62,4.7 -7.16,10.05 -0.84,8.36 2.5,17.61 5.45,25.76 0.45,1.25 0.89,2.46 1.3,3.63 a 186.1,186.1 0 0 0 7.14,17.59 c 0.3,0.63 0.6,1.27 0.89,1.91 a 78.48,78.48 0 0 0 5.51,10.48 36.51,36.51 0 0 0 2.65,3.53 13.79,13.79 0 0 0 4.15,3.5 15,15 0 0 0 3.86,1.18 35.64,35.64 0 0 0 6.3,0.53 c 7.38,0 15.05,-1.92 22,-3.66 l 2.4,-0.6 c 8.69,-2.14 37.38,-12.83 43.88,-17.61 7.28,-5.35 9.97,-10.97 9,-18.81 z"
           id="path259" />
        <path
           class="cls-29"
           d="m 549.46,202.77 v 0 a 74,74 0 0 0 -1.45,-11 l -0.36,-2 c -1,-5.84 -2.4,-11.69 -4,-17.38 -0.32,-1.13 -0.64,-2.31 -1,-3.52 -2.15,-7.86 -4.58,-16.76 -9.69,-22.82 -3.29,-3.91 -6,-4.91 -10.91,-4.1 a 176,176 0 0 0 -60.19,21.77 31.57,31.57 0 0 0 -7.41,5.43 c -5.15,5.52 -4.35,12.35 -3.3,17 a 165.81,165.81 0 0 0 15,40.6 c 3.79,7.22 8.31,10.17 16.11,10.51 0.57,0 1.15,0 1.72,0 6.94,0 13.79,-1.76 20.75,-3.73 A 161.49,161.49 0 0 0 527.09,226 c 5.73,-2.57 13.59,-6.09 18.67,-11.18 a 13.38,13.38 0 0 0 2.31,-3 12.83,12.83 0 0 0 1.28,-4.93 32.35,32.35 0 0 0 0.11,-4.12 z"
           id="path261" />
        <g
           class="cls-30"
           id="g267">
          <path
             class="cls-31"
             d="m 429.48,240.28 v 0 a 172.65,172.65 0 0 0 -11.69,-44.45 c -1.92,-4.67 -5.41,-11.07 -13.35,-12.75 a 35.12,35.12 0 0 0 -9.95,-0.28 c -21.35,1.61 -49.08,9.27 -72.38,20 -4.88,2.26 -6.62,4.7 -7.16,10.05 -0.84,8.36 2.5,17.61 5.45,25.76 0.45,1.25 0.89,2.46 1.3,3.63 a 183.47,183.47 0 0 0 7.14,17.59 c 0.3,0.63 0.6,1.27 0.89,1.91 a 78.48,78.48 0 0 0 5.51,10.48 36.51,36.51 0 0 0 2.65,3.53 13.79,13.79 0 0 0 4.15,3.5 15,15 0 0 0 3.86,1.18 35.64,35.64 0 0 0 6.3,0.53 c 7.38,0 15.05,-1.92 22,-3.66 l 2.4,-0.6 c 8.69,-2.14 37.37,-12.83 43.88,-17.61 7.28,-5.35 9.97,-10.97 9,-18.81 z"
             id="path263" />
          <path
             class="cls-31"
             d="m 550.4,201.83 v 0 a 74,74 0 0 0 -1.45,-11 l -0.36,-2 c -1.05,-5.84 -2.4,-11.69 -4,-17.38 -0.32,-1.13 -0.64,-2.31 -1,-3.52 -2.15,-7.86 -4.58,-16.76 -9.69,-22.82 -3.29,-3.91 -5.95,-4.91 -10.91,-4.1 a 176,176 0 0 0 -60.19,21.77 31.57,31.57 0 0 0 -7.41,5.43 c -5.16,5.52 -4.35,12.35 -3.3,17 a 165.81,165.81 0 0 0 15,40.6 c 3.79,7.23 8.31,10.17 16.11,10.51 0.57,0 1.15,0 1.72,0 6.94,0 13.78,-1.76 20.75,-3.73 A 161.49,161.49 0 0 0 528,225.05 c 5.73,-2.57 13.59,-6.09 18.67,-11.18 a 13.38,13.38 0 0 0 2.31,-3 12.83,12.83 0 0 0 1.28,-4.93 32.35,32.35 0 0 0 0.14,-4.11 z"
             id="path265" />
        </g>
        <g
           class="cls-32"
           id="g273">
          <path
             class="cls-33"
             d="m 429.48,240.28 v 0 a 172.65,172.65 0 0 0 -11.69,-44.45 c -1.92,-4.67 -5.41,-11.07 -13.35,-12.75 a 35.12,35.12 0 0 0 -9.95,-0.28 c -21.35,1.61 -49.08,9.27 -72.38,20 -4.88,2.26 -6.62,4.7 -7.16,10.05 -0.84,8.36 2.5,17.61 5.45,25.76 0.45,1.25 0.89,2.46 1.3,3.63 a 183.47,183.47 0 0 0 7.14,17.59 c 0.3,0.63 0.6,1.27 0.89,1.91 a 78.48,78.48 0 0 0 5.51,10.48 36.51,36.51 0 0 0 2.65,3.53 13.79,13.79 0 0 0 4.15,3.5 15,15 0 0 0 3.86,1.18 35.64,35.64 0 0 0 6.3,0.53 c 7.38,0 15.05,-1.92 22,-3.66 l 2.4,-0.6 c 8.69,-2.14 37.37,-12.83 43.88,-17.61 7.28,-5.35 9.97,-10.97 9,-18.81 z"
             id="path269" />
          <path
             class="cls-33"
             d="m 550.4,201.83 v 0 a 74,74 0 0 0 -1.45,-11 l -0.36,-2 c -1.05,-5.84 -2.4,-11.69 -4,-17.38 -0.32,-1.13 -0.64,-2.31 -1,-3.52 -2.15,-7.86 -4.58,-16.76 -9.69,-22.82 -3.29,-3.91 -5.95,-4.91 -10.91,-4.1 a 176,176 0 0 0 -60.19,21.77 31.57,31.57 0 0 0 -7.41,5.43 c -5.16,5.52 -4.35,12.35 -3.3,17 a 165.81,165.81 0 0 0 15,40.6 c 3.79,7.23 8.31,10.17 16.11,10.51 0.57,0 1.15,0 1.72,0 6.94,0 13.78,-1.76 20.75,-3.73 A 161.49,161.49 0 0 0 528,225.05 c 5.73,-2.57 13.59,-6.09 18.67,-11.18 a 13.38,13.38 0 0 0 2.31,-3 12.83,12.83 0 0 0 1.28,-4.93 32.35,32.35 0 0 0 0.14,-4.11 z"
             id="path271" />
        </g>
        <g
           class="cls-34"
           id="g287">
          <g
             id="g279">
            <path
               class="cls-4"
               d="m 395.1,215.08 c -1,8.8 -2,17.59 -3.21,26.37 -1.05,7.84 -2.35,15.66 -3.44,23.49 2.27,-0.82 4.62,-1.7 7,-2.61 2.59,-10.61 4.8,-21.32 7.55,-31.89 2.63,-10.1 6,-20 8.53,-30.1 -0.22,-0.55 -0.42,-1.1 -0.65,-1.64 -2.11,-5.12 -4.42,-7.51 -8,-8.26 a 18.21,18.21 0 0 0 -3.78,-0.34 c -0.52,0 -1.06,0 -1.59,0.05 -0.51,8.33 -1.42,16.64 -2.41,24.93 z"
               id="path275" />
            <path
               class="cls-4"
               d="m 359.56,197.05 c -1.25,4.23 -2.58,8.44 -3.95,12.64 -1.28,3.93 -2.63,7.85 -3.86,11.8 -1.23,3.95 -2.34,8.21 -3.44,12.32 Q 345,246 342.22,258.31 c -0.62,2.66 -1.2,5.33 -1.78,8 0.35,0.6 0.7,1.19 1.07,1.76 a 29.19,29.19 0 0 0 2.1,2.8 7.14,7.14 0 0 0 1.8,1.65 8.49,8.49 0 0 0 1.82,0.51 28.56,28.56 0 0 0 5,0.41 62.86,62.86 0 0 0 13.57,-1.84 q 3.28,-12.43 6.55,-24.88 c 2.65,-10.12 5.07,-20.32 8.1,-30.33 2.57,-8.53 5.48,-16.94 8.21,-25.42 a 198.45,198.45 0 0 0 -29.1,6.08 z"
               id="path277" />
          </g>
          <g
             id="g285">
            <path
               class="cls-4"
               d="m 518.87,154 c -0.72,14.19 -1.42,28.35 -1.54,42.56 -0.07,8.19 0,16.38 0.27,24.57 l 1.6,-0.58 c 0.14,-0.9 0.28,-1.79 0.43,-2.68 3.44,-20.49 8.59,-40.65 12.5,-61 a 27.07,27.07 0 0 0 -4,-6.82 c -1.42,-1.69 -1.75,-1.69 -2.31,-1.69 a 10.38,10.38 0 0 0 -1.64,0.16 c -1.72,0.28 -3.43,0.6 -5.13,0.93 q -0.05,2.24 -0.18,4.55 z"
               id="path281" />
            <path
               class="cls-4"
               d="m 488.59,158.51 c -2.3,13.26 -4.34,26.57 -6.34,39.87 q -2.17,14.55 -4.39,29.08 a 11.31,11.31 0 0 0 5.66,1.39 c 0.46,0 0.93,0 1.39,0 5.46,0 11.12,-1.34 16.93,-2.94 0.53,-3.6 1.12,-7.19 1.67,-10.78 1.57,-10.3 3.17,-20.59 4.9,-30.86 1.6,-9.52 3.14,-19.07 5.39,-28.46 0.44,-1.86 0.91,-3.74 1.35,-5.63 a 166.89,166.89 0 0 0 -26.56,8.33 z"
               id="path283" />
          </g>
        </g>
        <path
           class="cls-6"
           d="m 556.11,198.89 c -0.17,-6.13 -1.66,-14.22 -2.74,-20.26 -0.2,-1.15 -3.38,-13.6 -3.28,-13.65 2.55,-1.34 2.29,-5.62 1.89,-7.91 a 63.17,63.17 0 0 0 -4.7,-15.34 c -2,-4.56 -3.33,-9 -9,-8.77 a 154.79,154.79 0 0 0 -19.66,2.22 c -20.1,3.37 -40.07,11.59 -57.86,21.24 -5,2.71 -14.31,7.52 -15.26,13.81 a 37.21,37.21 0 0 0 -0.1,8.76 c -8.23,-1.62 -19.89,1 -24.83,7.9 a 40.77,40.77 0 0 0 -5.87,-8.2 c -4.75,-4.93 -16.11,-3.51 -22.27,-2.87 -22,2.28 -49.89,9.92 -70.05,19.08 a 170.13,170.13 0 0 0 -19,9.9 c -5.28,3.24 -3.68,7.89 -2.7,13.1 a 66.3,66.3 0 0 0 5.28,16.23 c 1.06,2.23 3.49,6.13 6.6,5.77 0.12,0 5,12.77 5.51,13.9 2.77,5.92 6.45,13.89 10.09,19.33 3,4.54 4.73,7.86 9.29,11.24 3.86,2.87 9.88,3.23 14.57,2.76 6.47,-0.65 11.77,-2 18.14,-3.34 13.13,-2.67 30.94,-9.32 43.06,-15.06 9,-4.26 22,-10.57 22.58,-21.64 0.66,-12.16 -2.54,-24.34 -5.73,-36 -0.47,-1.71 -1,-3.42 -1.49,-5.13 a 18.93,18.93 0 0 1 9.62,-7.12 21.91,21.91 0 0 1 7.26,-1.69 11.56,11.56 0 0 1 4,0.8 c 0.58,1.81 1.2,3.61 1.84,5.4 3.81,10.68 8.4,22.82 15.4,31.92 6.38,8.27 19.08,5.38 28.13,4 a 150,150 0 0 0 35.31,-10.27 174.74,174.74 0 0 0 16.19,-7.67 c 3.79,-2.08 7.41,-4.66 8.79,-8.89 1.62,-5 1.12,-8.44 0.99,-13.55 z m -137,58.29 c -6.19,4.55 -34.54,15.13 -43,17.23 -9.2,2.27 -20.22,5.4 -29.73,3.69 a 11.37,11.37 0 0 1 -3.21,-1 11.19,11.19 0 0 1 -3.43,-2.92 33.51,33.51 0 0 1 -2.46,-3.29 92.79,92.79 0 0 1 -6.24,-12.1 184.1,184.1 0 0 1 -7.06,-17.37 c -2.94,-8.46 -7.53,-19.28 -6.62,-28.38 0.44,-4.42 1.61,-6.21 5.81,-8.14 20.93,-9.63 48.59,-18.05 71.57,-19.79 a 32.75,32.75 0 0 1 9.28,0.24 c 6.19,1.31 9.47,6 11.67,11.35 a 170.27,170.27 0 0 1 11.53,43.84 c 0.84,7.46 -1.89,12.06 -8.13,16.64 z M 548,205.75 a 10.38,10.38 0 0 1 -1,4 10.94,10.94 0 0 1 -1.92,2.43 c -4.66,4.67 -11.9,8 -17.95,10.69 a 160.35,160.35 0 0 1 -22.05,7.5 c -7.09,2 -14.36,3.92 -21.73,3.6 -7.16,-0.31 -10.88,-3.06 -14.13,-9.25 a 163.73,163.73 0 0 1 -14.77,-40 c -1.19,-5.28 -1.24,-10.64 2.73,-14.88 a 29.21,29.21 0 0 1 6.87,-5 174.71,174.71 0 0 1 59.39,-21.48 c 4.2,-0.69 6,0.1 8.74,3.3 5.55,6.58 7.88,17.36 10.19,25.47 a 173.24,173.24 0 0 1 4,17.15 88.84,88.84 0 0 1 1.77,12.63 30.88,30.88 0 0 1 -0.14,3.84 z"
           id="path289" />
        <path
           class="cls-22"
           d="m 429,240.34 c 0.95,7.64 -1.69,13.13 -8.81,18.36 -6.46,4.75 -35.05,15.4 -43.71,17.53 l -2.38,0.6 c -6.83,1.71 -14.57,3.64 -21.93,3.64 A 34.79,34.79 0 0 1 346,280 a 13.39,13.39 0 0 1 -3.73,-1.14 13.05,13.05 0 0 1 -4,-3.38 c -0.56,-0.65 -1.09,-1.35 -1.61,-2.07 0.07,0.12 0.14,0.25 0.22,0.37 a 37,37 0 0 0 2.58,3.48 13.43,13.43 0 0 0 4,3.38 13.17,13.17 0 0 0 3.7,1.13 34.31,34.31 0 0 0 6.16,0.53 c 7.3,0 15,-1.94 21.75,-3.65 l 2.37,-0.59 c 8.59,-2.13 36.95,-12.79 43.37,-17.54 7.06,-5.23 9.67,-10.72 8.73,-18.35 a 171.61,171.61 0 0 0 -6.12,-28.94 170.78,170.78 0 0 1 5.58,27.11 z"
           id="path291" />
        <path
           class="cls-22"
           d="m 309,235.1 a 64.75,64.75 0 0 1 -5.09,-15.77 c -0.1,-0.53 -0.21,-1.06 -0.31,-1.57 -1,-4.84 -1.31,-7.46 2.13,-9.58 a 163.23,163.23 0 0 1 18.68,-9.79 c 19.83,-9.08 47.52,-16.69 68.92,-18.93 l 0.74,-0.07 a 83.14,83.14 0 0 1 8.83,-0.61 c 5.4,0 9.09,1 11,3 a 38.62,38.62 0 0 1 5.55,7.82 l 1.44,2.55 1.7,-2.39 c 3.71,-5.23 11.77,-7.57 18.11,-7.57 a 24.39,24.39 0 0 1 4.64,0.43 l 2.43,0.49 -0.21,-2.5 a 35.29,35.29 0 0 1 0.09,-8.31 c 0.76,-5.12 9.11,-9.67 13.59,-12.11 l 0.6,-0.33 c 20.06,-11 39.18,-18.06 56.82,-21 a 147.8,147.8 0 0 1 19.27,-2.19 h 0.34 c 3.39,0 4.48,2.15 6.26,6.28 0.19,0.46 0.39,0.92 0.6,1.39 a 62.52,62.52 0 0 1 4.53,14.88 14.11,14.11 0 0 1 0.16,3.47 c 0.62,-1.15 0.63,-3.34 0.3,-5.24 a 61.77,61.77 0 0 0 -4.56,-14.89 c -0.21,-0.46 -0.41,-0.92 -0.61,-1.38 -1.79,-4.13 -2.89,-6.28 -6.3,-6.28 h -0.35 a 152,152 0 0 0 -19.41,2.1 c -17.78,3 -37.05,10.07 -57.27,21 l -0.6,0.33 c -4.52,2.44 -12.93,7 -13.7,12.11 a 35.38,35.38 0 0 0 -0.09,8.32 l 0.22,2.49 -2.46,-0.48 a 23.91,23.91 0 0 0 -4.67,-0.43 c -6.39,0 -14.52,2.34 -18.26,7.57 l -1.7,2.39 -1.46,-2.55 a 38,38 0 0 0 -5.6,-7.82 c -1.91,-2 -5.63,-3 -11.07,-3 a 84.53,84.53 0 0 0 -8.9,0.6 l -0.75,0.08 c -21.56,2.23 -49.47,9.84 -69.46,18.92 a 167.37,167.37 0 0 0 -18.83,9.79 c -3.47,2.13 -3.12,4.75 -2.14,9.58 0.1,0.52 0.21,1.05 0.31,1.58 a 64.05,64.05 0 0 0 5.13,15.76 13.24,13.24 0 0 0 2.47,3.64 15.45,15.45 0 0 1 -1.06,-1.78 z"
           id="path293" />
        <path
           class="cls-22"
           d="m 554.32,201.37 c 0,-0.78 -0.07,-1.58 -0.09,-2.43 -0.15,-5.74 -1.5,-13.23 -2.58,-19.25 l -0.13,-0.73 c -0.08,-0.46 -0.83,-3.48 -1.49,-6.15 -0.44,-1.8 -0.9,-3.64 -1.23,-5 -0.25,-1 -0.43,-1.78 -0.51,-2.37 -0.78,0.66 -0.56,1.6 0.05,4.14 0.33,1.4 0.79,3.24 1.23,5 0.65,2.67 1.39,5.7 1.47,6.16 l 0.13,0.72 c 1.08,6 2.41,13.51 2.56,19.25 0,0.85 0.06,1.66 0.09,2.43 a 30.06,30.06 0 0 1 -0.49,8.73 v 0 c 1.26,-3.87 1.14,-6.65 0.99,-10.5 z"
           id="path295" />
        <path
           class="cls-22"
           d="m 467.67,227.4 c 3.68,7.06 8.05,9.93 15.6,10.27 0.57,0 1.13,0 1.7,0 6.83,0 13.57,-1.75 20.45,-3.7 a 160.64,160.64 0 0 0 22.13,-7.6 c 5.64,-2.55 13.38,-6 18.37,-11.08 a 12.23,12.23 0 0 0 2.22,-2.87 10.55,10.55 0 0 0 1,-3 9.6,9.6 0 0 1 -0.55,1.24 12.19,12.19 0 0 1 -2.23,2.86 c -5,5.05 -12.83,8.54 -18.52,11.08 a 162.36,162.36 0 0 1 -22.31,7.6 c -6.93,1.95 -13.72,3.71 -20.6,3.71 -0.57,0 -1.15,0 -1.72,0 -7.6,-0.33 -12,-3.21 -15.72,-10.26 a 165.44,165.44 0 0 1 -14.93,-40.48 c -0.08,-0.35 -0.16,-0.72 -0.23,-1.09 0.14,1 0.33,2 0.53,2.86 a 166.36,166.36 0 0 0 14.81,40.46 z"
           id="path297" />
        <path
           class="cls-22"
           d="m 332.33,276 c -0.45,-0.69 -0.91,-1.41 -1.42,-2.17 -3.39,-5.11 -6.8,-12.46 -9.53,-18.37 l -0.34,-0.72 c -0.21,-0.45 -1.41,-3.56 -2.47,-6.3 -2.79,-7.24 -3.25,-8.44 -4.11,-8.63 0.57,1.24 1.38,3.32 2.76,6.85 1.06,2.75 2.27,5.85 2.49,6.31 l 0.33,0.72 c 2.76,5.9 6.19,13.26 9.62,18.37 0.5,0.75 1,1.47 1.42,2.17 0.86,1.31 1.62,2.49 2.43,3.59 z"
           id="path299" />
      </g>
      <g
         id="g309">
        <path
           class="cls-35"
           d="m 486.44,252 a 0.66,0.66 0 0 0 -0.28,0 1.65,1.65 0 0 0 -0.71,0.23 c -2.43,1.21 -4.75,2.64 -7.2,3.79 l -1.28,0.62 c -0.55,0.27 -1.34,0.85 -1.05,1.58 0.29,0.73 1.38,0.55 2,0.41 a 11.07,11.07 0 0 0 1.35,-0.42 22.81,22.81 0 0 0 2.68,-1.3 c 0.88,-0.5 1.74,-1.05 2.59,-1.62 a 5,5 0 0 0 2.16,-2.39 0.84,0.84 0 0 0 0.06,-0.54 0.55,0.55 0 0 0 -0.32,-0.36 z"
           id="path303" />
        <path
           class="cls-35"
           d="m 456.79,264.59 a 1.46,1.46 0 0 0 -0.69,-0.29 6.88,6.88 0 0 0 -2.31,0.46 c -0.79,0.18 -1.57,0.41 -2.38,0.55 a 28.89,28.89 0 0 0 -5.16,1 1.28,1.28 0 0 0 -0.49,0.29 0.45,0.45 0 0 0 -0.09,0.52 0.69,0.69 0 0 0 0.33,0.23 c 3.15,1.28 6.9,0.38 10,-0.77 0.54,-0.2 1.15,-0.52 1.24,-1.09 a 1,1 0 0 0 -0.45,-0.9 z"
           id="path305" />
        <path
           class="cls-35"
           d="m 462.36,263.3 c -0.43,-1 -2.57,-0.11 -3.29,0.15 a 2.09,2.09 0 0 0 -0.74,0.42 0.79,0.79 0 0 0 -0.24,0.78 0.78,0.78 0 0 0 0.56,0.48 2,2 0 0 0 0.77,0 c 0.79,-0.13 3.47,-0.55 2.94,-1.83 z"
           id="path307" />
      </g>
      <path
         class="cls-35"
         d="m 488.82,322.94 a 7.43,7.43 0 0 0 -3.09,-3.42 c -1.26,-0.74 -3.31,-1.32 -4.63,-0.37 a 1.89,1.89 0 0 0 -0.65,2.51 c 0.57,1.1 1.86,1.67 2.66,2.59 a 8.2,8.2 0 0 1 0.87,1.14 3.42,3.42 0 0 0 1.29,1.28 c 0.21,0.21 0.42,0.42 0.62,0.64 a 1.6,1.6 0 0 0 2.49,-0.32 5.19,5.19 0 0 0 0.42,-0.93 l 0.08,-0.27 c 0,-0.11 0,-0.2 0.05,-0.28 a 2.84,2.84 0 0 0 -0.11,-2.57 z"
         id="path311" />
      <path
         class="cls-35"
         d="m 478.84,318.13 a 2.31,2.31 0 0 0 -0.8,-0.67 3.91,3.91 0 0 0 -1.23,-0.19 1.53,1.53 0 0 0 -1.35,0.79 c -0.18,0.19 -0.28,0.42 -0.47,0.6 a 0.82,0.82 0 0 0 0.57,1.38 1.64,1.64 0 0 1 0.35,0.1 1.49,1.49 0 0 0 1.33,0.26 2.83,2.83 0 0 0 1.54,-0.8 1,1 0 0 0 0.06,-1.47 z"
         id="path313" />
    </g>
  </g>
</svg>
